%TF.GenerationSoftware,KiCad,Pcbnew,7.0.7*%
%TF.CreationDate,2023-11-07T19:32:12-06:00*%
%TF.ProjectId,TIAs,54494173-2e6b-4696-9361-645f70636258,rev?*%
%TF.SameCoordinates,Original*%
%TF.FileFunction,Soldermask,Top*%
%TF.FilePolarity,Negative*%
%FSLAX46Y46*%
G04 Gerber Fmt 4.6, Leading zero omitted, Abs format (unit mm)*
G04 Created by KiCad (PCBNEW 7.0.7) date 2023-11-07 19:32:12*
%MOMM*%
%LPD*%
G01*
G04 APERTURE LIST*
G04 Aperture macros list*
%AMRoundRect*
0 Rectangle with rounded corners*
0 $1 Rounding radius*
0 $2 $3 $4 $5 $6 $7 $8 $9 X,Y pos of 4 corners*
0 Add a 4 corners polygon primitive as box body*
4,1,4,$2,$3,$4,$5,$6,$7,$8,$9,$2,$3,0*
0 Add four circle primitives for the rounded corners*
1,1,$1+$1,$2,$3*
1,1,$1+$1,$4,$5*
1,1,$1+$1,$6,$7*
1,1,$1+$1,$8,$9*
0 Add four rect primitives between the rounded corners*
20,1,$1+$1,$2,$3,$4,$5,0*
20,1,$1+$1,$4,$5,$6,$7,0*
20,1,$1+$1,$6,$7,$8,$9,0*
20,1,$1+$1,$8,$9,$2,$3,0*%
G04 Aperture macros list end*
%ADD10RoundRect,0.150000X-0.725000X-0.150000X0.725000X-0.150000X0.725000X0.150000X-0.725000X0.150000X0*%
%ADD11RoundRect,0.237500X0.250000X0.237500X-0.250000X0.237500X-0.250000X-0.237500X0.250000X-0.237500X0*%
%ADD12RoundRect,0.237500X-0.237500X0.287500X-0.237500X-0.287500X0.237500X-0.287500X0.237500X0.287500X0*%
%ADD13RoundRect,0.237500X-0.250000X-0.237500X0.250000X-0.237500X0.250000X0.237500X-0.250000X0.237500X0*%
%ADD14C,2.946400*%
%ADD15C,1.524000*%
%ADD16R,6.350000X2.286000*%
%ADD17R,5.080000X2.413000*%
%ADD18RoundRect,0.237500X0.237500X-0.250000X0.237500X0.250000X-0.237500X0.250000X-0.237500X-0.250000X0*%
%ADD19C,0.800000*%
G04 APERTURE END LIST*
D10*
%TO.C,U1*%
X88255400Y-90601800D03*
X88255400Y-91871800D03*
X88255400Y-93141800D03*
X88255400Y-94411800D03*
X93405400Y-94411800D03*
X93405400Y-93141800D03*
X93405400Y-91871800D03*
X93405400Y-90601800D03*
%TD*%
D11*
%TO.C,R1*%
X85596100Y-92202000D03*
X83771100Y-92202000D03*
%TD*%
D12*
%TO.C,D3*%
X84582000Y-65114200D03*
X84582000Y-66864200D03*
%TD*%
D13*
%TO.C,R2*%
X83821900Y-89103200D03*
X85646900Y-89103200D03*
%TD*%
D14*
%TO.C,H3*%
X103505000Y-91948000D03*
%TD*%
D15*
%TO.C,Conn1*%
X89573100Y-66624200D03*
X92113100Y-66624200D03*
%TD*%
D16*
%TO.C,Conn3*%
X104114600Y-79400400D03*
D17*
X104749600Y-84988400D03*
X104749600Y-73812400D03*
%TD*%
D14*
%TO.C,H4*%
X78105000Y-91948000D03*
%TD*%
%TO.C,H2*%
X78022580Y-66465580D03*
%TD*%
D11*
%TO.C,R5*%
X97799500Y-90627200D03*
X95974500Y-90627200D03*
%TD*%
D13*
%TO.C,R3*%
X95963100Y-93167200D03*
X97788100Y-93167200D03*
%TD*%
D16*
%TO.C,Conn2*%
X77393800Y-79349600D03*
D17*
X76758800Y-73761600D03*
X76758800Y-84937600D03*
%TD*%
D18*
%TO.C,R4*%
X84582000Y-70965700D03*
X84582000Y-69140700D03*
%TD*%
D14*
%TO.C,H1*%
X103587420Y-66465580D03*
%TD*%
D19*
%TO.C,D2*%
X89535000Y-73914000D03*
X92075000Y-73914000D03*
%TD*%
%TO.C,D1*%
X90805000Y-87132000D03*
X93355000Y-84582000D03*
X90805000Y-82032000D03*
%TD*%
M02*
