%TF.GenerationSoftware,KiCad,Pcbnew,7.0.7*%
%TF.CreationDate,2023-11-07T19:32:12-06:00*%
%TF.ProjectId,TIAs,54494173-2e6b-4696-9361-645f70636258,rev?*%
%TF.SameCoordinates,Original*%
%TF.FileFunction,Copper,L2,Bot*%
%TF.FilePolarity,Positive*%
%FSLAX46Y46*%
G04 Gerber Fmt 4.6, Leading zero omitted, Abs format (unit mm)*
G04 Created by KiCad (PCBNEW 7.0.7) date 2023-11-07 19:32:12*
%MOMM*%
%LPD*%
G01*
G04 APERTURE LIST*
%TA.AperFunction,ComponentPad*%
%ADD10C,1.524000*%
%TD*%
%TA.AperFunction,SMDPad,CuDef*%
%ADD11R,5.080000X2.413000*%
%TD*%
%TA.AperFunction,ComponentPad*%
%ADD12C,0.800000*%
%TD*%
%TA.AperFunction,ViaPad*%
%ADD13C,0.800000*%
%TD*%
G04 APERTURE END LIST*
D10*
%TO.P,Conn1,1*%
%TO.N,+3V3*%
X89573100Y-66624200D03*
%TO.P,Conn1,2*%
%TO.N,GND*%
X92113100Y-66624200D03*
%TD*%
D11*
%TO.P,Conn3,2,Sleve*%
%TO.N,GND*%
X104749600Y-84988400D03*
X104749600Y-73812400D03*
%TD*%
%TO.P,Conn2,2,Sleve*%
%TO.N,GND*%
X76758800Y-73761600D03*
X76758800Y-84937600D03*
%TD*%
D12*
%TO.P,D2,1,K*%
%TO.N,Net-(D2-K)*%
X89535000Y-73914000D03*
%TO.P,D2,2,A*%
%TO.N,GND*%
X92075000Y-73914000D03*
%TD*%
%TO.P,D1,1,K*%
%TO.N,Net-(D1-K)*%
X90805000Y-87132000D03*
%TO.P,D1,2,C*%
%TO.N,GND*%
X93355000Y-84582000D03*
%TO.P,D1,3,A*%
X90805000Y-82032000D03*
%TD*%
D13*
%TO.N,GND*%
X99517200Y-86614000D03*
X82143600Y-86258400D03*
%TD*%
%TA.AperFunction,Conductor*%
%TO.N,GND*%
G36*
X102270825Y-62504185D02*
G01*
X102316580Y-62556989D01*
X102326524Y-62626147D01*
X102297499Y-62689703D01*
X102246196Y-62725022D01*
X102041969Y-62799354D01*
X101684611Y-62971449D01*
X101346173Y-63178264D01*
X101346162Y-63178272D01*
X101029995Y-63417760D01*
X101029992Y-63417762D01*
X100739233Y-63687548D01*
X100476785Y-63984939D01*
X100245259Y-64306973D01*
X100245246Y-64306993D01*
X100046936Y-64650476D01*
X99883802Y-65012017D01*
X99757479Y-65387999D01*
X99669219Y-65774691D01*
X99619898Y-66168261D01*
X99610010Y-66564753D01*
X99610010Y-66564767D01*
X99639650Y-66960291D01*
X99639651Y-66960304D01*
X99708528Y-67350919D01*
X99815950Y-67732717D01*
X99815954Y-67732731D01*
X99960855Y-68101933D01*
X99960860Y-68101945D01*
X100141806Y-68454894D01*
X100141811Y-68454903D01*
X100357006Y-68788089D01*
X100483111Y-68946220D01*
X100604315Y-69098205D01*
X100881243Y-69382124D01*
X100881253Y-69382134D01*
X101185096Y-69637088D01*
X101512814Y-69860522D01*
X101861150Y-70050216D01*
X102226643Y-70204284D01*
X102226652Y-70204286D01*
X102226658Y-70204289D01*
X102605655Y-70321194D01*
X102605668Y-70321197D01*
X102994419Y-70399785D01*
X102994434Y-70399788D01*
X103332720Y-70433638D01*
X103389100Y-70439280D01*
X103389101Y-70439280D01*
X103686523Y-70439280D01*
X103884550Y-70429396D01*
X103983565Y-70424455D01*
X104375773Y-70365339D01*
X104760146Y-70267466D01*
X105132865Y-70131808D01*
X105490223Y-69959713D01*
X105828671Y-69752892D01*
X106144844Y-69513400D01*
X106435601Y-69243617D01*
X106698051Y-68946225D01*
X106929586Y-68624180D01*
X107127905Y-68280681D01*
X107291037Y-67919143D01*
X107326957Y-67812231D01*
X107366967Y-67754953D01*
X107431594Y-67728397D01*
X107500318Y-67740998D01*
X107551320Y-67788753D01*
X107568500Y-67851724D01*
X107568500Y-90820243D01*
X107548815Y-90887282D01*
X107496011Y-90933037D01*
X107426853Y-90942981D01*
X107363297Y-90913956D01*
X107325523Y-90855178D01*
X107325135Y-90853827D01*
X107276469Y-90680862D01*
X107276465Y-90680848D01*
X107131564Y-90311646D01*
X107131559Y-90311634D01*
X106950613Y-89958685D01*
X106950609Y-89958677D01*
X106735414Y-89625491D01*
X106488114Y-89315386D01*
X106488111Y-89315383D01*
X106488104Y-89315374D01*
X106211176Y-89031455D01*
X106211173Y-89031452D01*
X106211172Y-89031451D01*
X106211167Y-89031446D01*
X105907324Y-88776492D01*
X105834613Y-88726918D01*
X105579605Y-88553057D01*
X105463494Y-88489826D01*
X105231270Y-88363364D01*
X105231262Y-88363360D01*
X105231259Y-88363359D01*
X104865777Y-88209296D01*
X104865761Y-88209290D01*
X104486764Y-88092385D01*
X104486751Y-88092382D01*
X104098000Y-88013794D01*
X104097979Y-88013791D01*
X103703320Y-87974300D01*
X103703319Y-87974300D01*
X103405899Y-87974300D01*
X103405897Y-87974300D01*
X103108855Y-87989124D01*
X102716647Y-88048241D01*
X102332272Y-88146114D01*
X101959549Y-88281774D01*
X101602191Y-88453869D01*
X101263753Y-88660684D01*
X101263742Y-88660692D01*
X100947575Y-88900180D01*
X100947572Y-88900182D01*
X100656813Y-89169968D01*
X100394365Y-89467359D01*
X100162839Y-89789393D01*
X100162826Y-89789413D01*
X99964516Y-90132896D01*
X99801382Y-90494437D01*
X99675059Y-90870419D01*
X99586799Y-91257111D01*
X99537478Y-91650681D01*
X99527590Y-92047173D01*
X99527590Y-92047187D01*
X99557230Y-92442711D01*
X99557231Y-92442724D01*
X99626108Y-92833339D01*
X99733530Y-93215137D01*
X99733534Y-93215151D01*
X99878435Y-93584353D01*
X99878440Y-93584365D01*
X100059386Y-93937314D01*
X100059391Y-93937323D01*
X100274586Y-94270509D01*
X100521886Y-94580614D01*
X100521895Y-94580625D01*
X100798823Y-94864544D01*
X100798833Y-94864554D01*
X101102676Y-95119508D01*
X101430394Y-95342942D01*
X101778730Y-95532636D01*
X102144223Y-95686704D01*
X102144232Y-95686706D01*
X102144238Y-95686709D01*
X102411048Y-95769009D01*
X102469307Y-95807579D01*
X102497464Y-95871524D01*
X102486581Y-95940541D01*
X102440113Y-95992717D01*
X102374498Y-96011500D01*
X79239801Y-96011500D01*
X79172762Y-95991815D01*
X79127007Y-95939011D01*
X79117063Y-95869853D01*
X79146088Y-95806297D01*
X79204866Y-95768523D01*
X79209203Y-95767334D01*
X79277726Y-95749886D01*
X79650445Y-95614228D01*
X80007803Y-95442133D01*
X80346251Y-95235312D01*
X80662424Y-94995820D01*
X80953181Y-94726037D01*
X81215631Y-94428645D01*
X81447166Y-94106600D01*
X81645485Y-93763101D01*
X81808617Y-93401563D01*
X81934941Y-93025578D01*
X82023201Y-92638885D01*
X82072521Y-92245325D01*
X82077462Y-92047173D01*
X82082409Y-91848826D01*
X82082409Y-91848810D01*
X82082409Y-91848809D01*
X82052769Y-91453280D01*
X81983893Y-91062668D01*
X81947420Y-90933037D01*
X81876469Y-90680862D01*
X81876465Y-90680848D01*
X81731564Y-90311646D01*
X81731559Y-90311634D01*
X81550613Y-89958685D01*
X81550609Y-89958677D01*
X81335414Y-89625491D01*
X81088114Y-89315386D01*
X81088111Y-89315383D01*
X81088104Y-89315374D01*
X80811176Y-89031455D01*
X80811173Y-89031452D01*
X80811172Y-89031451D01*
X80811167Y-89031446D01*
X80507324Y-88776492D01*
X80434613Y-88726918D01*
X80179605Y-88553057D01*
X80063493Y-88489826D01*
X79831270Y-88363364D01*
X79831262Y-88363360D01*
X79831259Y-88363359D01*
X79465777Y-88209296D01*
X79465761Y-88209290D01*
X79086764Y-88092385D01*
X79086751Y-88092382D01*
X78698000Y-88013794D01*
X78697979Y-88013791D01*
X78303320Y-87974300D01*
X78303319Y-87974300D01*
X78005899Y-87974300D01*
X78005897Y-87974300D01*
X77708855Y-87989124D01*
X77316647Y-88048241D01*
X76932272Y-88146114D01*
X76559549Y-88281774D01*
X76202191Y-88453869D01*
X75863753Y-88660684D01*
X75863742Y-88660692D01*
X75547575Y-88900180D01*
X75547572Y-88900182D01*
X75256813Y-89169968D01*
X74994365Y-89467359D01*
X74762839Y-89789393D01*
X74762826Y-89789413D01*
X74564516Y-90132896D01*
X74401382Y-90494437D01*
X74283043Y-90846658D01*
X74243032Y-90903938D01*
X74178406Y-90930493D01*
X74109682Y-90917892D01*
X74058679Y-90870137D01*
X74041500Y-90807166D01*
X74041500Y-87132001D01*
X90199318Y-87132001D01*
X90219955Y-87288760D01*
X90219956Y-87288762D01*
X90280464Y-87434841D01*
X90376718Y-87560282D01*
X90502159Y-87656536D01*
X90648238Y-87717044D01*
X90726618Y-87727363D01*
X90804999Y-87737682D01*
X90805000Y-87737682D01*
X90805001Y-87737682D01*
X90857253Y-87730802D01*
X90961762Y-87717044D01*
X91107841Y-87656536D01*
X91233282Y-87560282D01*
X91329536Y-87434841D01*
X91390044Y-87288762D01*
X91410682Y-87132000D01*
X91390044Y-86975238D01*
X91329536Y-86829159D01*
X91233282Y-86703718D01*
X91107841Y-86607464D01*
X90961762Y-86546956D01*
X90961760Y-86546955D01*
X90805001Y-86526318D01*
X90804999Y-86526318D01*
X90648239Y-86546955D01*
X90648237Y-86546956D01*
X90502160Y-86607463D01*
X90376718Y-86703718D01*
X90280463Y-86829160D01*
X90219956Y-86975237D01*
X90219955Y-86975239D01*
X90199318Y-87131998D01*
X90199318Y-87132001D01*
X74041500Y-87132001D01*
X74041500Y-73914001D01*
X88929318Y-73914001D01*
X88949955Y-74070760D01*
X88949956Y-74070762D01*
X89010464Y-74216841D01*
X89106718Y-74342282D01*
X89232159Y-74438536D01*
X89378238Y-74499044D01*
X89456618Y-74509363D01*
X89534999Y-74519682D01*
X89535000Y-74519682D01*
X89535001Y-74519682D01*
X89587254Y-74512802D01*
X89691762Y-74499044D01*
X89837841Y-74438536D01*
X89963282Y-74342282D01*
X90059536Y-74216841D01*
X90120044Y-74070762D01*
X90140682Y-73914000D01*
X90120044Y-73757238D01*
X90059536Y-73611159D01*
X89963282Y-73485718D01*
X89837841Y-73389464D01*
X89691762Y-73328956D01*
X89691760Y-73328955D01*
X89535001Y-73308318D01*
X89534999Y-73308318D01*
X89378239Y-73328955D01*
X89378237Y-73328956D01*
X89232160Y-73389463D01*
X89106718Y-73485718D01*
X89010463Y-73611160D01*
X88949956Y-73757237D01*
X88949955Y-73757239D01*
X88929318Y-73913998D01*
X88929318Y-73914001D01*
X74041500Y-73914001D01*
X74041500Y-67853996D01*
X74061185Y-67786957D01*
X74113989Y-67741202D01*
X74183147Y-67731258D01*
X74246703Y-67760283D01*
X74280928Y-67808694D01*
X74396015Y-68101933D01*
X74396020Y-68101945D01*
X74576966Y-68454894D01*
X74576971Y-68454903D01*
X74792166Y-68788089D01*
X74918271Y-68946220D01*
X75039475Y-69098205D01*
X75316403Y-69382124D01*
X75316413Y-69382134D01*
X75620256Y-69637088D01*
X75947974Y-69860522D01*
X76296310Y-70050216D01*
X76661803Y-70204284D01*
X76661812Y-70204286D01*
X76661818Y-70204289D01*
X77040815Y-70321194D01*
X77040828Y-70321197D01*
X77429579Y-70399785D01*
X77429594Y-70399788D01*
X77767879Y-70433638D01*
X77824260Y-70439280D01*
X77824261Y-70439280D01*
X78121683Y-70439280D01*
X78319710Y-70429396D01*
X78418725Y-70424455D01*
X78810933Y-70365339D01*
X79195306Y-70267466D01*
X79568025Y-70131808D01*
X79925383Y-69959713D01*
X80263831Y-69752892D01*
X80580004Y-69513400D01*
X80870761Y-69243617D01*
X81133211Y-68946225D01*
X81364746Y-68624180D01*
X81563065Y-68280681D01*
X81726197Y-67919143D01*
X81852521Y-67543158D01*
X81940781Y-67156465D01*
X81990101Y-66762905D01*
X81993560Y-66624199D01*
X88605943Y-66624199D01*
X88624526Y-66812881D01*
X88624527Y-66812883D01*
X88679563Y-66994315D01*
X88679564Y-66994318D01*
X88679565Y-66994319D01*
X88679566Y-66994322D01*
X88768934Y-67161518D01*
X88768938Y-67161525D01*
X88889216Y-67308083D01*
X89035774Y-67428361D01*
X89035781Y-67428365D01*
X89202977Y-67517733D01*
X89202978Y-67517733D01*
X89202985Y-67517737D01*
X89384417Y-67572773D01*
X89384416Y-67572773D01*
X89402999Y-67574603D01*
X89573100Y-67591357D01*
X89761783Y-67572773D01*
X89943215Y-67517737D01*
X90110424Y-67428362D01*
X90256983Y-67308083D01*
X90377262Y-67161524D01*
X90466637Y-66994315D01*
X90521673Y-66812883D01*
X90540257Y-66624200D01*
X90521673Y-66435517D01*
X90466637Y-66254085D01*
X90377262Y-66086876D01*
X90377261Y-66086874D01*
X90256983Y-65940316D01*
X90110425Y-65820038D01*
X90110418Y-65820034D01*
X89943222Y-65730666D01*
X89943219Y-65730665D01*
X89943218Y-65730664D01*
X89943215Y-65730663D01*
X89761783Y-65675627D01*
X89761781Y-65675626D01*
X89761783Y-65675626D01*
X89590016Y-65658709D01*
X89573100Y-65657043D01*
X89573099Y-65657043D01*
X89384418Y-65675626D01*
X89277294Y-65708121D01*
X89202985Y-65730663D01*
X89202982Y-65730664D01*
X89202980Y-65730665D01*
X89202977Y-65730666D01*
X89035781Y-65820034D01*
X89035774Y-65820038D01*
X88889216Y-65940316D01*
X88768938Y-66086874D01*
X88768934Y-66086881D01*
X88679566Y-66254077D01*
X88679565Y-66254080D01*
X88624526Y-66435518D01*
X88605943Y-66624199D01*
X81993560Y-66624199D01*
X81998265Y-66435517D01*
X81999989Y-66366406D01*
X81999989Y-66366390D01*
X81991573Y-66254080D01*
X81970349Y-65970860D01*
X81901473Y-65580248D01*
X81794047Y-65198434D01*
X81649139Y-64829214D01*
X81468189Y-64476257D01*
X81252994Y-64143071D01*
X81005694Y-63832966D01*
X81005691Y-63832963D01*
X81005684Y-63832954D01*
X80728756Y-63549035D01*
X80728753Y-63549032D01*
X80728752Y-63549031D01*
X80728747Y-63549026D01*
X80424904Y-63294072D01*
X80352193Y-63244498D01*
X80097185Y-63070637D01*
X79981074Y-63007406D01*
X79748850Y-62880944D01*
X79748842Y-62880940D01*
X79748839Y-62880939D01*
X79383357Y-62726876D01*
X79380434Y-62725812D01*
X79380729Y-62725001D01*
X79325476Y-62688425D01*
X79297315Y-62624482D01*
X79308195Y-62555465D01*
X79354661Y-62503286D01*
X79420281Y-62484500D01*
X102203786Y-62484500D01*
X102270825Y-62504185D01*
G37*
%TD.AperFunction*%
%TD*%
M02*
