%TF.GenerationSoftware,KiCad,Pcbnew,7.0.7*%
%TF.CreationDate,2023-11-07T19:32:12-06:00*%
%TF.ProjectId,TIAs,54494173-2e6b-4696-9361-645f70636258,rev?*%
%TF.SameCoordinates,Original*%
%TF.FileFunction,Copper,L1,Top*%
%TF.FilePolarity,Positive*%
%FSLAX46Y46*%
G04 Gerber Fmt 4.6, Leading zero omitted, Abs format (unit mm)*
G04 Created by KiCad (PCBNEW 7.0.7) date 2023-11-07 19:32:12*
%MOMM*%
%LPD*%
G01*
G04 APERTURE LIST*
G04 Aperture macros list*
%AMRoundRect*
0 Rectangle with rounded corners*
0 $1 Rounding radius*
0 $2 $3 $4 $5 $6 $7 $8 $9 X,Y pos of 4 corners*
0 Add a 4 corners polygon primitive as box body*
4,1,4,$2,$3,$4,$5,$6,$7,$8,$9,$2,$3,0*
0 Add four circle primitives for the rounded corners*
1,1,$1+$1,$2,$3*
1,1,$1+$1,$4,$5*
1,1,$1+$1,$6,$7*
1,1,$1+$1,$8,$9*
0 Add four rect primitives between the rounded corners*
20,1,$1+$1,$2,$3,$4,$5,0*
20,1,$1+$1,$4,$5,$6,$7,0*
20,1,$1+$1,$6,$7,$8,$9,0*
20,1,$1+$1,$8,$9,$2,$3,0*%
G04 Aperture macros list end*
%TA.AperFunction,SMDPad,CuDef*%
%ADD10RoundRect,0.150000X-0.725000X-0.150000X0.725000X-0.150000X0.725000X0.150000X-0.725000X0.150000X0*%
%TD*%
%TA.AperFunction,SMDPad,CuDef*%
%ADD11RoundRect,0.237500X0.250000X0.237500X-0.250000X0.237500X-0.250000X-0.237500X0.250000X-0.237500X0*%
%TD*%
%TA.AperFunction,SMDPad,CuDef*%
%ADD12RoundRect,0.237500X-0.237500X0.287500X-0.237500X-0.287500X0.237500X-0.287500X0.237500X0.287500X0*%
%TD*%
%TA.AperFunction,SMDPad,CuDef*%
%ADD13RoundRect,0.237500X-0.250000X-0.237500X0.250000X-0.237500X0.250000X0.237500X-0.250000X0.237500X0*%
%TD*%
%TA.AperFunction,ComponentPad*%
%ADD14C,1.524000*%
%TD*%
%TA.AperFunction,SMDPad,CuDef*%
%ADD15R,6.350000X2.286000*%
%TD*%
%TA.AperFunction,SMDPad,CuDef*%
%ADD16R,5.080000X2.413000*%
%TD*%
%TA.AperFunction,SMDPad,CuDef*%
%ADD17RoundRect,0.237500X0.237500X-0.250000X0.237500X0.250000X-0.237500X0.250000X-0.237500X-0.250000X0*%
%TD*%
%TA.AperFunction,ComponentPad*%
%ADD18C,0.800000*%
%TD*%
%TA.AperFunction,ViaPad*%
%ADD19C,0.800000*%
%TD*%
%TA.AperFunction,Conductor*%
%ADD20C,0.254000*%
%TD*%
%TA.AperFunction,Conductor*%
%ADD21C,0.250000*%
%TD*%
G04 APERTURE END LIST*
D10*
%TO.P,U1,1*%
%TO.N,Net-(Conn2-Tip)*%
X88255400Y-90601800D03*
%TO.P,U1,2,-*%
%TO.N,Net-(D1-K)*%
X88255400Y-91871800D03*
%TO.P,U1,3,+*%
%TO.N,GND*%
X88255400Y-93141800D03*
%TO.P,U1,4,V-*%
X88255400Y-94411800D03*
%TO.P,U1,5,+*%
X93405400Y-94411800D03*
%TO.P,U1,6,-*%
%TO.N,Net-(D2-K)*%
X93405400Y-93141800D03*
%TO.P,U1,7*%
%TO.N,Net-(Conn3-Tip)*%
X93405400Y-91871800D03*
%TO.P,U1,8,V+*%
%TO.N,+3V3*%
X93405400Y-90601800D03*
%TD*%
D11*
%TO.P,R1,1*%
%TO.N,Net-(D1-K)*%
X85596100Y-92202000D03*
%TO.P,R1,2*%
%TO.N,Net-(R1-Pad2)*%
X83771100Y-92202000D03*
%TD*%
D12*
%TO.P,D3,1,K*%
%TO.N,GND*%
X84582000Y-65114200D03*
%TO.P,D3,2,A*%
%TO.N,Net-(D3-A)*%
X84582000Y-66864200D03*
%TD*%
D13*
%TO.P,R2,1*%
%TO.N,Net-(R1-Pad2)*%
X83821900Y-89103200D03*
%TO.P,R2,2*%
%TO.N,Net-(Conn2-Tip)*%
X85646900Y-89103200D03*
%TD*%
D14*
%TO.P,Conn1,1*%
%TO.N,+3V3*%
X89573100Y-66624200D03*
%TO.P,Conn1,2*%
%TO.N,GND*%
X92113100Y-66624200D03*
%TD*%
D15*
%TO.P,Conn3,1,Tip*%
%TO.N,Net-(Conn3-Tip)*%
X104114600Y-79400400D03*
D16*
%TO.P,Conn3,2,Sleve*%
%TO.N,GND*%
X104749600Y-84988400D03*
X104749600Y-73812400D03*
%TD*%
D11*
%TO.P,R5,1*%
%TO.N,Net-(R3-Pad2)*%
X97799500Y-90627200D03*
%TO.P,R5,2*%
%TO.N,Net-(Conn3-Tip)*%
X95974500Y-90627200D03*
%TD*%
D13*
%TO.P,R3,1*%
%TO.N,Net-(D2-K)*%
X95963100Y-93167200D03*
%TO.P,R3,2*%
%TO.N,Net-(R3-Pad2)*%
X97788100Y-93167200D03*
%TD*%
D15*
%TO.P,Conn2,1,Tip*%
%TO.N,Net-(Conn2-Tip)*%
X77393800Y-79349600D03*
D16*
%TO.P,Conn2,2,Sleve*%
%TO.N,GND*%
X76758800Y-73761600D03*
X76758800Y-84937600D03*
%TD*%
D17*
%TO.P,R4,1*%
%TO.N,+3V3*%
X84582000Y-70965700D03*
%TO.P,R4,2*%
%TO.N,Net-(D3-A)*%
X84582000Y-69140700D03*
%TD*%
D18*
%TO.P,D2,1,K*%
%TO.N,Net-(D2-K)*%
X89535000Y-73914000D03*
%TO.P,D2,2,A*%
%TO.N,GND*%
X92075000Y-73914000D03*
%TD*%
%TO.P,D1,1,K*%
%TO.N,Net-(D1-K)*%
X90805000Y-87132000D03*
%TO.P,D1,2,C*%
%TO.N,GND*%
X93355000Y-84582000D03*
%TO.P,D1,3,A*%
X90805000Y-82032000D03*
%TD*%
D19*
%TO.N,GND*%
X99517200Y-86614000D03*
X82143600Y-86258400D03*
%TD*%
D20*
%TO.N,+3V3*%
X89573100Y-66624200D02*
X85231600Y-70965700D01*
X85231600Y-70965700D02*
X84582000Y-70965700D01*
X96520000Y-84328000D02*
X96520000Y-73571100D01*
X93405400Y-90601800D02*
X93405400Y-87442600D01*
X96520000Y-73571100D02*
X89573100Y-66624200D01*
X93405400Y-87442600D02*
X96520000Y-84328000D01*
%TO.N,Net-(D3-A)*%
X84582000Y-69140700D02*
X84582000Y-66864200D01*
%TO.N,Net-(D1-K)*%
X90805000Y-89890600D02*
X90805000Y-87132000D01*
X88255400Y-91871800D02*
X88823800Y-91871800D01*
X88128400Y-91998800D02*
X85761800Y-91998800D01*
X88255400Y-91871800D02*
X88128400Y-91998800D01*
X85761800Y-91998800D02*
X85558600Y-92202000D01*
X88823800Y-91871800D02*
X90805000Y-89890600D01*
%TO.N,Net-(R1-Pad2)*%
X83808600Y-89154000D02*
X83859400Y-89103200D01*
X83808600Y-92202000D02*
X83808600Y-89154000D01*
%TO.N,Net-(Conn2-Tip)*%
X78943200Y-79349600D02*
X85609400Y-86015800D01*
X77393800Y-79349600D02*
X78943200Y-79349600D01*
X85609400Y-86015800D02*
X85609400Y-89103200D01*
X85953600Y-89103200D02*
X87452200Y-90601800D01*
X85609400Y-89103200D02*
X85953600Y-89103200D01*
X87452200Y-90601800D02*
X88255400Y-90601800D01*
%TO.N,Net-(D2-K)*%
X91897200Y-76276200D02*
X91897200Y-91913180D01*
X93125820Y-93141800D02*
X93405400Y-93141800D01*
X95937700Y-93141800D02*
X95963100Y-93167200D01*
X91897200Y-91913180D02*
X93125820Y-93141800D01*
X89535000Y-73914000D02*
X91897200Y-76276200D01*
X93405400Y-93141800D02*
X95937700Y-93141800D01*
D21*
%TO.N,Net-(R3-Pad2)*%
X97799500Y-90627200D02*
X97799500Y-93155800D01*
X97799500Y-93155800D02*
X97788100Y-93167200D01*
D20*
%TO.N,Net-(Conn3-Tip)*%
X96012000Y-87503000D02*
X96012000Y-90589700D01*
X95974500Y-90627200D02*
X95504000Y-90627200D01*
X95504000Y-90627200D02*
X94259400Y-91871800D01*
X104114600Y-79400400D02*
X96012000Y-87503000D01*
X94259400Y-91871800D02*
X93405400Y-91871800D01*
X96012000Y-90589700D02*
X95974500Y-90627200D01*
%TD*%
%TA.AperFunction,Conductor*%
%TO.N,GND*%
G36*
X74189696Y-80691239D02*
G01*
X74199050Y-80693100D01*
X74199052Y-80693100D01*
X79772184Y-80693100D01*
X79839223Y-80712785D01*
X79859865Y-80729419D01*
X85245581Y-86115135D01*
X85279066Y-86176458D01*
X85281900Y-86202816D01*
X85281900Y-88353918D01*
X85262215Y-88420957D01*
X85209411Y-88466712D01*
X85198856Y-88470959D01*
X85189923Y-88474084D01*
X85083689Y-88552488D01*
X85083688Y-88552489D01*
X85005284Y-88658723D01*
X84961674Y-88783350D01*
X84958900Y-88812939D01*
X84958900Y-89393460D01*
X84961674Y-89423049D01*
X85005284Y-89547676D01*
X85083688Y-89653910D01*
X85083689Y-89653911D01*
X85189923Y-89732315D01*
X85189924Y-89732315D01*
X85189925Y-89732316D01*
X85314551Y-89775925D01*
X85314550Y-89775925D01*
X85344140Y-89778700D01*
X85344144Y-89778700D01*
X85949660Y-89778700D01*
X85969384Y-89776850D01*
X85979249Y-89775925D01*
X86041955Y-89753982D01*
X86111729Y-89750420D01*
X86170589Y-89783343D01*
X87152103Y-90764858D01*
X87185588Y-90826181D01*
X87187126Y-90834659D01*
X87189826Y-90853189D01*
X87189827Y-90853193D01*
X87228860Y-90933037D01*
X87241203Y-90958285D01*
X87323914Y-91040996D01*
X87323915Y-91040996D01*
X87323917Y-91040998D01*
X87429007Y-91092373D01*
X87463073Y-91097336D01*
X87497139Y-91102300D01*
X88830784Y-91102300D01*
X88897823Y-91121985D01*
X88943578Y-91174789D01*
X88953522Y-91243947D01*
X88924497Y-91307503D01*
X88918465Y-91313981D01*
X88897465Y-91334981D01*
X88836142Y-91368466D01*
X88809784Y-91371300D01*
X87497139Y-91371300D01*
X87429008Y-91381226D01*
X87323914Y-91432603D01*
X87241203Y-91515314D01*
X87198943Y-91601760D01*
X87151815Y-91653343D01*
X87087542Y-91671300D01*
X86227228Y-91671300D01*
X86160189Y-91651615D01*
X86153595Y-91647070D01*
X86053076Y-91572884D01*
X85928448Y-91529274D01*
X85928449Y-91529274D01*
X85898860Y-91526500D01*
X85898856Y-91526500D01*
X85293344Y-91526500D01*
X85293340Y-91526500D01*
X85263750Y-91529274D01*
X85139123Y-91572884D01*
X85032889Y-91651288D01*
X85032888Y-91651289D01*
X84954484Y-91757523D01*
X84910874Y-91882150D01*
X84908100Y-91911739D01*
X84908100Y-92492260D01*
X84910874Y-92521849D01*
X84954484Y-92646476D01*
X85032888Y-92752710D01*
X85032889Y-92752711D01*
X85139123Y-92831115D01*
X85139124Y-92831115D01*
X85139125Y-92831116D01*
X85263751Y-92874725D01*
X85263750Y-92874725D01*
X85293340Y-92877500D01*
X85293344Y-92877500D01*
X85898860Y-92877500D01*
X85928449Y-92874725D01*
X86053075Y-92831116D01*
X86159311Y-92752711D01*
X86237716Y-92646475D01*
X86281325Y-92521849D01*
X86282164Y-92512901D01*
X86284100Y-92492260D01*
X86284100Y-92450300D01*
X86303785Y-92383261D01*
X86356589Y-92337506D01*
X86408100Y-92326300D01*
X87326530Y-92326300D01*
X87380989Y-92338898D01*
X87429007Y-92362373D01*
X87463073Y-92367336D01*
X87497139Y-92372300D01*
X87497140Y-92372300D01*
X89013661Y-92372300D01*
X89036370Y-92368990D01*
X89081793Y-92362373D01*
X89186883Y-92310998D01*
X89269598Y-92228283D01*
X89320973Y-92123193D01*
X89330900Y-92055060D01*
X89330900Y-91879216D01*
X89350585Y-91812177D01*
X89367219Y-91791535D01*
X90190348Y-90968406D01*
X91024561Y-90134192D01*
X91028523Y-90130561D01*
X91059750Y-90104360D01*
X91080133Y-90069054D01*
X91083018Y-90064526D01*
X91106394Y-90031143D01*
X91106394Y-90031140D01*
X91108548Y-90026520D01*
X91115752Y-90009131D01*
X91117493Y-90004344D01*
X91117497Y-90004339D01*
X91124576Y-89964186D01*
X91125732Y-89958968D01*
X91136287Y-89919584D01*
X91132735Y-89878997D01*
X91132500Y-89873594D01*
X91132500Y-87698764D01*
X91152185Y-87631725D01*
X91181014Y-87600388D01*
X91209860Y-87578254D01*
X91233282Y-87560282D01*
X91329536Y-87434841D01*
X91331138Y-87430972D01*
X91333365Y-87428209D01*
X91333599Y-87427804D01*
X91333662Y-87427840D01*
X91374977Y-87376569D01*
X91441271Y-87354502D01*
X91508971Y-87371780D01*
X91556583Y-87422916D01*
X91569700Y-87478423D01*
X91569700Y-91896174D01*
X91569464Y-91901581D01*
X91565912Y-91942163D01*
X91576457Y-91981515D01*
X91577628Y-91986798D01*
X91584703Y-92026920D01*
X91586432Y-92031671D01*
X91593668Y-92049139D01*
X91595806Y-92053724D01*
X91619172Y-92087094D01*
X91622079Y-92091658D01*
X91642447Y-92126937D01*
X91642451Y-92126941D01*
X91673663Y-92153131D01*
X91677642Y-92156776D01*
X92005270Y-92484404D01*
X92304919Y-92784053D01*
X92338404Y-92845376D01*
X92339943Y-92889611D01*
X92339827Y-92890406D01*
X92339827Y-92890407D01*
X92329900Y-92958540D01*
X92329900Y-92958543D01*
X92329900Y-92958544D01*
X92329900Y-93325060D01*
X92339826Y-93393191D01*
X92391203Y-93498285D01*
X92473914Y-93580996D01*
X92473915Y-93580996D01*
X92473917Y-93580998D01*
X92579007Y-93632373D01*
X92613073Y-93637336D01*
X92647139Y-93642300D01*
X92647140Y-93642300D01*
X94163661Y-93642300D01*
X94186371Y-93638991D01*
X94231793Y-93632373D01*
X94336883Y-93580998D01*
X94365536Y-93552345D01*
X94412263Y-93505619D01*
X94473586Y-93472134D01*
X94499944Y-93469300D01*
X95183682Y-93469300D01*
X95250721Y-93488985D01*
X95296476Y-93541789D01*
X95300723Y-93552345D01*
X95321484Y-93611675D01*
X95321484Y-93611676D01*
X95399888Y-93717910D01*
X95399889Y-93717911D01*
X95506123Y-93796315D01*
X95506124Y-93796315D01*
X95506125Y-93796316D01*
X95630751Y-93839925D01*
X95630750Y-93839925D01*
X95660340Y-93842700D01*
X95660344Y-93842700D01*
X96265860Y-93842700D01*
X96295449Y-93839925D01*
X96295449Y-93839924D01*
X96420075Y-93796316D01*
X96526311Y-93717911D01*
X96604716Y-93611675D01*
X96648325Y-93487049D01*
X96649724Y-93472134D01*
X96651100Y-93457460D01*
X97100100Y-93457460D01*
X97102874Y-93487049D01*
X97146484Y-93611676D01*
X97224888Y-93717910D01*
X97224889Y-93717911D01*
X97331123Y-93796315D01*
X97331124Y-93796315D01*
X97331125Y-93796316D01*
X97455751Y-93839925D01*
X97455750Y-93839925D01*
X97485340Y-93842700D01*
X97485344Y-93842700D01*
X98090860Y-93842700D01*
X98120449Y-93839925D01*
X98120448Y-93839924D01*
X98245075Y-93796316D01*
X98351311Y-93717911D01*
X98429716Y-93611675D01*
X98473325Y-93487049D01*
X98474724Y-93472134D01*
X98476100Y-93457460D01*
X98476100Y-92876939D01*
X98473325Y-92847350D01*
X98429715Y-92722723D01*
X98351311Y-92616489D01*
X98351310Y-92616488D01*
X98245076Y-92538084D01*
X98245077Y-92538084D01*
X98208044Y-92525126D01*
X98151269Y-92484404D01*
X98125522Y-92419451D01*
X98125000Y-92408085D01*
X98125000Y-91390303D01*
X98144685Y-91323264D01*
X98197489Y-91277509D01*
X98208022Y-91273270D01*
X98256475Y-91256316D01*
X98362711Y-91177911D01*
X98441116Y-91071675D01*
X98484725Y-90947049D01*
X98484725Y-90947048D01*
X98487500Y-90917460D01*
X98487500Y-90336939D01*
X98484725Y-90307350D01*
X98441115Y-90182723D01*
X98362711Y-90076489D01*
X98362710Y-90076488D01*
X98256476Y-89998084D01*
X98131848Y-89954474D01*
X98131849Y-89954474D01*
X98102260Y-89951700D01*
X98102256Y-89951700D01*
X97496744Y-89951700D01*
X97496740Y-89951700D01*
X97467150Y-89954474D01*
X97342523Y-89998084D01*
X97236289Y-90076488D01*
X97236288Y-90076489D01*
X97157884Y-90182723D01*
X97114274Y-90307350D01*
X97111500Y-90336939D01*
X97111500Y-90917460D01*
X97114274Y-90947049D01*
X97157884Y-91071676D01*
X97236288Y-91177910D01*
X97236289Y-91177911D01*
X97341492Y-91255554D01*
X97342525Y-91256316D01*
X97390957Y-91273263D01*
X97447730Y-91313982D01*
X97473478Y-91378935D01*
X97474000Y-91390303D01*
X97474000Y-92400107D01*
X97454315Y-92467146D01*
X97401511Y-92512901D01*
X97390955Y-92517148D01*
X97331124Y-92538084D01*
X97331123Y-92538084D01*
X97224889Y-92616488D01*
X97224888Y-92616489D01*
X97146484Y-92722723D01*
X97102874Y-92847350D01*
X97100100Y-92876939D01*
X97100100Y-93457460D01*
X96651100Y-93457460D01*
X96651100Y-92876939D01*
X96648325Y-92847350D01*
X96604715Y-92722723D01*
X96526311Y-92616489D01*
X96526310Y-92616488D01*
X96420076Y-92538084D01*
X96295448Y-92494474D01*
X96295449Y-92494474D01*
X96265860Y-92491700D01*
X96265856Y-92491700D01*
X95660344Y-92491700D01*
X95660340Y-92491700D01*
X95630750Y-92494474D01*
X95506123Y-92538084D01*
X95399889Y-92616488D01*
X95399888Y-92616489D01*
X95321484Y-92722723D01*
X95321484Y-92722724D01*
X95318499Y-92731255D01*
X95277777Y-92788031D01*
X95212824Y-92813778D01*
X95201458Y-92814300D01*
X94499944Y-92814300D01*
X94432905Y-92794615D01*
X94412263Y-92777981D01*
X94336885Y-92702603D01*
X94231791Y-92651226D01*
X94163661Y-92641300D01*
X94163660Y-92641300D01*
X93139836Y-92641300D01*
X93072797Y-92621615D01*
X93052155Y-92604981D01*
X93031155Y-92583981D01*
X92997670Y-92522658D01*
X93002654Y-92452966D01*
X93044526Y-92397033D01*
X93109990Y-92372616D01*
X93118836Y-92372300D01*
X94163661Y-92372300D01*
X94186371Y-92368990D01*
X94231793Y-92362373D01*
X94336883Y-92310998D01*
X94419598Y-92228283D01*
X94457325Y-92151109D01*
X94473731Y-92125869D01*
X94499366Y-92095317D01*
X94502986Y-92091366D01*
X95338800Y-91255552D01*
X95400121Y-91222069D01*
X95469813Y-91227053D01*
X95500110Y-91243463D01*
X95517525Y-91256316D01*
X95642151Y-91299925D01*
X95642150Y-91299925D01*
X95671740Y-91302700D01*
X95671744Y-91302700D01*
X96277260Y-91302700D01*
X96306849Y-91299925D01*
X96338316Y-91288914D01*
X96431475Y-91256316D01*
X96537711Y-91177911D01*
X96616116Y-91071675D01*
X96659725Y-90947049D01*
X96662500Y-90917460D01*
X96662500Y-90336939D01*
X96659725Y-90307350D01*
X96616115Y-90182723D01*
X96537711Y-90076489D01*
X96537710Y-90076488D01*
X96431476Y-89998084D01*
X96422544Y-89994959D01*
X96365769Y-89954237D01*
X96340022Y-89889284D01*
X96339500Y-89877918D01*
X96339500Y-87690016D01*
X96359185Y-87622977D01*
X96375819Y-87602335D01*
X103197936Y-80780219D01*
X103259259Y-80746734D01*
X103285617Y-80743900D01*
X107309350Y-80743900D01*
X107309351Y-80743899D01*
X107329018Y-80739987D01*
X107367828Y-80732268D01*
X107367828Y-80732267D01*
X107367831Y-80732267D01*
X107375609Y-80727069D01*
X107442286Y-80706192D01*
X107509666Y-80724676D01*
X107556357Y-80776655D01*
X107568500Y-80830172D01*
X107568500Y-90820243D01*
X107548815Y-90887282D01*
X107496011Y-90933037D01*
X107426853Y-90942981D01*
X107363297Y-90913956D01*
X107325523Y-90855178D01*
X107325135Y-90853827D01*
X107276469Y-90680862D01*
X107276465Y-90680848D01*
X107131564Y-90311646D01*
X107131559Y-90311634D01*
X107013635Y-90081615D01*
X106950609Y-89958677D01*
X106735414Y-89625491D01*
X106488114Y-89315386D01*
X106488111Y-89315383D01*
X106488104Y-89315374D01*
X106211176Y-89031455D01*
X106211173Y-89031452D01*
X106211172Y-89031451D01*
X106211167Y-89031446D01*
X105907324Y-88776492D01*
X105834613Y-88726918D01*
X105579605Y-88553057D01*
X105463494Y-88489826D01*
X105231270Y-88363364D01*
X105231262Y-88363360D01*
X105231259Y-88363359D01*
X104865777Y-88209296D01*
X104865761Y-88209290D01*
X104486764Y-88092385D01*
X104486751Y-88092382D01*
X104098000Y-88013794D01*
X104097979Y-88013791D01*
X103703320Y-87974300D01*
X103703319Y-87974300D01*
X103405899Y-87974300D01*
X103405897Y-87974300D01*
X103108855Y-87989124D01*
X102716647Y-88048241D01*
X102332272Y-88146114D01*
X101959549Y-88281774D01*
X101602191Y-88453869D01*
X101263753Y-88660684D01*
X101263742Y-88660692D01*
X100947575Y-88900180D01*
X100947572Y-88900182D01*
X100656813Y-89169968D01*
X100394365Y-89467359D01*
X100162839Y-89789393D01*
X100162826Y-89789413D01*
X99964516Y-90132896D01*
X99801382Y-90494437D01*
X99675059Y-90870419D01*
X99586799Y-91257111D01*
X99537478Y-91650681D01*
X99527590Y-92047173D01*
X99527590Y-92047187D01*
X99557230Y-92442711D01*
X99557231Y-92442724D01*
X99626108Y-92833339D01*
X99733530Y-93215137D01*
X99733534Y-93215151D01*
X99878435Y-93584353D01*
X99878440Y-93584365D01*
X100059386Y-93937314D01*
X100059391Y-93937323D01*
X100274586Y-94270509D01*
X100521886Y-94580614D01*
X100521895Y-94580625D01*
X100798823Y-94864544D01*
X100798833Y-94864554D01*
X101102676Y-95119508D01*
X101430394Y-95342942D01*
X101778730Y-95532636D01*
X102144223Y-95686704D01*
X102144232Y-95686706D01*
X102144238Y-95686709D01*
X102411048Y-95769009D01*
X102469307Y-95807579D01*
X102497464Y-95871524D01*
X102486581Y-95940541D01*
X102440113Y-95992717D01*
X102374498Y-96011500D01*
X79239801Y-96011500D01*
X79172762Y-95991815D01*
X79127007Y-95939011D01*
X79117063Y-95869853D01*
X79146088Y-95806297D01*
X79204866Y-95768523D01*
X79209203Y-95767334D01*
X79277726Y-95749886D01*
X79650445Y-95614228D01*
X80007803Y-95442133D01*
X80346251Y-95235312D01*
X80662424Y-94995820D01*
X80953181Y-94726037D01*
X81215631Y-94428645D01*
X81447166Y-94106600D01*
X81645485Y-93763101D01*
X81808617Y-93401563D01*
X81934941Y-93025578D01*
X82023201Y-92638885D01*
X82041576Y-92492260D01*
X83083100Y-92492260D01*
X83085874Y-92521849D01*
X83129484Y-92646476D01*
X83207888Y-92752710D01*
X83207889Y-92752711D01*
X83314123Y-92831115D01*
X83314124Y-92831115D01*
X83314125Y-92831116D01*
X83438751Y-92874725D01*
X83438750Y-92874725D01*
X83468340Y-92877500D01*
X83468344Y-92877500D01*
X84073860Y-92877500D01*
X84103449Y-92874725D01*
X84103448Y-92874725D01*
X84228075Y-92831116D01*
X84334311Y-92752711D01*
X84412716Y-92646475D01*
X84456325Y-92521849D01*
X84457164Y-92512901D01*
X84459100Y-92492260D01*
X84459100Y-91911739D01*
X84456325Y-91882150D01*
X84412715Y-91757523D01*
X84334311Y-91651289D01*
X84334310Y-91651288D01*
X84228076Y-91572884D01*
X84219144Y-91569759D01*
X84162369Y-91529037D01*
X84136622Y-91464084D01*
X84136100Y-91452718D01*
X84136100Y-90676493D01*
X84136100Y-89870253D01*
X84155784Y-89803218D01*
X84208587Y-89757463D01*
X84219121Y-89753225D01*
X84278875Y-89732316D01*
X84385111Y-89653911D01*
X84463516Y-89547675D01*
X84507125Y-89423049D01*
X84509900Y-89393456D01*
X84509900Y-88812944D01*
X84507125Y-88783351D01*
X84463516Y-88658725D01*
X84385111Y-88552489D01*
X84385110Y-88552488D01*
X84278876Y-88474084D01*
X84154248Y-88430474D01*
X84154249Y-88430474D01*
X84124660Y-88427700D01*
X84124656Y-88427700D01*
X83519144Y-88427700D01*
X83519140Y-88427700D01*
X83489550Y-88430474D01*
X83364923Y-88474084D01*
X83258689Y-88552488D01*
X83258688Y-88552489D01*
X83180284Y-88658723D01*
X83136674Y-88783350D01*
X83133900Y-88812939D01*
X83133900Y-89393460D01*
X83136674Y-89423049D01*
X83180284Y-89547676D01*
X83258688Y-89653910D01*
X83258689Y-89653911D01*
X83364922Y-89732314D01*
X83364927Y-89732317D01*
X83398053Y-89743908D01*
X83454830Y-89784629D01*
X83480578Y-89849582D01*
X83481100Y-89860950D01*
X83481100Y-91426473D01*
X83461415Y-91493512D01*
X83408611Y-91539267D01*
X83398056Y-91543514D01*
X83314123Y-91572884D01*
X83207889Y-91651288D01*
X83207888Y-91651289D01*
X83129484Y-91757523D01*
X83085874Y-91882150D01*
X83083100Y-91911739D01*
X83083100Y-92492260D01*
X82041576Y-92492260D01*
X82072521Y-92245325D01*
X82077462Y-92047173D01*
X82082409Y-91848826D01*
X82082409Y-91848810D01*
X82067761Y-91653343D01*
X82052769Y-91453280D01*
X81983893Y-91062668D01*
X81977795Y-91040996D01*
X81876469Y-90680862D01*
X81876465Y-90680848D01*
X81731564Y-90311646D01*
X81731559Y-90311634D01*
X81613635Y-90081615D01*
X81550609Y-89958677D01*
X81335414Y-89625491D01*
X81088114Y-89315386D01*
X81088111Y-89315383D01*
X81088104Y-89315374D01*
X80811176Y-89031455D01*
X80811173Y-89031452D01*
X80811172Y-89031451D01*
X80811167Y-89031446D01*
X80507324Y-88776492D01*
X80434613Y-88726918D01*
X80179605Y-88553057D01*
X80063493Y-88489826D01*
X79831270Y-88363364D01*
X79831262Y-88363360D01*
X79831259Y-88363359D01*
X79465777Y-88209296D01*
X79465761Y-88209290D01*
X79086764Y-88092385D01*
X79086751Y-88092382D01*
X78698000Y-88013794D01*
X78697979Y-88013791D01*
X78303320Y-87974300D01*
X78303319Y-87974300D01*
X78005899Y-87974300D01*
X78005897Y-87974300D01*
X77708855Y-87989124D01*
X77316647Y-88048241D01*
X76932272Y-88146114D01*
X76559549Y-88281774D01*
X76202191Y-88453869D01*
X75863753Y-88660684D01*
X75863742Y-88660692D01*
X75547575Y-88900180D01*
X75547572Y-88900182D01*
X75256813Y-89169968D01*
X74994365Y-89467359D01*
X74762839Y-89789393D01*
X74762826Y-89789413D01*
X74564516Y-90132896D01*
X74401382Y-90494437D01*
X74283043Y-90846658D01*
X74243032Y-90903938D01*
X74178406Y-90930493D01*
X74109682Y-90917892D01*
X74058679Y-90870137D01*
X74041500Y-90807166D01*
X74041500Y-80812855D01*
X74061185Y-80745816D01*
X74113989Y-80700061D01*
X74183147Y-80690117D01*
X74189696Y-80691239D01*
G37*
%TD.AperFunction*%
%TA.AperFunction,Conductor*%
G36*
X102270825Y-62504185D02*
G01*
X102316580Y-62556989D01*
X102326524Y-62626147D01*
X102297499Y-62689703D01*
X102246196Y-62725022D01*
X102041969Y-62799354D01*
X101684611Y-62971449D01*
X101346173Y-63178264D01*
X101346162Y-63178272D01*
X101029995Y-63417760D01*
X101029992Y-63417762D01*
X100739233Y-63687548D01*
X100476785Y-63984939D01*
X100245259Y-64306973D01*
X100245246Y-64306993D01*
X100046936Y-64650476D01*
X99883802Y-65012017D01*
X99757479Y-65387999D01*
X99669219Y-65774691D01*
X99619898Y-66168261D01*
X99610010Y-66564753D01*
X99610010Y-66564767D01*
X99639650Y-66960291D01*
X99639651Y-66960304D01*
X99708528Y-67350919D01*
X99815950Y-67732717D01*
X99815954Y-67732731D01*
X99960855Y-68101933D01*
X99960860Y-68101945D01*
X100141806Y-68454894D01*
X100141817Y-68454913D01*
X100170346Y-68499084D01*
X100357006Y-68788089D01*
X100483111Y-68946220D01*
X100604315Y-69098205D01*
X100881243Y-69382124D01*
X100881253Y-69382134D01*
X101185096Y-69637088D01*
X101512814Y-69860522D01*
X101861150Y-70050216D01*
X102226643Y-70204284D01*
X102226652Y-70204286D01*
X102226658Y-70204289D01*
X102605655Y-70321194D01*
X102605668Y-70321197D01*
X102994419Y-70399785D01*
X102994434Y-70399788D01*
X103332720Y-70433638D01*
X103389100Y-70439280D01*
X103389101Y-70439280D01*
X103686523Y-70439280D01*
X103884550Y-70429396D01*
X103983565Y-70424455D01*
X104375773Y-70365339D01*
X104760146Y-70267466D01*
X105132865Y-70131808D01*
X105490223Y-69959713D01*
X105828671Y-69752892D01*
X106144844Y-69513400D01*
X106435601Y-69243617D01*
X106698051Y-68946225D01*
X106929586Y-68624180D01*
X107127905Y-68280681D01*
X107291037Y-67919143D01*
X107326957Y-67812231D01*
X107366967Y-67754953D01*
X107431594Y-67728397D01*
X107500318Y-67740998D01*
X107551320Y-67788753D01*
X107568500Y-67851724D01*
X107568500Y-77970627D01*
X107548815Y-78037666D01*
X107496011Y-78083421D01*
X107426853Y-78093365D01*
X107375612Y-78073731D01*
X107367832Y-78068533D01*
X107367829Y-78068531D01*
X107309352Y-78056900D01*
X107309348Y-78056900D01*
X100919852Y-78056900D01*
X100919847Y-78056900D01*
X100861370Y-78068531D01*
X100861369Y-78068532D01*
X100795047Y-78112847D01*
X100750732Y-78179169D01*
X100750731Y-78179170D01*
X100739100Y-78237647D01*
X100739100Y-80563152D01*
X100750731Y-80621629D01*
X100750732Y-80621630D01*
X100795047Y-80687952D01*
X100861369Y-80732267D01*
X100861370Y-80732268D01*
X100919847Y-80743899D01*
X100919850Y-80743900D01*
X100919852Y-80743900D01*
X102008583Y-80743900D01*
X102075622Y-80763585D01*
X102121377Y-80816389D01*
X102131321Y-80885547D01*
X102102296Y-80949103D01*
X102096264Y-80955581D01*
X95792451Y-87259393D01*
X95788462Y-87263049D01*
X95757250Y-87289239D01*
X95757248Y-87289241D01*
X95736876Y-87324526D01*
X95733971Y-87329087D01*
X95710604Y-87362459D01*
X95708473Y-87367028D01*
X95701225Y-87384528D01*
X95699502Y-87389264D01*
X95692427Y-87429383D01*
X95691256Y-87434662D01*
X95680713Y-87474015D01*
X95680712Y-87474015D01*
X95684263Y-87514595D01*
X95684499Y-87520001D01*
X95684499Y-89851673D01*
X95664814Y-89918712D01*
X95612010Y-89964467D01*
X95601456Y-89968714D01*
X95517522Y-89998085D01*
X95411289Y-90076488D01*
X95411288Y-90076489D01*
X95332884Y-90182723D01*
X95289274Y-90307350D01*
X95286229Y-90339830D01*
X95285203Y-90339733D01*
X95263731Y-90401870D01*
X95250370Y-90417673D01*
X94667514Y-91000529D01*
X94606191Y-91034014D01*
X94536499Y-91029030D01*
X94480566Y-90987158D01*
X94456149Y-90921694D01*
X94468435Y-90858384D01*
X94470973Y-90853193D01*
X94480900Y-90785060D01*
X94480900Y-90418540D01*
X94470973Y-90350407D01*
X94419598Y-90245317D01*
X94419596Y-90245315D01*
X94419596Y-90245314D01*
X94336885Y-90162603D01*
X94231791Y-90111226D01*
X94163661Y-90101300D01*
X94163660Y-90101300D01*
X93856900Y-90101300D01*
X93789861Y-90081615D01*
X93744106Y-90028811D01*
X93732900Y-89977300D01*
X93732900Y-87629616D01*
X93752585Y-87562577D01*
X93769219Y-87541935D01*
X95196019Y-86115135D01*
X96739561Y-84571592D01*
X96743522Y-84567962D01*
X96774750Y-84541760D01*
X96795119Y-84506477D01*
X96798027Y-84501914D01*
X96821395Y-84468543D01*
X96823545Y-84463931D01*
X96830754Y-84446528D01*
X96832496Y-84441741D01*
X96832496Y-84441740D01*
X96832497Y-84441739D01*
X96839573Y-84401602D01*
X96840735Y-84396360D01*
X96851287Y-84356984D01*
X96847735Y-84316394D01*
X96847500Y-84310991D01*
X96847500Y-73588096D01*
X96847736Y-73582689D01*
X96851286Y-73542116D01*
X96851285Y-73542114D01*
X96840741Y-73502766D01*
X96839573Y-73497496D01*
X96832497Y-73457361D01*
X96832496Y-73457360D01*
X96832496Y-73457357D01*
X96830765Y-73452601D01*
X96823546Y-73435172D01*
X96821393Y-73430555D01*
X96798032Y-73397193D01*
X96795123Y-73392628D01*
X96774750Y-73357340D01*
X96774746Y-73357336D01*
X96743535Y-73331146D01*
X96739546Y-73327491D01*
X90505164Y-67093109D01*
X90471679Y-67031786D01*
X90474183Y-66969435D01*
X90521673Y-66812883D01*
X90540257Y-66624200D01*
X90521673Y-66435517D01*
X90466637Y-66254085D01*
X90438677Y-66201775D01*
X90377265Y-66086881D01*
X90377261Y-66086874D01*
X90256983Y-65940316D01*
X90110425Y-65820038D01*
X90110418Y-65820034D01*
X89943222Y-65730666D01*
X89943219Y-65730665D01*
X89943218Y-65730664D01*
X89943215Y-65730663D01*
X89761783Y-65675627D01*
X89761781Y-65675626D01*
X89761783Y-65675626D01*
X89590016Y-65658709D01*
X89573100Y-65657043D01*
X89573099Y-65657043D01*
X89384418Y-65675626D01*
X89277294Y-65708121D01*
X89202985Y-65730663D01*
X89202982Y-65730664D01*
X89202980Y-65730665D01*
X89202977Y-65730666D01*
X89035781Y-65820034D01*
X89035774Y-65820038D01*
X88889216Y-65940316D01*
X88768938Y-66086874D01*
X88768934Y-66086881D01*
X88679566Y-66254077D01*
X88679565Y-66254080D01*
X88679564Y-66254082D01*
X88679563Y-66254085D01*
X88657021Y-66328394D01*
X88624526Y-66435518D01*
X88605943Y-66624199D01*
X88624526Y-66812881D01*
X88672015Y-66969432D01*
X88672638Y-67039299D01*
X88641035Y-67093108D01*
X85319077Y-70415067D01*
X85257754Y-70448552D01*
X85188062Y-70443568D01*
X85140431Y-70407910D01*
X85139282Y-70409060D01*
X85132710Y-70402488D01*
X85026476Y-70324084D01*
X84901848Y-70280474D01*
X84901849Y-70280474D01*
X84872260Y-70277700D01*
X84872256Y-70277700D01*
X84291744Y-70277700D01*
X84291740Y-70277700D01*
X84262150Y-70280474D01*
X84137523Y-70324084D01*
X84031289Y-70402488D01*
X84031288Y-70402489D01*
X83952884Y-70508723D01*
X83909274Y-70633350D01*
X83906500Y-70662939D01*
X83906500Y-71268460D01*
X83909274Y-71298049D01*
X83952884Y-71422676D01*
X84031288Y-71528910D01*
X84031289Y-71528911D01*
X84137523Y-71607315D01*
X84137524Y-71607315D01*
X84137525Y-71607316D01*
X84262151Y-71650925D01*
X84262150Y-71650925D01*
X84291740Y-71653700D01*
X84291744Y-71653700D01*
X84872260Y-71653700D01*
X84901849Y-71650925D01*
X84901848Y-71650924D01*
X85026475Y-71607316D01*
X85132711Y-71528911D01*
X85211116Y-71422675D01*
X85232184Y-71362465D01*
X85272904Y-71305693D01*
X85327693Y-71281308D01*
X85345339Y-71278197D01*
X85345341Y-71278195D01*
X85350131Y-71276452D01*
X85367519Y-71269249D01*
X85372137Y-71267095D01*
X85372143Y-71267094D01*
X85405537Y-71243709D01*
X85410051Y-71240834D01*
X85445360Y-71220450D01*
X85471566Y-71189217D01*
X85475197Y-71185255D01*
X89104192Y-67556261D01*
X89165513Y-67522778D01*
X89227864Y-67525283D01*
X89384414Y-67572772D01*
X89384416Y-67572773D01*
X89402999Y-67574603D01*
X89573100Y-67591357D01*
X89761783Y-67572773D01*
X89918335Y-67525283D01*
X89988200Y-67524661D01*
X90042009Y-67556264D01*
X96156181Y-73670435D01*
X96189666Y-73731758D01*
X96192500Y-73758116D01*
X96192500Y-84140982D01*
X96172815Y-84208021D01*
X96156181Y-84228663D01*
X93185851Y-87198993D01*
X93181862Y-87202649D01*
X93150650Y-87228839D01*
X93150648Y-87228841D01*
X93130276Y-87264126D01*
X93127371Y-87268687D01*
X93104004Y-87302059D01*
X93101873Y-87306628D01*
X93094625Y-87324128D01*
X93092902Y-87328864D01*
X93085827Y-87368983D01*
X93084656Y-87374262D01*
X93074112Y-87413616D01*
X93077664Y-87454198D01*
X93077900Y-87459605D01*
X93077900Y-89977300D01*
X93058215Y-90044339D01*
X93005411Y-90090094D01*
X92953900Y-90101300D01*
X92647139Y-90101300D01*
X92579008Y-90111226D01*
X92473914Y-90162603D01*
X92436381Y-90200137D01*
X92375058Y-90233622D01*
X92305366Y-90228638D01*
X92249433Y-90186766D01*
X92225016Y-90121302D01*
X92224700Y-90112456D01*
X92224700Y-76293195D01*
X92224936Y-76287788D01*
X92228486Y-76247213D01*
X92217941Y-76207862D01*
X92216774Y-76202602D01*
X92209697Y-76162461D01*
X92209695Y-76162457D01*
X92207956Y-76157680D01*
X92200746Y-76140272D01*
X92198593Y-76135655D01*
X92175232Y-76102293D01*
X92172323Y-76097728D01*
X92151950Y-76062440D01*
X92151946Y-76062436D01*
X92120735Y-76036246D01*
X92116746Y-76032591D01*
X90167340Y-74083186D01*
X90133855Y-74021863D01*
X90132082Y-73979319D01*
X90140682Y-73914000D01*
X90140682Y-73913998D01*
X90126923Y-73809492D01*
X90120044Y-73757238D01*
X90059536Y-73611159D01*
X89963282Y-73485718D01*
X89837841Y-73389464D01*
X89691762Y-73328956D01*
X89691760Y-73328955D01*
X89535001Y-73308318D01*
X89534999Y-73308318D01*
X89378239Y-73328955D01*
X89378237Y-73328956D01*
X89232160Y-73389463D01*
X89106718Y-73485718D01*
X89010463Y-73611160D01*
X88949956Y-73757237D01*
X88949955Y-73757239D01*
X88929318Y-73913998D01*
X88929318Y-73914001D01*
X88949955Y-74070760D01*
X88949956Y-74070762D01*
X89010464Y-74216841D01*
X89106718Y-74342282D01*
X89232159Y-74438536D01*
X89378238Y-74499044D01*
X89409047Y-74503100D01*
X89534999Y-74519682D01*
X89535000Y-74519682D01*
X89600319Y-74511082D01*
X89669354Y-74521847D01*
X89704186Y-74546340D01*
X91533381Y-76375535D01*
X91566866Y-76436858D01*
X91569700Y-76463216D01*
X91569700Y-86785576D01*
X91550015Y-86852615D01*
X91497211Y-86898370D01*
X91428053Y-86908314D01*
X91364497Y-86879289D01*
X91331139Y-86833029D01*
X91329536Y-86829160D01*
X91329536Y-86829159D01*
X91233282Y-86703718D01*
X91107841Y-86607464D01*
X90961762Y-86546956D01*
X90961760Y-86546955D01*
X90805001Y-86526318D01*
X90804999Y-86526318D01*
X90648239Y-86546955D01*
X90648237Y-86546956D01*
X90502160Y-86607463D01*
X90376718Y-86703718D01*
X90280463Y-86829160D01*
X90219956Y-86975237D01*
X90219955Y-86975239D01*
X90199318Y-87131998D01*
X90199318Y-87132001D01*
X90219955Y-87288760D01*
X90219956Y-87288762D01*
X90254288Y-87371648D01*
X90280464Y-87434841D01*
X90362640Y-87541935D01*
X90376719Y-87560283D01*
X90428986Y-87600388D01*
X90470189Y-87656816D01*
X90477500Y-87698764D01*
X90477500Y-89703583D01*
X90457815Y-89770622D01*
X90441181Y-89791264D01*
X89542581Y-90689864D01*
X89481258Y-90723349D01*
X89411566Y-90718365D01*
X89355633Y-90676493D01*
X89331216Y-90611029D01*
X89330900Y-90602183D01*
X89330900Y-90418539D01*
X89320973Y-90350408D01*
X89315802Y-90339830D01*
X89269598Y-90245317D01*
X89269596Y-90245315D01*
X89269596Y-90245314D01*
X89186885Y-90162603D01*
X89081791Y-90111226D01*
X89013661Y-90101300D01*
X89013660Y-90101300D01*
X87497140Y-90101300D01*
X87495488Y-90101540D01*
X87486874Y-90102795D01*
X87417698Y-90092976D01*
X87381325Y-90067770D01*
X86371219Y-89057664D01*
X86337734Y-88996341D01*
X86334900Y-88969983D01*
X86334900Y-88812939D01*
X86332125Y-88783350D01*
X86288515Y-88658723D01*
X86210111Y-88552489D01*
X86210110Y-88552488D01*
X86103876Y-88474084D01*
X86103877Y-88474084D01*
X86019944Y-88444714D01*
X85963168Y-88403991D01*
X85937422Y-88339038D01*
X85936900Y-88327673D01*
X85936900Y-86032795D01*
X85937136Y-86027388D01*
X85940686Y-85986813D01*
X85930141Y-85947462D01*
X85928974Y-85942202D01*
X85921897Y-85902061D01*
X85921895Y-85902057D01*
X85920156Y-85897280D01*
X85912946Y-85879872D01*
X85910793Y-85875255D01*
X85887432Y-85841893D01*
X85884523Y-85837328D01*
X85864150Y-85802040D01*
X85864146Y-85802036D01*
X85832935Y-85775846D01*
X85828946Y-85772191D01*
X80777522Y-80720767D01*
X80744037Y-80659444D01*
X80749021Y-80589752D01*
X80753262Y-80581464D01*
X80757668Y-80570829D01*
X80769299Y-80512352D01*
X80769300Y-80512350D01*
X80769300Y-78186849D01*
X80769299Y-78186847D01*
X80757668Y-78128370D01*
X80757667Y-78128369D01*
X80713352Y-78062047D01*
X80647030Y-78017732D01*
X80647029Y-78017731D01*
X80588552Y-78006100D01*
X80588548Y-78006100D01*
X74199052Y-78006100D01*
X74199051Y-78006100D01*
X74189689Y-78007962D01*
X74120097Y-78001733D01*
X74064921Y-77958869D01*
X74041678Y-77892979D01*
X74041500Y-77886344D01*
X74041500Y-67853996D01*
X74061185Y-67786957D01*
X74113989Y-67741202D01*
X74183147Y-67731258D01*
X74246703Y-67760283D01*
X74280928Y-67808694D01*
X74396015Y-68101933D01*
X74396020Y-68101945D01*
X74576966Y-68454894D01*
X74576977Y-68454913D01*
X74605506Y-68499084D01*
X74792166Y-68788089D01*
X74918271Y-68946220D01*
X75039475Y-69098205D01*
X75316403Y-69382124D01*
X75316413Y-69382134D01*
X75620256Y-69637088D01*
X75947974Y-69860522D01*
X76296310Y-70050216D01*
X76661803Y-70204284D01*
X76661812Y-70204286D01*
X76661818Y-70204289D01*
X77040815Y-70321194D01*
X77040828Y-70321197D01*
X77429579Y-70399785D01*
X77429594Y-70399788D01*
X77767879Y-70433638D01*
X77824260Y-70439280D01*
X77824261Y-70439280D01*
X78121683Y-70439280D01*
X78319710Y-70429396D01*
X78418725Y-70424455D01*
X78810933Y-70365339D01*
X79195306Y-70267466D01*
X79568025Y-70131808D01*
X79925383Y-69959713D01*
X80263831Y-69752892D01*
X80580004Y-69513400D01*
X80655381Y-69443460D01*
X83906500Y-69443460D01*
X83909274Y-69473049D01*
X83952884Y-69597676D01*
X84031288Y-69703910D01*
X84031289Y-69703911D01*
X84137523Y-69782315D01*
X84137524Y-69782315D01*
X84137525Y-69782316D01*
X84262151Y-69825925D01*
X84262150Y-69825925D01*
X84291740Y-69828700D01*
X84291744Y-69828700D01*
X84872260Y-69828700D01*
X84901849Y-69825925D01*
X84901848Y-69825924D01*
X85026475Y-69782316D01*
X85132711Y-69703911D01*
X85211116Y-69597675D01*
X85254725Y-69473049D01*
X85257500Y-69443456D01*
X85257500Y-68837944D01*
X85254725Y-68808351D01*
X85211116Y-68683725D01*
X85132711Y-68577489D01*
X85026475Y-68499084D01*
X85026474Y-68499084D01*
X84992545Y-68487211D01*
X84935769Y-68446489D01*
X84910022Y-68381536D01*
X84909500Y-68370170D01*
X84909500Y-67672230D01*
X84929185Y-67605191D01*
X84981989Y-67559436D01*
X84992542Y-67555189D01*
X85026475Y-67543316D01*
X85132711Y-67464911D01*
X85211116Y-67358675D01*
X85254725Y-67234049D01*
X85257500Y-67204456D01*
X85257500Y-66523944D01*
X85254725Y-66494351D01*
X85211116Y-66369725D01*
X85208666Y-66366406D01*
X85132711Y-66263489D01*
X85132710Y-66263488D01*
X85026476Y-66185084D01*
X84901848Y-66141474D01*
X84901849Y-66141474D01*
X84872260Y-66138700D01*
X84872256Y-66138700D01*
X84291744Y-66138700D01*
X84291740Y-66138700D01*
X84262150Y-66141474D01*
X84137523Y-66185084D01*
X84031289Y-66263488D01*
X84031288Y-66263489D01*
X83952884Y-66369723D01*
X83909274Y-66494350D01*
X83906500Y-66523939D01*
X83906500Y-67204460D01*
X83909274Y-67234049D01*
X83952884Y-67358676D01*
X84031288Y-67464910D01*
X84031289Y-67464911D01*
X84137313Y-67543160D01*
X84137525Y-67543316D01*
X84171454Y-67555188D01*
X84228230Y-67595909D01*
X84253978Y-67660862D01*
X84254500Y-67672230D01*
X84254500Y-68370170D01*
X84234815Y-68437209D01*
X84182011Y-68482964D01*
X84171455Y-68487211D01*
X84137524Y-68499084D01*
X84137523Y-68499084D01*
X84031289Y-68577488D01*
X84031288Y-68577489D01*
X83952884Y-68683723D01*
X83909274Y-68808350D01*
X83906500Y-68837939D01*
X83906500Y-69443460D01*
X80655381Y-69443460D01*
X80870761Y-69243617D01*
X81133211Y-68946225D01*
X81364746Y-68624180D01*
X81563065Y-68280681D01*
X81726197Y-67919143D01*
X81852521Y-67543158D01*
X81940781Y-67156465D01*
X81990101Y-66762905D01*
X81998265Y-66435517D01*
X81999989Y-66366406D01*
X81999989Y-66366390D01*
X81991573Y-66254080D01*
X81970349Y-65970860D01*
X81901473Y-65580248D01*
X81794047Y-65198434D01*
X81649139Y-64829214D01*
X81468189Y-64476257D01*
X81252994Y-64143071D01*
X81005694Y-63832966D01*
X81005691Y-63832963D01*
X81005684Y-63832954D01*
X80728756Y-63549035D01*
X80728753Y-63549032D01*
X80728752Y-63549031D01*
X80728747Y-63549026D01*
X80424904Y-63294072D01*
X80352193Y-63244498D01*
X80097185Y-63070637D01*
X79981074Y-63007406D01*
X79748850Y-62880944D01*
X79748842Y-62880940D01*
X79748839Y-62880939D01*
X79383357Y-62726876D01*
X79380434Y-62725812D01*
X79380729Y-62725001D01*
X79325476Y-62688425D01*
X79297315Y-62624482D01*
X79308195Y-62555465D01*
X79354661Y-62503286D01*
X79420281Y-62484500D01*
X102203786Y-62484500D01*
X102270825Y-62504185D01*
G37*
%TD.AperFunction*%
%TD*%
M02*
