%TF.GenerationSoftware,KiCad,Pcbnew,7.0.7*%
%TF.CreationDate,2023-11-07T19:32:12-06:00*%
%TF.ProjectId,TIAs,54494173-2e6b-4696-9361-645f70636258,rev?*%
%TF.SameCoordinates,Original*%
%TF.FileFunction,Legend,Top*%
%TF.FilePolarity,Positive*%
%FSLAX46Y46*%
G04 Gerber Fmt 4.6, Leading zero omitted, Abs format (unit mm)*
G04 Created by KiCad (PCBNEW 7.0.7) date 2023-11-07 19:32:12*
%MOMM*%
%LPD*%
G01*
G04 APERTURE LIST*
%ADD10C,0.150000*%
%ADD11C,0.100000*%
%ADD12C,0.120000*%
G04 APERTURE END LIST*
D10*
X83477207Y-76606340D02*
X83477207Y-75590340D01*
X83477207Y-75590340D02*
X83786845Y-75590340D01*
X83786845Y-75590340D02*
X83864255Y-75638721D01*
X83864255Y-75638721D02*
X83902960Y-75687102D01*
X83902960Y-75687102D02*
X83941664Y-75783864D01*
X83941664Y-75783864D02*
X83941664Y-75929007D01*
X83941664Y-75929007D02*
X83902960Y-76025769D01*
X83902960Y-76025769D02*
X83864255Y-76074150D01*
X83864255Y-76074150D02*
X83786845Y-76122531D01*
X83786845Y-76122531D02*
X83477207Y-76122531D01*
X84290007Y-76606340D02*
X84290007Y-75590340D01*
X84638350Y-76606340D02*
X84638350Y-76074150D01*
X84638350Y-76074150D02*
X84599645Y-75977388D01*
X84599645Y-75977388D02*
X84522236Y-75929007D01*
X84522236Y-75929007D02*
X84406122Y-75929007D01*
X84406122Y-75929007D02*
X84328712Y-75977388D01*
X84328712Y-75977388D02*
X84290007Y-76025769D01*
X85141512Y-76606340D02*
X85064102Y-76557960D01*
X85064102Y-76557960D02*
X85025397Y-76509579D01*
X85025397Y-76509579D02*
X84986693Y-76412817D01*
X84986693Y-76412817D02*
X84986693Y-76122531D01*
X84986693Y-76122531D02*
X85025397Y-76025769D01*
X85025397Y-76025769D02*
X85064102Y-75977388D01*
X85064102Y-75977388D02*
X85141512Y-75929007D01*
X85141512Y-75929007D02*
X85257626Y-75929007D01*
X85257626Y-75929007D02*
X85335035Y-75977388D01*
X85335035Y-75977388D02*
X85373740Y-76025769D01*
X85373740Y-76025769D02*
X85412445Y-76122531D01*
X85412445Y-76122531D02*
X85412445Y-76412817D01*
X85412445Y-76412817D02*
X85373740Y-76509579D01*
X85373740Y-76509579D02*
X85335035Y-76557960D01*
X85335035Y-76557960D02*
X85257626Y-76606340D01*
X85257626Y-76606340D02*
X85141512Y-76606340D01*
X85644673Y-75929007D02*
X85954311Y-75929007D01*
X85760787Y-75590340D02*
X85760787Y-76461198D01*
X85760787Y-76461198D02*
X85799492Y-76557960D01*
X85799492Y-76557960D02*
X85876902Y-76606340D01*
X85876902Y-76606340D02*
X85954311Y-76606340D01*
X86341359Y-76606340D02*
X86263949Y-76557960D01*
X86263949Y-76557960D02*
X86225244Y-76509579D01*
X86225244Y-76509579D02*
X86186540Y-76412817D01*
X86186540Y-76412817D02*
X86186540Y-76122531D01*
X86186540Y-76122531D02*
X86225244Y-76025769D01*
X86225244Y-76025769D02*
X86263949Y-75977388D01*
X86263949Y-75977388D02*
X86341359Y-75929007D01*
X86341359Y-75929007D02*
X86457473Y-75929007D01*
X86457473Y-75929007D02*
X86534882Y-75977388D01*
X86534882Y-75977388D02*
X86573587Y-76025769D01*
X86573587Y-76025769D02*
X86612292Y-76122531D01*
X86612292Y-76122531D02*
X86612292Y-76412817D01*
X86612292Y-76412817D02*
X86573587Y-76509579D01*
X86573587Y-76509579D02*
X86534882Y-76557960D01*
X86534882Y-76557960D02*
X86457473Y-76606340D01*
X86457473Y-76606340D02*
X86341359Y-76606340D01*
X87308977Y-76606340D02*
X87308977Y-75590340D01*
X87308977Y-76557960D02*
X87231568Y-76606340D01*
X87231568Y-76606340D02*
X87076749Y-76606340D01*
X87076749Y-76606340D02*
X86999339Y-76557960D01*
X86999339Y-76557960D02*
X86960634Y-76509579D01*
X86960634Y-76509579D02*
X86921930Y-76412817D01*
X86921930Y-76412817D02*
X86921930Y-76122531D01*
X86921930Y-76122531D02*
X86960634Y-76025769D01*
X86960634Y-76025769D02*
X86999339Y-75977388D01*
X86999339Y-75977388D02*
X87076749Y-75929007D01*
X87076749Y-75929007D02*
X87231568Y-75929007D01*
X87231568Y-75929007D02*
X87308977Y-75977388D01*
X87696024Y-76606340D02*
X87696024Y-75929007D01*
X87696024Y-75590340D02*
X87657320Y-75638721D01*
X87657320Y-75638721D02*
X87696024Y-75687102D01*
X87696024Y-75687102D02*
X87734729Y-75638721D01*
X87734729Y-75638721D02*
X87696024Y-75590340D01*
X87696024Y-75590340D02*
X87696024Y-75687102D01*
X88199187Y-76606340D02*
X88121777Y-76557960D01*
X88121777Y-76557960D02*
X88083072Y-76509579D01*
X88083072Y-76509579D02*
X88044368Y-76412817D01*
X88044368Y-76412817D02*
X88044368Y-76122531D01*
X88044368Y-76122531D02*
X88083072Y-76025769D01*
X88083072Y-76025769D02*
X88121777Y-75977388D01*
X88121777Y-75977388D02*
X88199187Y-75929007D01*
X88199187Y-75929007D02*
X88315301Y-75929007D01*
X88315301Y-75929007D02*
X88392710Y-75977388D01*
X88392710Y-75977388D02*
X88431415Y-76025769D01*
X88431415Y-76025769D02*
X88470120Y-76122531D01*
X88470120Y-76122531D02*
X88470120Y-76412817D01*
X88470120Y-76412817D02*
X88431415Y-76509579D01*
X88431415Y-76509579D02*
X88392710Y-76557960D01*
X88392710Y-76557960D02*
X88315301Y-76606340D01*
X88315301Y-76606340D02*
X88199187Y-76606340D01*
X89166805Y-76606340D02*
X89166805Y-75590340D01*
X89166805Y-76557960D02*
X89089396Y-76606340D01*
X89089396Y-76606340D02*
X88934577Y-76606340D01*
X88934577Y-76606340D02*
X88857167Y-76557960D01*
X88857167Y-76557960D02*
X88818462Y-76509579D01*
X88818462Y-76509579D02*
X88779758Y-76412817D01*
X88779758Y-76412817D02*
X88779758Y-76122531D01*
X88779758Y-76122531D02*
X88818462Y-76025769D01*
X88818462Y-76025769D02*
X88857167Y-75977388D01*
X88857167Y-75977388D02*
X88934577Y-75929007D01*
X88934577Y-75929007D02*
X89089396Y-75929007D01*
X89089396Y-75929007D02*
X89166805Y-75977388D01*
X89863490Y-76557960D02*
X89786081Y-76606340D01*
X89786081Y-76606340D02*
X89631262Y-76606340D01*
X89631262Y-76606340D02*
X89553852Y-76557960D01*
X89553852Y-76557960D02*
X89515148Y-76461198D01*
X89515148Y-76461198D02*
X89515148Y-76074150D01*
X89515148Y-76074150D02*
X89553852Y-75977388D01*
X89553852Y-75977388D02*
X89631262Y-75929007D01*
X89631262Y-75929007D02*
X89786081Y-75929007D01*
X89786081Y-75929007D02*
X89863490Y-75977388D01*
X89863490Y-75977388D02*
X89902195Y-76074150D01*
X89902195Y-76074150D02*
X89902195Y-76170912D01*
X89902195Y-76170912D02*
X89515148Y-76267674D01*
X91140748Y-76074150D02*
X91256862Y-76122531D01*
X91256862Y-76122531D02*
X91295567Y-76170912D01*
X91295567Y-76170912D02*
X91334271Y-76267674D01*
X91334271Y-76267674D02*
X91334271Y-76412817D01*
X91334271Y-76412817D02*
X91295567Y-76509579D01*
X91295567Y-76509579D02*
X91256862Y-76557960D01*
X91256862Y-76557960D02*
X91179452Y-76606340D01*
X91179452Y-76606340D02*
X90869814Y-76606340D01*
X90869814Y-76606340D02*
X90869814Y-75590340D01*
X90869814Y-75590340D02*
X91140748Y-75590340D01*
X91140748Y-75590340D02*
X91218157Y-75638721D01*
X91218157Y-75638721D02*
X91256862Y-75687102D01*
X91256862Y-75687102D02*
X91295567Y-75783864D01*
X91295567Y-75783864D02*
X91295567Y-75880626D01*
X91295567Y-75880626D02*
X91256862Y-75977388D01*
X91256862Y-75977388D02*
X91218157Y-76025769D01*
X91218157Y-76025769D02*
X91140748Y-76074150D01*
X91140748Y-76074150D02*
X90869814Y-76074150D01*
X91682614Y-76606340D02*
X91682614Y-75929007D01*
X91682614Y-76122531D02*
X91721319Y-76025769D01*
X91721319Y-76025769D02*
X91760024Y-75977388D01*
X91760024Y-75977388D02*
X91837433Y-75929007D01*
X91837433Y-75929007D02*
X91914843Y-75929007D01*
X92495414Y-76557960D02*
X92418005Y-76606340D01*
X92418005Y-76606340D02*
X92263186Y-76606340D01*
X92263186Y-76606340D02*
X92185776Y-76557960D01*
X92185776Y-76557960D02*
X92147072Y-76461198D01*
X92147072Y-76461198D02*
X92147072Y-76074150D01*
X92147072Y-76074150D02*
X92185776Y-75977388D01*
X92185776Y-75977388D02*
X92263186Y-75929007D01*
X92263186Y-75929007D02*
X92418005Y-75929007D01*
X92418005Y-75929007D02*
X92495414Y-75977388D01*
X92495414Y-75977388D02*
X92534119Y-76074150D01*
X92534119Y-76074150D02*
X92534119Y-76170912D01*
X92534119Y-76170912D02*
X92147072Y-76267674D01*
X93230805Y-76606340D02*
X93230805Y-76074150D01*
X93230805Y-76074150D02*
X93192100Y-75977388D01*
X93192100Y-75977388D02*
X93114691Y-75929007D01*
X93114691Y-75929007D02*
X92959872Y-75929007D01*
X92959872Y-75929007D02*
X92882462Y-75977388D01*
X93230805Y-76557960D02*
X93153396Y-76606340D01*
X93153396Y-76606340D02*
X92959872Y-76606340D01*
X92959872Y-76606340D02*
X92882462Y-76557960D01*
X92882462Y-76557960D02*
X92843758Y-76461198D01*
X92843758Y-76461198D02*
X92843758Y-76364436D01*
X92843758Y-76364436D02*
X92882462Y-76267674D01*
X92882462Y-76267674D02*
X92959872Y-76219293D01*
X92959872Y-76219293D02*
X93153396Y-76219293D01*
X93153396Y-76219293D02*
X93230805Y-76170912D01*
X93617852Y-76606340D02*
X93617852Y-75590340D01*
X93695262Y-76219293D02*
X93927490Y-76606340D01*
X93927490Y-75929007D02*
X93617852Y-76316055D01*
X94391948Y-76606340D02*
X94314538Y-76557960D01*
X94314538Y-76557960D02*
X94275833Y-76509579D01*
X94275833Y-76509579D02*
X94237129Y-76412817D01*
X94237129Y-76412817D02*
X94237129Y-76122531D01*
X94237129Y-76122531D02*
X94275833Y-76025769D01*
X94275833Y-76025769D02*
X94314538Y-75977388D01*
X94314538Y-75977388D02*
X94391948Y-75929007D01*
X94391948Y-75929007D02*
X94508062Y-75929007D01*
X94508062Y-75929007D02*
X94585471Y-75977388D01*
X94585471Y-75977388D02*
X94624176Y-76025769D01*
X94624176Y-76025769D02*
X94662881Y-76122531D01*
X94662881Y-76122531D02*
X94662881Y-76412817D01*
X94662881Y-76412817D02*
X94624176Y-76509579D01*
X94624176Y-76509579D02*
X94585471Y-76557960D01*
X94585471Y-76557960D02*
X94508062Y-76606340D01*
X94508062Y-76606340D02*
X94391948Y-76606340D01*
X95359566Y-75929007D02*
X95359566Y-76606340D01*
X95011223Y-75929007D02*
X95011223Y-76461198D01*
X95011223Y-76461198D02*
X95049928Y-76557960D01*
X95049928Y-76557960D02*
X95127338Y-76606340D01*
X95127338Y-76606340D02*
X95243452Y-76606340D01*
X95243452Y-76606340D02*
X95320861Y-76557960D01*
X95320861Y-76557960D02*
X95359566Y-76509579D01*
X95630499Y-75929007D02*
X95940137Y-75929007D01*
X95746613Y-75590340D02*
X95746613Y-76461198D01*
X95746613Y-76461198D02*
X95785318Y-76557960D01*
X95785318Y-76557960D02*
X95862728Y-76606340D01*
X95862728Y-76606340D02*
X95940137Y-76606340D01*
X96249775Y-76557960D02*
X96249775Y-76606340D01*
X96249775Y-76606340D02*
X96211070Y-76703102D01*
X96211070Y-76703102D02*
X96172366Y-76751483D01*
X97681851Y-76606340D02*
X97410918Y-76122531D01*
X97217394Y-76606340D02*
X97217394Y-75590340D01*
X97217394Y-75590340D02*
X97527032Y-75590340D01*
X97527032Y-75590340D02*
X97604442Y-75638721D01*
X97604442Y-75638721D02*
X97643147Y-75687102D01*
X97643147Y-75687102D02*
X97681851Y-75783864D01*
X97681851Y-75783864D02*
X97681851Y-75929007D01*
X97681851Y-75929007D02*
X97643147Y-76025769D01*
X97643147Y-76025769D02*
X97604442Y-76074150D01*
X97604442Y-76074150D02*
X97527032Y-76122531D01*
X97527032Y-76122531D02*
X97217394Y-76122531D01*
X98339832Y-76557960D02*
X98262423Y-76606340D01*
X98262423Y-76606340D02*
X98107604Y-76606340D01*
X98107604Y-76606340D02*
X98030194Y-76557960D01*
X98030194Y-76557960D02*
X97991490Y-76461198D01*
X97991490Y-76461198D02*
X97991490Y-76074150D01*
X97991490Y-76074150D02*
X98030194Y-75977388D01*
X98030194Y-75977388D02*
X98107604Y-75929007D01*
X98107604Y-75929007D02*
X98262423Y-75929007D01*
X98262423Y-75929007D02*
X98339832Y-75977388D01*
X98339832Y-75977388D02*
X98378537Y-76074150D01*
X98378537Y-76074150D02*
X98378537Y-76170912D01*
X98378537Y-76170912D02*
X97991490Y-76267674D01*
X98649471Y-75929007D02*
X98842995Y-76606340D01*
X98842995Y-76606340D02*
X99036518Y-75929007D01*
X99771909Y-76606340D02*
X99307452Y-76606340D01*
X99539680Y-76606340D02*
X99539680Y-75590340D01*
X99539680Y-75590340D02*
X99462271Y-75735483D01*
X99462271Y-75735483D02*
X99384861Y-75832245D01*
X99384861Y-75832245D02*
X99307452Y-75880626D01*
X83477207Y-78242100D02*
X83477207Y-77226100D01*
X83477207Y-77226100D02*
X83748141Y-77951815D01*
X83748141Y-77951815D02*
X84019074Y-77226100D01*
X84019074Y-77226100D02*
X84019074Y-78242100D01*
X84754464Y-78242100D02*
X84754464Y-77709910D01*
X84754464Y-77709910D02*
X84715759Y-77613148D01*
X84715759Y-77613148D02*
X84638350Y-77564767D01*
X84638350Y-77564767D02*
X84483531Y-77564767D01*
X84483531Y-77564767D02*
X84406121Y-77613148D01*
X84754464Y-78193720D02*
X84677055Y-78242100D01*
X84677055Y-78242100D02*
X84483531Y-78242100D01*
X84483531Y-78242100D02*
X84406121Y-78193720D01*
X84406121Y-78193720D02*
X84367417Y-78096958D01*
X84367417Y-78096958D02*
X84367417Y-78000196D01*
X84367417Y-78000196D02*
X84406121Y-77903434D01*
X84406121Y-77903434D02*
X84483531Y-77855053D01*
X84483531Y-77855053D02*
X84677055Y-77855053D01*
X84677055Y-77855053D02*
X84754464Y-77806672D01*
X85141511Y-78242100D02*
X85141511Y-77564767D01*
X85141511Y-77758291D02*
X85180216Y-77661529D01*
X85180216Y-77661529D02*
X85218921Y-77613148D01*
X85218921Y-77613148D02*
X85296330Y-77564767D01*
X85296330Y-77564767D02*
X85373740Y-77564767D01*
X85605969Y-78193720D02*
X85683378Y-78242100D01*
X85683378Y-78242100D02*
X85838197Y-78242100D01*
X85838197Y-78242100D02*
X85915607Y-78193720D01*
X85915607Y-78193720D02*
X85954311Y-78096958D01*
X85954311Y-78096958D02*
X85954311Y-78048577D01*
X85954311Y-78048577D02*
X85915607Y-77951815D01*
X85915607Y-77951815D02*
X85838197Y-77903434D01*
X85838197Y-77903434D02*
X85722083Y-77903434D01*
X85722083Y-77903434D02*
X85644673Y-77855053D01*
X85644673Y-77855053D02*
X85605969Y-77758291D01*
X85605969Y-77758291D02*
X85605969Y-77709910D01*
X85605969Y-77709910D02*
X85644673Y-77613148D01*
X85644673Y-77613148D02*
X85722083Y-77564767D01*
X85722083Y-77564767D02*
X85838197Y-77564767D01*
X85838197Y-77564767D02*
X85915607Y-77613148D01*
X87386387Y-78242100D02*
X87115454Y-77758291D01*
X86921930Y-78242100D02*
X86921930Y-77226100D01*
X86921930Y-77226100D02*
X87231568Y-77226100D01*
X87231568Y-77226100D02*
X87308978Y-77274481D01*
X87308978Y-77274481D02*
X87347683Y-77322862D01*
X87347683Y-77322862D02*
X87386387Y-77419624D01*
X87386387Y-77419624D02*
X87386387Y-77564767D01*
X87386387Y-77564767D02*
X87347683Y-77661529D01*
X87347683Y-77661529D02*
X87308978Y-77709910D01*
X87308978Y-77709910D02*
X87231568Y-77758291D01*
X87231568Y-77758291D02*
X86921930Y-77758291D01*
X87850845Y-78242100D02*
X87773435Y-78193720D01*
X87773435Y-78193720D02*
X87734730Y-78145339D01*
X87734730Y-78145339D02*
X87696026Y-78048577D01*
X87696026Y-78048577D02*
X87696026Y-77758291D01*
X87696026Y-77758291D02*
X87734730Y-77661529D01*
X87734730Y-77661529D02*
X87773435Y-77613148D01*
X87773435Y-77613148D02*
X87850845Y-77564767D01*
X87850845Y-77564767D02*
X87966959Y-77564767D01*
X87966959Y-77564767D02*
X88044368Y-77613148D01*
X88044368Y-77613148D02*
X88083073Y-77661529D01*
X88083073Y-77661529D02*
X88121778Y-77758291D01*
X88121778Y-77758291D02*
X88121778Y-78048577D01*
X88121778Y-78048577D02*
X88083073Y-78145339D01*
X88083073Y-78145339D02*
X88044368Y-78193720D01*
X88044368Y-78193720D02*
X87966959Y-78242100D01*
X87966959Y-78242100D02*
X87850845Y-78242100D01*
X88392711Y-77564767D02*
X88586235Y-78242100D01*
X88586235Y-78242100D02*
X88779758Y-77564767D01*
X89399034Y-78193720D02*
X89321625Y-78242100D01*
X89321625Y-78242100D02*
X89166806Y-78242100D01*
X89166806Y-78242100D02*
X89089396Y-78193720D01*
X89089396Y-78193720D02*
X89050692Y-78096958D01*
X89050692Y-78096958D02*
X89050692Y-77709910D01*
X89050692Y-77709910D02*
X89089396Y-77613148D01*
X89089396Y-77613148D02*
X89166806Y-77564767D01*
X89166806Y-77564767D02*
X89321625Y-77564767D01*
X89321625Y-77564767D02*
X89399034Y-77613148D01*
X89399034Y-77613148D02*
X89437739Y-77709910D01*
X89437739Y-77709910D02*
X89437739Y-77806672D01*
X89437739Y-77806672D02*
X89050692Y-77903434D01*
X89786082Y-78242100D02*
X89786082Y-77564767D01*
X89786082Y-77758291D02*
X89824787Y-77661529D01*
X89824787Y-77661529D02*
X89863492Y-77613148D01*
X89863492Y-77613148D02*
X89940901Y-77564767D01*
X89940901Y-77564767D02*
X90018311Y-77564767D01*
X90908520Y-78242100D02*
X90908520Y-77226100D01*
X90908520Y-77226100D02*
X91102044Y-77226100D01*
X91102044Y-77226100D02*
X91218158Y-77274481D01*
X91218158Y-77274481D02*
X91295568Y-77371243D01*
X91295568Y-77371243D02*
X91334273Y-77468005D01*
X91334273Y-77468005D02*
X91372977Y-77661529D01*
X91372977Y-77661529D02*
X91372977Y-77806672D01*
X91372977Y-77806672D02*
X91334273Y-78000196D01*
X91334273Y-78000196D02*
X91295568Y-78096958D01*
X91295568Y-78096958D02*
X91218158Y-78193720D01*
X91218158Y-78193720D02*
X91102044Y-78242100D01*
X91102044Y-78242100D02*
X90908520Y-78242100D01*
X92030958Y-78193720D02*
X91953549Y-78242100D01*
X91953549Y-78242100D02*
X91798730Y-78242100D01*
X91798730Y-78242100D02*
X91721320Y-78193720D01*
X91721320Y-78193720D02*
X91682616Y-78096958D01*
X91682616Y-78096958D02*
X91682616Y-77709910D01*
X91682616Y-77709910D02*
X91721320Y-77613148D01*
X91721320Y-77613148D02*
X91798730Y-77564767D01*
X91798730Y-77564767D02*
X91953549Y-77564767D01*
X91953549Y-77564767D02*
X92030958Y-77613148D01*
X92030958Y-77613148D02*
X92069663Y-77709910D01*
X92069663Y-77709910D02*
X92069663Y-77806672D01*
X92069663Y-77806672D02*
X91682616Y-77903434D01*
X92379302Y-78193720D02*
X92456711Y-78242100D01*
X92456711Y-78242100D02*
X92611530Y-78242100D01*
X92611530Y-78242100D02*
X92688940Y-78193720D01*
X92688940Y-78193720D02*
X92727644Y-78096958D01*
X92727644Y-78096958D02*
X92727644Y-78048577D01*
X92727644Y-78048577D02*
X92688940Y-77951815D01*
X92688940Y-77951815D02*
X92611530Y-77903434D01*
X92611530Y-77903434D02*
X92495416Y-77903434D01*
X92495416Y-77903434D02*
X92418006Y-77855053D01*
X92418006Y-77855053D02*
X92379302Y-77758291D01*
X92379302Y-77758291D02*
X92379302Y-77709910D01*
X92379302Y-77709910D02*
X92418006Y-77613148D01*
X92418006Y-77613148D02*
X92495416Y-77564767D01*
X92495416Y-77564767D02*
X92611530Y-77564767D01*
X92611530Y-77564767D02*
X92688940Y-77613148D01*
X93075987Y-78242100D02*
X93075987Y-77564767D01*
X93075987Y-77226100D02*
X93037283Y-77274481D01*
X93037283Y-77274481D02*
X93075987Y-77322862D01*
X93075987Y-77322862D02*
X93114692Y-77274481D01*
X93114692Y-77274481D02*
X93075987Y-77226100D01*
X93075987Y-77226100D02*
X93075987Y-77322862D01*
X93811378Y-77564767D02*
X93811378Y-78387243D01*
X93811378Y-78387243D02*
X93772673Y-78484005D01*
X93772673Y-78484005D02*
X93733969Y-78532386D01*
X93733969Y-78532386D02*
X93656559Y-78580767D01*
X93656559Y-78580767D02*
X93540445Y-78580767D01*
X93540445Y-78580767D02*
X93463035Y-78532386D01*
X93811378Y-78193720D02*
X93733969Y-78242100D01*
X93733969Y-78242100D02*
X93579150Y-78242100D01*
X93579150Y-78242100D02*
X93501740Y-78193720D01*
X93501740Y-78193720D02*
X93463035Y-78145339D01*
X93463035Y-78145339D02*
X93424331Y-78048577D01*
X93424331Y-78048577D02*
X93424331Y-77758291D01*
X93424331Y-77758291D02*
X93463035Y-77661529D01*
X93463035Y-77661529D02*
X93501740Y-77613148D01*
X93501740Y-77613148D02*
X93579150Y-77564767D01*
X93579150Y-77564767D02*
X93733969Y-77564767D01*
X93733969Y-77564767D02*
X93811378Y-77613148D01*
X94198425Y-77564767D02*
X94198425Y-78242100D01*
X94198425Y-77661529D02*
X94237130Y-77613148D01*
X94237130Y-77613148D02*
X94314540Y-77564767D01*
X94314540Y-77564767D02*
X94430654Y-77564767D01*
X94430654Y-77564767D02*
X94508063Y-77613148D01*
X94508063Y-77613148D02*
X94546768Y-77709910D01*
X94546768Y-77709910D02*
X94546768Y-78242100D01*
X95436977Y-77226100D02*
X95901434Y-77226100D01*
X95669206Y-78242100D02*
X95669206Y-77226100D01*
X96482005Y-78193720D02*
X96404596Y-78242100D01*
X96404596Y-78242100D02*
X96249777Y-78242100D01*
X96249777Y-78242100D02*
X96172367Y-78193720D01*
X96172367Y-78193720D02*
X96133663Y-78096958D01*
X96133663Y-78096958D02*
X96133663Y-77709910D01*
X96133663Y-77709910D02*
X96172367Y-77613148D01*
X96172367Y-77613148D02*
X96249777Y-77564767D01*
X96249777Y-77564767D02*
X96404596Y-77564767D01*
X96404596Y-77564767D02*
X96482005Y-77613148D01*
X96482005Y-77613148D02*
X96520710Y-77709910D01*
X96520710Y-77709910D02*
X96520710Y-77806672D01*
X96520710Y-77806672D02*
X96133663Y-77903434D01*
X97217396Y-78242100D02*
X97217396Y-77709910D01*
X97217396Y-77709910D02*
X97178691Y-77613148D01*
X97178691Y-77613148D02*
X97101282Y-77564767D01*
X97101282Y-77564767D02*
X96946463Y-77564767D01*
X96946463Y-77564767D02*
X96869053Y-77613148D01*
X97217396Y-78193720D02*
X97139987Y-78242100D01*
X97139987Y-78242100D02*
X96946463Y-78242100D01*
X96946463Y-78242100D02*
X96869053Y-78193720D01*
X96869053Y-78193720D02*
X96830349Y-78096958D01*
X96830349Y-78096958D02*
X96830349Y-78000196D01*
X96830349Y-78000196D02*
X96869053Y-77903434D01*
X96869053Y-77903434D02*
X96946463Y-77855053D01*
X96946463Y-77855053D02*
X97139987Y-77855053D01*
X97139987Y-77855053D02*
X97217396Y-77806672D01*
X97604443Y-78242100D02*
X97604443Y-77564767D01*
X97604443Y-77661529D02*
X97643148Y-77613148D01*
X97643148Y-77613148D02*
X97720558Y-77564767D01*
X97720558Y-77564767D02*
X97836672Y-77564767D01*
X97836672Y-77564767D02*
X97914081Y-77613148D01*
X97914081Y-77613148D02*
X97952786Y-77709910D01*
X97952786Y-77709910D02*
X97952786Y-78242100D01*
X97952786Y-77709910D02*
X97991491Y-77613148D01*
X97991491Y-77613148D02*
X98068900Y-77564767D01*
X98068900Y-77564767D02*
X98185015Y-77564767D01*
X98185015Y-77564767D02*
X98262424Y-77613148D01*
X98262424Y-77613148D02*
X98301129Y-77709910D01*
X98301129Y-77709910D02*
X98301129Y-78242100D01*
X83477207Y-79877860D02*
X83477207Y-78861860D01*
X83477207Y-78861860D02*
X83748141Y-79587575D01*
X83748141Y-79587575D02*
X84019074Y-78861860D01*
X84019074Y-78861860D02*
X84019074Y-79877860D01*
X84406121Y-79877860D02*
X84406121Y-79200527D01*
X84406121Y-78861860D02*
X84367417Y-78910241D01*
X84367417Y-78910241D02*
X84406121Y-78958622D01*
X84406121Y-78958622D02*
X84444826Y-78910241D01*
X84444826Y-78910241D02*
X84406121Y-78861860D01*
X84406121Y-78861860D02*
X84406121Y-78958622D01*
X84754465Y-79829480D02*
X84831874Y-79877860D01*
X84831874Y-79877860D02*
X84986693Y-79877860D01*
X84986693Y-79877860D02*
X85064103Y-79829480D01*
X85064103Y-79829480D02*
X85102807Y-79732718D01*
X85102807Y-79732718D02*
X85102807Y-79684337D01*
X85102807Y-79684337D02*
X85064103Y-79587575D01*
X85064103Y-79587575D02*
X84986693Y-79539194D01*
X84986693Y-79539194D02*
X84870579Y-79539194D01*
X84870579Y-79539194D02*
X84793169Y-79490813D01*
X84793169Y-79490813D02*
X84754465Y-79394051D01*
X84754465Y-79394051D02*
X84754465Y-79345670D01*
X84754465Y-79345670D02*
X84793169Y-79248908D01*
X84793169Y-79248908D02*
X84870579Y-79200527D01*
X84870579Y-79200527D02*
X84986693Y-79200527D01*
X84986693Y-79200527D02*
X85064103Y-79248908D01*
X85412446Y-79829480D02*
X85489855Y-79877860D01*
X85489855Y-79877860D02*
X85644674Y-79877860D01*
X85644674Y-79877860D02*
X85722084Y-79829480D01*
X85722084Y-79829480D02*
X85760788Y-79732718D01*
X85760788Y-79732718D02*
X85760788Y-79684337D01*
X85760788Y-79684337D02*
X85722084Y-79587575D01*
X85722084Y-79587575D02*
X85644674Y-79539194D01*
X85644674Y-79539194D02*
X85528560Y-79539194D01*
X85528560Y-79539194D02*
X85451150Y-79490813D01*
X85451150Y-79490813D02*
X85412446Y-79394051D01*
X85412446Y-79394051D02*
X85412446Y-79345670D01*
X85412446Y-79345670D02*
X85451150Y-79248908D01*
X85451150Y-79248908D02*
X85528560Y-79200527D01*
X85528560Y-79200527D02*
X85644674Y-79200527D01*
X85644674Y-79200527D02*
X85722084Y-79248908D01*
X86225246Y-79877860D02*
X86147836Y-79829480D01*
X86147836Y-79829480D02*
X86109131Y-79781099D01*
X86109131Y-79781099D02*
X86070427Y-79684337D01*
X86070427Y-79684337D02*
X86070427Y-79394051D01*
X86070427Y-79394051D02*
X86109131Y-79297289D01*
X86109131Y-79297289D02*
X86147836Y-79248908D01*
X86147836Y-79248908D02*
X86225246Y-79200527D01*
X86225246Y-79200527D02*
X86341360Y-79200527D01*
X86341360Y-79200527D02*
X86418769Y-79248908D01*
X86418769Y-79248908D02*
X86457474Y-79297289D01*
X86457474Y-79297289D02*
X86496179Y-79394051D01*
X86496179Y-79394051D02*
X86496179Y-79684337D01*
X86496179Y-79684337D02*
X86457474Y-79781099D01*
X86457474Y-79781099D02*
X86418769Y-79829480D01*
X86418769Y-79829480D02*
X86341360Y-79877860D01*
X86341360Y-79877860D02*
X86225246Y-79877860D01*
X87192864Y-79200527D02*
X87192864Y-79877860D01*
X86844521Y-79200527D02*
X86844521Y-79732718D01*
X86844521Y-79732718D02*
X86883226Y-79829480D01*
X86883226Y-79829480D02*
X86960636Y-79877860D01*
X86960636Y-79877860D02*
X87076750Y-79877860D01*
X87076750Y-79877860D02*
X87154159Y-79829480D01*
X87154159Y-79829480D02*
X87192864Y-79781099D01*
X87579911Y-79877860D02*
X87579911Y-79200527D01*
X87579911Y-79394051D02*
X87618616Y-79297289D01*
X87618616Y-79297289D02*
X87657321Y-79248908D01*
X87657321Y-79248908D02*
X87734730Y-79200527D01*
X87734730Y-79200527D02*
X87812140Y-79200527D01*
X88083073Y-79877860D02*
X88083073Y-79200527D01*
X88083073Y-78861860D02*
X88044369Y-78910241D01*
X88044369Y-78910241D02*
X88083073Y-78958622D01*
X88083073Y-78958622D02*
X88121778Y-78910241D01*
X88121778Y-78910241D02*
X88083073Y-78861860D01*
X88083073Y-78861860D02*
X88083073Y-78958622D01*
X89050693Y-79829480D02*
X89166807Y-79877860D01*
X89166807Y-79877860D02*
X89360331Y-79877860D01*
X89360331Y-79877860D02*
X89437740Y-79829480D01*
X89437740Y-79829480D02*
X89476445Y-79781099D01*
X89476445Y-79781099D02*
X89515150Y-79684337D01*
X89515150Y-79684337D02*
X89515150Y-79587575D01*
X89515150Y-79587575D02*
X89476445Y-79490813D01*
X89476445Y-79490813D02*
X89437740Y-79442432D01*
X89437740Y-79442432D02*
X89360331Y-79394051D01*
X89360331Y-79394051D02*
X89205512Y-79345670D01*
X89205512Y-79345670D02*
X89128102Y-79297289D01*
X89128102Y-79297289D02*
X89089397Y-79248908D01*
X89089397Y-79248908D02*
X89050693Y-79152146D01*
X89050693Y-79152146D02*
X89050693Y-79055384D01*
X89050693Y-79055384D02*
X89089397Y-78958622D01*
X89089397Y-78958622D02*
X89128102Y-78910241D01*
X89128102Y-78910241D02*
X89205512Y-78861860D01*
X89205512Y-78861860D02*
X89399035Y-78861860D01*
X89399035Y-78861860D02*
X89515150Y-78910241D01*
X90521473Y-79877860D02*
X90482769Y-79877860D01*
X90482769Y-79877860D02*
X90405359Y-79829480D01*
X90405359Y-79829480D02*
X90289245Y-79684337D01*
X90289245Y-79684337D02*
X90095721Y-79394051D01*
X90095721Y-79394051D02*
X90018311Y-79248908D01*
X90018311Y-79248908D02*
X89979607Y-79103765D01*
X89979607Y-79103765D02*
X89979607Y-79007003D01*
X89979607Y-79007003D02*
X90018311Y-78910241D01*
X90018311Y-78910241D02*
X90095721Y-78861860D01*
X90095721Y-78861860D02*
X90134426Y-78861860D01*
X90134426Y-78861860D02*
X90211835Y-78910241D01*
X90211835Y-78910241D02*
X90250540Y-79007003D01*
X90250540Y-79007003D02*
X90250540Y-79055384D01*
X90250540Y-79055384D02*
X90211835Y-79152146D01*
X90211835Y-79152146D02*
X90173130Y-79200527D01*
X90173130Y-79200527D02*
X89940902Y-79394051D01*
X89940902Y-79394051D02*
X89902197Y-79442432D01*
X89902197Y-79442432D02*
X89863492Y-79539194D01*
X89863492Y-79539194D02*
X89863492Y-79684337D01*
X89863492Y-79684337D02*
X89902197Y-79781099D01*
X89902197Y-79781099D02*
X89940902Y-79829480D01*
X89940902Y-79829480D02*
X90018311Y-79877860D01*
X90018311Y-79877860D02*
X90134426Y-79877860D01*
X90134426Y-79877860D02*
X90211835Y-79829480D01*
X90211835Y-79829480D02*
X90250540Y-79781099D01*
X90250540Y-79781099D02*
X90366654Y-79587575D01*
X90366654Y-79587575D02*
X90405359Y-79442432D01*
X90405359Y-79442432D02*
X90405359Y-79345670D01*
X90753702Y-78861860D02*
X91218159Y-78861860D01*
X90985931Y-79877860D02*
X90985931Y-78861860D01*
X91527797Y-79829480D02*
X91527797Y-79877860D01*
X91527797Y-79877860D02*
X91489092Y-79974622D01*
X91489092Y-79974622D02*
X91450388Y-80023003D01*
X92456712Y-78958622D02*
X92495416Y-78910241D01*
X92495416Y-78910241D02*
X92572826Y-78861860D01*
X92572826Y-78861860D02*
X92766350Y-78861860D01*
X92766350Y-78861860D02*
X92843759Y-78910241D01*
X92843759Y-78910241D02*
X92882464Y-78958622D01*
X92882464Y-78958622D02*
X92921169Y-79055384D01*
X92921169Y-79055384D02*
X92921169Y-79152146D01*
X92921169Y-79152146D02*
X92882464Y-79297289D01*
X92882464Y-79297289D02*
X92418007Y-79877860D01*
X92418007Y-79877860D02*
X92921169Y-79877860D01*
X93424330Y-78861860D02*
X93501740Y-78861860D01*
X93501740Y-78861860D02*
X93579149Y-78910241D01*
X93579149Y-78910241D02*
X93617854Y-78958622D01*
X93617854Y-78958622D02*
X93656559Y-79055384D01*
X93656559Y-79055384D02*
X93695264Y-79248908D01*
X93695264Y-79248908D02*
X93695264Y-79490813D01*
X93695264Y-79490813D02*
X93656559Y-79684337D01*
X93656559Y-79684337D02*
X93617854Y-79781099D01*
X93617854Y-79781099D02*
X93579149Y-79829480D01*
X93579149Y-79829480D02*
X93501740Y-79877860D01*
X93501740Y-79877860D02*
X93424330Y-79877860D01*
X93424330Y-79877860D02*
X93346921Y-79829480D01*
X93346921Y-79829480D02*
X93308216Y-79781099D01*
X93308216Y-79781099D02*
X93269511Y-79684337D01*
X93269511Y-79684337D02*
X93230807Y-79490813D01*
X93230807Y-79490813D02*
X93230807Y-79248908D01*
X93230807Y-79248908D02*
X93269511Y-79055384D01*
X93269511Y-79055384D02*
X93308216Y-78958622D01*
X93308216Y-78958622D02*
X93346921Y-78910241D01*
X93346921Y-78910241D02*
X93424330Y-78861860D01*
X94004902Y-78958622D02*
X94043606Y-78910241D01*
X94043606Y-78910241D02*
X94121016Y-78861860D01*
X94121016Y-78861860D02*
X94314540Y-78861860D01*
X94314540Y-78861860D02*
X94391949Y-78910241D01*
X94391949Y-78910241D02*
X94430654Y-78958622D01*
X94430654Y-78958622D02*
X94469359Y-79055384D01*
X94469359Y-79055384D02*
X94469359Y-79152146D01*
X94469359Y-79152146D02*
X94430654Y-79297289D01*
X94430654Y-79297289D02*
X93966197Y-79877860D01*
X93966197Y-79877860D02*
X94469359Y-79877860D01*
X94740292Y-78861860D02*
X95243454Y-78861860D01*
X95243454Y-78861860D02*
X94972520Y-79248908D01*
X94972520Y-79248908D02*
X95088635Y-79248908D01*
X95088635Y-79248908D02*
X95166044Y-79297289D01*
X95166044Y-79297289D02*
X95204749Y-79345670D01*
X95204749Y-79345670D02*
X95243454Y-79442432D01*
X95243454Y-79442432D02*
X95243454Y-79684337D01*
X95243454Y-79684337D02*
X95204749Y-79781099D01*
X95204749Y-79781099D02*
X95166044Y-79829480D01*
X95166044Y-79829480D02*
X95088635Y-79877860D01*
X95088635Y-79877860D02*
X94856406Y-79877860D01*
X94856406Y-79877860D02*
X94778997Y-79829480D01*
X94778997Y-79829480D02*
X94740292Y-79781099D01*
X83651960Y-83724504D02*
X84128150Y-83724504D01*
X83556722Y-84010219D02*
X83890055Y-83010219D01*
X83890055Y-83010219D02*
X84223388Y-84010219D01*
X84985293Y-84010219D02*
X84985293Y-83010219D01*
X84985293Y-83962600D02*
X84890055Y-84010219D01*
X84890055Y-84010219D02*
X84699579Y-84010219D01*
X84699579Y-84010219D02*
X84604341Y-83962600D01*
X84604341Y-83962600D02*
X84556722Y-83914980D01*
X84556722Y-83914980D02*
X84509103Y-83819742D01*
X84509103Y-83819742D02*
X84509103Y-83534028D01*
X84509103Y-83534028D02*
X84556722Y-83438790D01*
X84556722Y-83438790D02*
X84604341Y-83391171D01*
X84604341Y-83391171D02*
X84699579Y-83343552D01*
X84699579Y-83343552D02*
X84890055Y-83343552D01*
X84890055Y-83343552D02*
X84985293Y-83391171D01*
X85890055Y-84010219D02*
X85890055Y-83486409D01*
X85890055Y-83486409D02*
X85842436Y-83391171D01*
X85842436Y-83391171D02*
X85747198Y-83343552D01*
X85747198Y-83343552D02*
X85556722Y-83343552D01*
X85556722Y-83343552D02*
X85461484Y-83391171D01*
X85890055Y-83962600D02*
X85794817Y-84010219D01*
X85794817Y-84010219D02*
X85556722Y-84010219D01*
X85556722Y-84010219D02*
X85461484Y-83962600D01*
X85461484Y-83962600D02*
X85413865Y-83867361D01*
X85413865Y-83867361D02*
X85413865Y-83772123D01*
X85413865Y-83772123D02*
X85461484Y-83676885D01*
X85461484Y-83676885D02*
X85556722Y-83629266D01*
X85556722Y-83629266D02*
X85794817Y-83629266D01*
X85794817Y-83629266D02*
X85890055Y-83581647D01*
X86366246Y-84010219D02*
X86366246Y-83343552D01*
X86366246Y-83438790D02*
X86413865Y-83391171D01*
X86413865Y-83391171D02*
X86509103Y-83343552D01*
X86509103Y-83343552D02*
X86651960Y-83343552D01*
X86651960Y-83343552D02*
X86747198Y-83391171D01*
X86747198Y-83391171D02*
X86794817Y-83486409D01*
X86794817Y-83486409D02*
X86794817Y-84010219D01*
X86794817Y-83486409D02*
X86842436Y-83391171D01*
X86842436Y-83391171D02*
X86937674Y-83343552D01*
X86937674Y-83343552D02*
X87080531Y-83343552D01*
X87080531Y-83343552D02*
X87175770Y-83391171D01*
X87175770Y-83391171D02*
X87223389Y-83486409D01*
X87223389Y-83486409D02*
X87223389Y-84010219D01*
X88461484Y-84010219D02*
X88461484Y-83010219D01*
X89032912Y-84010219D02*
X88604341Y-83438790D01*
X89032912Y-83010219D02*
X88461484Y-83581647D01*
X89461484Y-83914980D02*
X89509103Y-83962600D01*
X89509103Y-83962600D02*
X89461484Y-84010219D01*
X89461484Y-84010219D02*
X89413865Y-83962600D01*
X89413865Y-83962600D02*
X89461484Y-83914980D01*
X89461484Y-83914980D02*
X89461484Y-84010219D01*
X83699579Y-85620219D02*
X83699579Y-84620219D01*
X83699579Y-84620219D02*
X83937674Y-84620219D01*
X83937674Y-84620219D02*
X84080531Y-84667838D01*
X84080531Y-84667838D02*
X84175769Y-84763076D01*
X84175769Y-84763076D02*
X84223388Y-84858314D01*
X84223388Y-84858314D02*
X84271007Y-85048790D01*
X84271007Y-85048790D02*
X84271007Y-85191647D01*
X84271007Y-85191647D02*
X84223388Y-85382123D01*
X84223388Y-85382123D02*
X84175769Y-85477361D01*
X84175769Y-85477361D02*
X84080531Y-85572600D01*
X84080531Y-85572600D02*
X83937674Y-85620219D01*
X83937674Y-85620219D02*
X83699579Y-85620219D01*
X84699579Y-85620219D02*
X84699579Y-84953552D01*
X84699579Y-85144028D02*
X84747198Y-85048790D01*
X84747198Y-85048790D02*
X84794817Y-85001171D01*
X84794817Y-85001171D02*
X84890055Y-84953552D01*
X84890055Y-84953552D02*
X84985293Y-84953552D01*
X85699579Y-85572600D02*
X85604341Y-85620219D01*
X85604341Y-85620219D02*
X85413865Y-85620219D01*
X85413865Y-85620219D02*
X85318627Y-85572600D01*
X85318627Y-85572600D02*
X85271008Y-85477361D01*
X85271008Y-85477361D02*
X85271008Y-85096409D01*
X85271008Y-85096409D02*
X85318627Y-85001171D01*
X85318627Y-85001171D02*
X85413865Y-84953552D01*
X85413865Y-84953552D02*
X85604341Y-84953552D01*
X85604341Y-84953552D02*
X85699579Y-85001171D01*
X85699579Y-85001171D02*
X85747198Y-85096409D01*
X85747198Y-85096409D02*
X85747198Y-85191647D01*
X85747198Y-85191647D02*
X85271008Y-85286885D01*
X86080532Y-84953552D02*
X86271008Y-85620219D01*
X86271008Y-85620219D02*
X86461484Y-85144028D01*
X86461484Y-85144028D02*
X86651960Y-85620219D01*
X86651960Y-85620219D02*
X86842436Y-84953552D01*
X87890056Y-84620219D02*
X88128151Y-85620219D01*
X88128151Y-85620219D02*
X88318627Y-84905933D01*
X88318627Y-84905933D02*
X88509103Y-85620219D01*
X88509103Y-85620219D02*
X88747199Y-84620219D01*
X89128151Y-85524980D02*
X89175770Y-85572600D01*
X89175770Y-85572600D02*
X89128151Y-85620219D01*
X89128151Y-85620219D02*
X89080532Y-85572600D01*
X89080532Y-85572600D02*
X89128151Y-85524980D01*
X89128151Y-85524980D02*
X89128151Y-85620219D01*
X90068495Y-88561619D02*
X90068495Y-89371142D01*
X90068495Y-89371142D02*
X90116114Y-89466380D01*
X90116114Y-89466380D02*
X90163733Y-89514000D01*
X90163733Y-89514000D02*
X90258971Y-89561619D01*
X90258971Y-89561619D02*
X90449447Y-89561619D01*
X90449447Y-89561619D02*
X90544685Y-89514000D01*
X90544685Y-89514000D02*
X90592304Y-89466380D01*
X90592304Y-89466380D02*
X90639923Y-89371142D01*
X90639923Y-89371142D02*
X90639923Y-88561619D01*
X91639923Y-89561619D02*
X91068495Y-89561619D01*
X91354209Y-89561619D02*
X91354209Y-88561619D01*
X91354209Y-88561619D02*
X91258971Y-88704476D01*
X91258971Y-88704476D02*
X91163733Y-88799714D01*
X91163733Y-88799714D02*
X91068495Y-88847333D01*
X84516933Y-94086819D02*
X84183600Y-93610628D01*
X83945505Y-94086819D02*
X83945505Y-93086819D01*
X83945505Y-93086819D02*
X84326457Y-93086819D01*
X84326457Y-93086819D02*
X84421695Y-93134438D01*
X84421695Y-93134438D02*
X84469314Y-93182057D01*
X84469314Y-93182057D02*
X84516933Y-93277295D01*
X84516933Y-93277295D02*
X84516933Y-93420152D01*
X84516933Y-93420152D02*
X84469314Y-93515390D01*
X84469314Y-93515390D02*
X84421695Y-93563009D01*
X84421695Y-93563009D02*
X84326457Y-93610628D01*
X84326457Y-93610628D02*
X83945505Y-93610628D01*
X85469314Y-94086819D02*
X84897886Y-94086819D01*
X85183600Y-94086819D02*
X85183600Y-93086819D01*
X85183600Y-93086819D02*
X85088362Y-93229676D01*
X85088362Y-93229676D02*
X84993124Y-93324914D01*
X84993124Y-93324914D02*
X84897886Y-93372533D01*
X83512819Y-66625694D02*
X82512819Y-66625694D01*
X82512819Y-66625694D02*
X82512819Y-66387599D01*
X82512819Y-66387599D02*
X82560438Y-66244742D01*
X82560438Y-66244742D02*
X82655676Y-66149504D01*
X82655676Y-66149504D02*
X82750914Y-66101885D01*
X82750914Y-66101885D02*
X82941390Y-66054266D01*
X82941390Y-66054266D02*
X83084247Y-66054266D01*
X83084247Y-66054266D02*
X83274723Y-66101885D01*
X83274723Y-66101885D02*
X83369961Y-66149504D01*
X83369961Y-66149504D02*
X83465200Y-66244742D01*
X83465200Y-66244742D02*
X83512819Y-66387599D01*
X83512819Y-66387599D02*
X83512819Y-66625694D01*
X82512819Y-65720932D02*
X82512819Y-65101885D01*
X82512819Y-65101885D02*
X82893771Y-65435218D01*
X82893771Y-65435218D02*
X82893771Y-65292361D01*
X82893771Y-65292361D02*
X82941390Y-65197123D01*
X82941390Y-65197123D02*
X82989009Y-65149504D01*
X82989009Y-65149504D02*
X83084247Y-65101885D01*
X83084247Y-65101885D02*
X83322342Y-65101885D01*
X83322342Y-65101885D02*
X83417580Y-65149504D01*
X83417580Y-65149504D02*
X83465200Y-65197123D01*
X83465200Y-65197123D02*
X83512819Y-65292361D01*
X83512819Y-65292361D02*
X83512819Y-65578075D01*
X83512819Y-65578075D02*
X83465200Y-65673313D01*
X83465200Y-65673313D02*
X83417580Y-65720932D01*
X84567733Y-88128019D02*
X84234400Y-87651828D01*
X83996305Y-88128019D02*
X83996305Y-87128019D01*
X83996305Y-87128019D02*
X84377257Y-87128019D01*
X84377257Y-87128019D02*
X84472495Y-87175638D01*
X84472495Y-87175638D02*
X84520114Y-87223257D01*
X84520114Y-87223257D02*
X84567733Y-87318495D01*
X84567733Y-87318495D02*
X84567733Y-87461352D01*
X84567733Y-87461352D02*
X84520114Y-87556590D01*
X84520114Y-87556590D02*
X84472495Y-87604209D01*
X84472495Y-87604209D02*
X84377257Y-87651828D01*
X84377257Y-87651828D02*
X83996305Y-87651828D01*
X84948686Y-87223257D02*
X84996305Y-87175638D01*
X84996305Y-87175638D02*
X85091543Y-87128019D01*
X85091543Y-87128019D02*
X85329638Y-87128019D01*
X85329638Y-87128019D02*
X85424876Y-87175638D01*
X85424876Y-87175638D02*
X85472495Y-87223257D01*
X85472495Y-87223257D02*
X85520114Y-87318495D01*
X85520114Y-87318495D02*
X85520114Y-87413733D01*
X85520114Y-87413733D02*
X85472495Y-87556590D01*
X85472495Y-87556590D02*
X84901067Y-88128019D01*
X84901067Y-88128019D02*
X85520114Y-88128019D01*
D11*
X99980980Y-80873409D02*
X100028600Y-80921028D01*
X100028600Y-80921028D02*
X100076219Y-81063885D01*
X100076219Y-81063885D02*
X100076219Y-81159123D01*
X100076219Y-81159123D02*
X100028600Y-81301980D01*
X100028600Y-81301980D02*
X99933361Y-81397218D01*
X99933361Y-81397218D02*
X99838123Y-81444837D01*
X99838123Y-81444837D02*
X99647647Y-81492456D01*
X99647647Y-81492456D02*
X99504790Y-81492456D01*
X99504790Y-81492456D02*
X99314314Y-81444837D01*
X99314314Y-81444837D02*
X99219076Y-81397218D01*
X99219076Y-81397218D02*
X99123838Y-81301980D01*
X99123838Y-81301980D02*
X99076219Y-81159123D01*
X99076219Y-81159123D02*
X99076219Y-81063885D01*
X99076219Y-81063885D02*
X99123838Y-80921028D01*
X99123838Y-80921028D02*
X99171457Y-80873409D01*
X100076219Y-80301980D02*
X100028600Y-80397218D01*
X100028600Y-80397218D02*
X99980980Y-80444837D01*
X99980980Y-80444837D02*
X99885742Y-80492456D01*
X99885742Y-80492456D02*
X99600028Y-80492456D01*
X99600028Y-80492456D02*
X99504790Y-80444837D01*
X99504790Y-80444837D02*
X99457171Y-80397218D01*
X99457171Y-80397218D02*
X99409552Y-80301980D01*
X99409552Y-80301980D02*
X99409552Y-80159123D01*
X99409552Y-80159123D02*
X99457171Y-80063885D01*
X99457171Y-80063885D02*
X99504790Y-80016266D01*
X99504790Y-80016266D02*
X99600028Y-79968647D01*
X99600028Y-79968647D02*
X99885742Y-79968647D01*
X99885742Y-79968647D02*
X99980980Y-80016266D01*
X99980980Y-80016266D02*
X100028600Y-80063885D01*
X100028600Y-80063885D02*
X100076219Y-80159123D01*
X100076219Y-80159123D02*
X100076219Y-80301980D01*
X99409552Y-79540075D02*
X100076219Y-79540075D01*
X99504790Y-79540075D02*
X99457171Y-79492456D01*
X99457171Y-79492456D02*
X99409552Y-79397218D01*
X99409552Y-79397218D02*
X99409552Y-79254361D01*
X99409552Y-79254361D02*
X99457171Y-79159123D01*
X99457171Y-79159123D02*
X99552409Y-79111504D01*
X99552409Y-79111504D02*
X100076219Y-79111504D01*
X99409552Y-78635313D02*
X100076219Y-78635313D01*
X99504790Y-78635313D02*
X99457171Y-78587694D01*
X99457171Y-78587694D02*
X99409552Y-78492456D01*
X99409552Y-78492456D02*
X99409552Y-78349599D01*
X99409552Y-78349599D02*
X99457171Y-78254361D01*
X99457171Y-78254361D02*
X99552409Y-78206742D01*
X99552409Y-78206742D02*
X100076219Y-78206742D01*
X99076219Y-77825789D02*
X99076219Y-77206742D01*
X99076219Y-77206742D02*
X99457171Y-77540075D01*
X99457171Y-77540075D02*
X99457171Y-77397218D01*
X99457171Y-77397218D02*
X99504790Y-77301980D01*
X99504790Y-77301980D02*
X99552409Y-77254361D01*
X99552409Y-77254361D02*
X99647647Y-77206742D01*
X99647647Y-77206742D02*
X99885742Y-77206742D01*
X99885742Y-77206742D02*
X99980980Y-77254361D01*
X99980980Y-77254361D02*
X100028600Y-77301980D01*
X100028600Y-77301980D02*
X100076219Y-77397218D01*
X100076219Y-77397218D02*
X100076219Y-77682932D01*
X100076219Y-77682932D02*
X100028600Y-77778170D01*
X100028600Y-77778170D02*
X99980980Y-77825789D01*
D10*
X96708933Y-89659619D02*
X96375600Y-89183428D01*
X96137505Y-89659619D02*
X96137505Y-88659619D01*
X96137505Y-88659619D02*
X96518457Y-88659619D01*
X96518457Y-88659619D02*
X96613695Y-88707238D01*
X96613695Y-88707238D02*
X96661314Y-88754857D01*
X96661314Y-88754857D02*
X96708933Y-88850095D01*
X96708933Y-88850095D02*
X96708933Y-88992952D01*
X96708933Y-88992952D02*
X96661314Y-89088190D01*
X96661314Y-89088190D02*
X96613695Y-89135809D01*
X96613695Y-89135809D02*
X96518457Y-89183428D01*
X96518457Y-89183428D02*
X96137505Y-89183428D01*
X97613695Y-88659619D02*
X97137505Y-88659619D01*
X97137505Y-88659619D02*
X97089886Y-89135809D01*
X97089886Y-89135809D02*
X97137505Y-89088190D01*
X97137505Y-89088190D02*
X97232743Y-89040571D01*
X97232743Y-89040571D02*
X97470838Y-89040571D01*
X97470838Y-89040571D02*
X97566076Y-89088190D01*
X97566076Y-89088190D02*
X97613695Y-89135809D01*
X97613695Y-89135809D02*
X97661314Y-89231047D01*
X97661314Y-89231047D02*
X97661314Y-89469142D01*
X97661314Y-89469142D02*
X97613695Y-89564380D01*
X97613695Y-89564380D02*
X97566076Y-89612000D01*
X97566076Y-89612000D02*
X97470838Y-89659619D01*
X97470838Y-89659619D02*
X97232743Y-89659619D01*
X97232743Y-89659619D02*
X97137505Y-89612000D01*
X97137505Y-89612000D02*
X97089886Y-89564380D01*
X96748333Y-95095219D02*
X96415000Y-94619028D01*
X96176905Y-95095219D02*
X96176905Y-94095219D01*
X96176905Y-94095219D02*
X96557857Y-94095219D01*
X96557857Y-94095219D02*
X96653095Y-94142838D01*
X96653095Y-94142838D02*
X96700714Y-94190457D01*
X96700714Y-94190457D02*
X96748333Y-94285695D01*
X96748333Y-94285695D02*
X96748333Y-94428552D01*
X96748333Y-94428552D02*
X96700714Y-94523790D01*
X96700714Y-94523790D02*
X96653095Y-94571409D01*
X96653095Y-94571409D02*
X96557857Y-94619028D01*
X96557857Y-94619028D02*
X96176905Y-94619028D01*
X97081667Y-94095219D02*
X97700714Y-94095219D01*
X97700714Y-94095219D02*
X97367381Y-94476171D01*
X97367381Y-94476171D02*
X97510238Y-94476171D01*
X97510238Y-94476171D02*
X97605476Y-94523790D01*
X97605476Y-94523790D02*
X97653095Y-94571409D01*
X97653095Y-94571409D02*
X97700714Y-94666647D01*
X97700714Y-94666647D02*
X97700714Y-94904742D01*
X97700714Y-94904742D02*
X97653095Y-94999980D01*
X97653095Y-94999980D02*
X97605476Y-95047600D01*
X97605476Y-95047600D02*
X97510238Y-95095219D01*
X97510238Y-95095219D02*
X97224524Y-95095219D01*
X97224524Y-95095219D02*
X97129286Y-95047600D01*
X97129286Y-95047600D02*
X97081667Y-94999980D01*
D11*
X81629019Y-77724190D02*
X81581400Y-77676571D01*
X81581400Y-77676571D02*
X81533780Y-77533714D01*
X81533780Y-77533714D02*
X81533780Y-77438476D01*
X81533780Y-77438476D02*
X81581400Y-77295619D01*
X81581400Y-77295619D02*
X81676638Y-77200381D01*
X81676638Y-77200381D02*
X81771876Y-77152762D01*
X81771876Y-77152762D02*
X81962352Y-77105143D01*
X81962352Y-77105143D02*
X82105209Y-77105143D01*
X82105209Y-77105143D02*
X82295685Y-77152762D01*
X82295685Y-77152762D02*
X82390923Y-77200381D01*
X82390923Y-77200381D02*
X82486161Y-77295619D01*
X82486161Y-77295619D02*
X82533780Y-77438476D01*
X82533780Y-77438476D02*
X82533780Y-77533714D01*
X82533780Y-77533714D02*
X82486161Y-77676571D01*
X82486161Y-77676571D02*
X82438542Y-77724190D01*
X81533780Y-78295619D02*
X81581400Y-78200381D01*
X81581400Y-78200381D02*
X81629019Y-78152762D01*
X81629019Y-78152762D02*
X81724257Y-78105143D01*
X81724257Y-78105143D02*
X82009971Y-78105143D01*
X82009971Y-78105143D02*
X82105209Y-78152762D01*
X82105209Y-78152762D02*
X82152828Y-78200381D01*
X82152828Y-78200381D02*
X82200447Y-78295619D01*
X82200447Y-78295619D02*
X82200447Y-78438476D01*
X82200447Y-78438476D02*
X82152828Y-78533714D01*
X82152828Y-78533714D02*
X82105209Y-78581333D01*
X82105209Y-78581333D02*
X82009971Y-78628952D01*
X82009971Y-78628952D02*
X81724257Y-78628952D01*
X81724257Y-78628952D02*
X81629019Y-78581333D01*
X81629019Y-78581333D02*
X81581400Y-78533714D01*
X81581400Y-78533714D02*
X81533780Y-78438476D01*
X81533780Y-78438476D02*
X81533780Y-78295619D01*
X82200447Y-79057524D02*
X81533780Y-79057524D01*
X82105209Y-79057524D02*
X82152828Y-79105143D01*
X82152828Y-79105143D02*
X82200447Y-79200381D01*
X82200447Y-79200381D02*
X82200447Y-79343238D01*
X82200447Y-79343238D02*
X82152828Y-79438476D01*
X82152828Y-79438476D02*
X82057590Y-79486095D01*
X82057590Y-79486095D02*
X81533780Y-79486095D01*
X82200447Y-79962286D02*
X81533780Y-79962286D01*
X82105209Y-79962286D02*
X82152828Y-80009905D01*
X82152828Y-80009905D02*
X82200447Y-80105143D01*
X82200447Y-80105143D02*
X82200447Y-80248000D01*
X82200447Y-80248000D02*
X82152828Y-80343238D01*
X82152828Y-80343238D02*
X82057590Y-80390857D01*
X82057590Y-80390857D02*
X81533780Y-80390857D01*
X82438542Y-80819429D02*
X82486161Y-80867048D01*
X82486161Y-80867048D02*
X82533780Y-80962286D01*
X82533780Y-80962286D02*
X82533780Y-81200381D01*
X82533780Y-81200381D02*
X82486161Y-81295619D01*
X82486161Y-81295619D02*
X82438542Y-81343238D01*
X82438542Y-81343238D02*
X82343304Y-81390857D01*
X82343304Y-81390857D02*
X82248066Y-81390857D01*
X82248066Y-81390857D02*
X82105209Y-81343238D01*
X82105209Y-81343238D02*
X81533780Y-80771810D01*
X81533780Y-80771810D02*
X81533780Y-81390857D01*
D10*
X83606819Y-70219866D02*
X83130628Y-70553199D01*
X83606819Y-70791294D02*
X82606819Y-70791294D01*
X82606819Y-70791294D02*
X82606819Y-70410342D01*
X82606819Y-70410342D02*
X82654438Y-70315104D01*
X82654438Y-70315104D02*
X82702057Y-70267485D01*
X82702057Y-70267485D02*
X82797295Y-70219866D01*
X82797295Y-70219866D02*
X82940152Y-70219866D01*
X82940152Y-70219866D02*
X83035390Y-70267485D01*
X83035390Y-70267485D02*
X83083009Y-70315104D01*
X83083009Y-70315104D02*
X83130628Y-70410342D01*
X83130628Y-70410342D02*
X83130628Y-70791294D01*
X82940152Y-69362723D02*
X83606819Y-69362723D01*
X82559200Y-69600818D02*
X83273485Y-69838913D01*
X83273485Y-69838913D02*
X83273485Y-69219866D01*
D12*
%TO.C,U1*%
X90830400Y-89946800D02*
X87380400Y-89946800D01*
X90830400Y-89946800D02*
X92780400Y-89946800D01*
X90830400Y-95066800D02*
X88880400Y-95066800D01*
X90830400Y-95066800D02*
X92780400Y-95066800D01*
%TO.C,R1*%
X84938324Y-92724500D02*
X84428876Y-92724500D01*
X84938324Y-91679500D02*
X84428876Y-91679500D01*
%TO.C,D3*%
X85317000Y-64329200D02*
X83847000Y-64329200D01*
X83847000Y-64329200D02*
X83847000Y-66789200D01*
X85317000Y-66789200D02*
X85317000Y-64329200D01*
%TO.C,R2*%
X84479676Y-88580700D02*
X84989124Y-88580700D01*
X84479676Y-89625700D02*
X84989124Y-89625700D01*
D10*
%TO.C,H3*%
X107518200Y-91948000D02*
G75*
G03*
X107518200Y-91948000I-4013200J0D01*
G01*
%TO.C,Conn1*%
X87033100Y-62814200D02*
X94526100Y-62814200D01*
X87033100Y-64084200D02*
X87033100Y-62814200D01*
X87033100Y-64084200D02*
X87033100Y-69164200D01*
X87033100Y-64084200D02*
X94526100Y-64084200D01*
X94526100Y-62814200D02*
X94526100Y-64084200D01*
X94526100Y-64084200D02*
X94526100Y-69164200D01*
X94526100Y-69164200D02*
X87033100Y-69164200D01*
%TO.C,H4*%
X82118200Y-91948000D02*
G75*
G03*
X82118200Y-91948000I-4013200J0D01*
G01*
%TO.C,H2*%
X82035780Y-66465580D02*
G75*
G03*
X82035780Y-66465580I-4013200J0D01*
G01*
D12*
%TO.C,R5*%
X97141724Y-91149700D02*
X96632276Y-91149700D01*
X97141724Y-90104700D02*
X96632276Y-90104700D01*
%TO.C,R3*%
X96620876Y-92644700D02*
X97130324Y-92644700D01*
X96620876Y-93689700D02*
X97130324Y-93689700D01*
%TO.C,R4*%
X84059500Y-70307924D02*
X84059500Y-69798476D01*
X85104500Y-70307924D02*
X85104500Y-69798476D01*
D10*
%TO.C,H1*%
X107600620Y-66465580D02*
G75*
G03*
X107600620Y-66465580I-4013200J0D01*
G01*
%TD*%
M02*
