%TF.GenerationSoftware,KiCad,Pcbnew,7.0.7*%
%TF.CreationDate,2023-11-07T19:32:12-06:00*%
%TF.ProjectId,TIAs,54494173-2e6b-4696-9361-645f70636258,rev?*%
%TF.SameCoordinates,Original*%
%TF.FileFunction,Legend,Bot*%
%TF.FilePolarity,Positive*%
%FSLAX46Y46*%
G04 Gerber Fmt 4.6, Leading zero omitted, Abs format (unit mm)*
G04 Created by KiCad (PCBNEW 7.0.7) date 2023-11-07 19:32:12*
%MOMM*%
%LPD*%
G01*
G04 APERTURE LIST*
%ADD10C,0.100000*%
%ADD11C,0.120000*%
G04 APERTURE END LIST*
D10*
X87528619Y-73175905D02*
X86528619Y-73175905D01*
X86528619Y-73175905D02*
X86528619Y-73414000D01*
X86528619Y-73414000D02*
X86576238Y-73556857D01*
X86576238Y-73556857D02*
X86671476Y-73652095D01*
X86671476Y-73652095D02*
X86766714Y-73699714D01*
X86766714Y-73699714D02*
X86957190Y-73747333D01*
X86957190Y-73747333D02*
X87100047Y-73747333D01*
X87100047Y-73747333D02*
X87290523Y-73699714D01*
X87290523Y-73699714D02*
X87385761Y-73652095D01*
X87385761Y-73652095D02*
X87481000Y-73556857D01*
X87481000Y-73556857D02*
X87528619Y-73414000D01*
X87528619Y-73414000D02*
X87528619Y-73175905D01*
X86623857Y-74128286D02*
X86576238Y-74175905D01*
X86576238Y-74175905D02*
X86528619Y-74271143D01*
X86528619Y-74271143D02*
X86528619Y-74509238D01*
X86528619Y-74509238D02*
X86576238Y-74604476D01*
X86576238Y-74604476D02*
X86623857Y-74652095D01*
X86623857Y-74652095D02*
X86719095Y-74699714D01*
X86719095Y-74699714D02*
X86814333Y-74699714D01*
X86814333Y-74699714D02*
X86957190Y-74652095D01*
X86957190Y-74652095D02*
X87528619Y-74080667D01*
X87528619Y-74080667D02*
X87528619Y-74699714D01*
X85191819Y-83894705D02*
X84191819Y-83894705D01*
X84191819Y-83894705D02*
X84191819Y-84132800D01*
X84191819Y-84132800D02*
X84239438Y-84275657D01*
X84239438Y-84275657D02*
X84334676Y-84370895D01*
X84334676Y-84370895D02*
X84429914Y-84418514D01*
X84429914Y-84418514D02*
X84620390Y-84466133D01*
X84620390Y-84466133D02*
X84763247Y-84466133D01*
X84763247Y-84466133D02*
X84953723Y-84418514D01*
X84953723Y-84418514D02*
X85048961Y-84370895D01*
X85048961Y-84370895D02*
X85144200Y-84275657D01*
X85144200Y-84275657D02*
X85191819Y-84132800D01*
X85191819Y-84132800D02*
X85191819Y-83894705D01*
X85191819Y-85418514D02*
X85191819Y-84847086D01*
X85191819Y-85132800D02*
X84191819Y-85132800D01*
X84191819Y-85132800D02*
X84334676Y-85037562D01*
X84334676Y-85037562D02*
X84429914Y-84942324D01*
X84429914Y-84942324D02*
X84477533Y-84847086D01*
%TO.C,D2*%
X93105000Y-72314000D02*
X93105000Y-75514000D01*
X93104998Y-72314001D02*
G75*
G03*
X93104998Y-75513999I-2099998J-1599999D01*
G01*
D11*
%TO.C,D1*%
X87345000Y-87712000D02*
X86925000Y-88132000D01*
X86925000Y-88132000D02*
X87265000Y-88452000D01*
X87265000Y-88452000D02*
X87665000Y-88032000D01*
D10*
X95455000Y-84582000D02*
G75*
G03*
X95455000Y-84582000I-4650000J0D01*
G01*
%TD*%
M02*
