%TF.GenerationSoftware,KiCad,Pcbnew,7.0.7*%
%TF.CreationDate,2023-11-07T19:30:10-06:00*%
%TF.ProjectId,LD_Breakout,4c445f42-7265-4616-9b6f-75742e6b6963,rev?*%
%TF.SameCoordinates,Original*%
%TF.FileFunction,Copper,L1,Top*%
%TF.FilePolarity,Positive*%
%FSLAX46Y46*%
G04 Gerber Fmt 4.6, Leading zero omitted, Abs format (unit mm)*
G04 Created by KiCad (PCBNEW 7.0.7) date 2023-11-07 19:30:10*
%MOMM*%
%LPD*%
G01*
G04 APERTURE LIST*
G04 Aperture macros list*
%AMRoundRect*
0 Rectangle with rounded corners*
0 $1 Rounding radius*
0 $2 $3 $4 $5 $6 $7 $8 $9 X,Y pos of 4 corners*
0 Add a 4 corners polygon primitive as box body*
4,1,4,$2,$3,$4,$5,$6,$7,$8,$9,$2,$3,0*
0 Add four circle primitives for the rounded corners*
1,1,$1+$1,$2,$3*
1,1,$1+$1,$4,$5*
1,1,$1+$1,$6,$7*
1,1,$1+$1,$8,$9*
0 Add four rect primitives between the rounded corners*
20,1,$1+$1,$2,$3,$4,$5,0*
20,1,$1+$1,$4,$5,$6,$7,0*
20,1,$1+$1,$6,$7,$8,$9,0*
20,1,$1+$1,$8,$9,$2,$3,0*%
G04 Aperture macros list end*
%TA.AperFunction,ComponentPad*%
%ADD10C,1.524000*%
%TD*%
%TA.AperFunction,SMDPad,CuDef*%
%ADD11RoundRect,0.237500X-0.250000X-0.237500X0.250000X-0.237500X0.250000X0.237500X-0.250000X0.237500X0*%
%TD*%
%TA.AperFunction,SMDPad,CuDef*%
%ADD12RoundRect,0.237500X0.250000X0.237500X-0.250000X0.237500X-0.250000X-0.237500X0.250000X-0.237500X0*%
%TD*%
%TA.AperFunction,SMDPad,CuDef*%
%ADD13RoundRect,0.237500X0.287500X0.237500X-0.287500X0.237500X-0.287500X-0.237500X0.287500X-0.237500X0*%
%TD*%
%TA.AperFunction,ComponentPad*%
%ADD14C,0.850000*%
%TD*%
%TA.AperFunction,Conductor*%
%ADD15C,0.254000*%
%TD*%
G04 APERTURE END LIST*
D10*
%TO.P,Conn2,1*%
%TO.N,+5V*%
X133477000Y-83834000D03*
%TO.P,Conn2,2*%
%TO.N,GND*%
X130937000Y-83834000D03*
%TD*%
D11*
%TO.P,R3,1*%
%TO.N,+5V*%
X129897500Y-72491600D03*
%TO.P,R3,2*%
%TO.N,Net-(D2-A)*%
X131722500Y-72491600D03*
%TD*%
D12*
%TO.P,R4,1*%
%TO.N,+5V*%
X137324500Y-78627000D03*
%TO.P,R4,2*%
%TO.N,Net-(LD2-Pad2)*%
X135499500Y-78627000D03*
%TD*%
D13*
%TO.P,D2,1,K*%
%TO.N,GND*%
X135584500Y-72491600D03*
%TO.P,D2,2,A*%
%TO.N,Net-(D2-A)*%
X133834500Y-72491600D03*
%TD*%
D14*
%TO.P,LD2,1*%
%TO.N,GND*%
X132461000Y-77627000D03*
%TO.P,LD2,2*%
%TO.N,Net-(LD2-Pad2)*%
X133461000Y-78627000D03*
%TO.P,LD2,3*%
%TO.N,unconnected-(LD2-Pad3)*%
X132461000Y-79627000D03*
%TD*%
D15*
%TO.N,+5V*%
X133477000Y-82437000D02*
X137287000Y-78627000D01*
X131685000Y-82042000D02*
X130200400Y-82042000D01*
X130200400Y-82042000D02*
X128524000Y-80365600D01*
X128524000Y-73865100D02*
X129897500Y-72491600D01*
X133477000Y-83834000D02*
X133477000Y-82437000D01*
X128524000Y-80365600D02*
X128524000Y-73865100D01*
X133477000Y-83834000D02*
X131685000Y-82042000D01*
%TO.N,Net-(D2-A)*%
X131722500Y-72491600D02*
X133834500Y-72491600D01*
%TO.N,Net-(LD2-Pad2)*%
X135537000Y-78627000D02*
X133461000Y-78627000D01*
%TD*%
%TA.AperFunction,Conductor*%
%TO.N,GND*%
G36*
X140419666Y-69387585D02*
G01*
X140465421Y-69440389D01*
X140475365Y-69509547D01*
X140446340Y-69573103D01*
X140395037Y-69608422D01*
X140034149Y-69739774D01*
X139676791Y-69911869D01*
X139338353Y-70118684D01*
X139338342Y-70118692D01*
X139022175Y-70358180D01*
X139022172Y-70358182D01*
X138731413Y-70627968D01*
X138468965Y-70925359D01*
X138237439Y-71247393D01*
X138237426Y-71247413D01*
X138039116Y-71590896D01*
X137875982Y-71952437D01*
X137749659Y-72328419D01*
X137661399Y-72715111D01*
X137612078Y-73108681D01*
X137602190Y-73505173D01*
X137602190Y-73505187D01*
X137631830Y-73900711D01*
X137631831Y-73900724D01*
X137700708Y-74291339D01*
X137808130Y-74673137D01*
X137808134Y-74673151D01*
X137953035Y-75042353D01*
X137953040Y-75042365D01*
X138133986Y-75395314D01*
X138133991Y-75395323D01*
X138349186Y-75728509D01*
X138475291Y-75886640D01*
X138596495Y-76038625D01*
X138873423Y-76322544D01*
X138873433Y-76322554D01*
X139177276Y-76577508D01*
X139504994Y-76800942D01*
X139853330Y-76990636D01*
X140218823Y-77144704D01*
X140218832Y-77144706D01*
X140218838Y-77144709D01*
X140597835Y-77261614D01*
X140597848Y-77261617D01*
X140986599Y-77340205D01*
X140986614Y-77340208D01*
X141324900Y-77374058D01*
X141381280Y-77379700D01*
X141381281Y-77379700D01*
X141678703Y-77379700D01*
X141876730Y-77369816D01*
X141975745Y-77364875D01*
X142367953Y-77305759D01*
X142752326Y-77207886D01*
X143125045Y-77072228D01*
X143482403Y-76900133D01*
X143820851Y-76693312D01*
X144137024Y-76453820D01*
X144427781Y-76184037D01*
X144690231Y-75886645D01*
X144921766Y-75564600D01*
X145120085Y-75221101D01*
X145283217Y-74859563D01*
X145350757Y-74658539D01*
X145390768Y-74601260D01*
X145455394Y-74574705D01*
X145524118Y-74587306D01*
X145575121Y-74635061D01*
X145592300Y-74698032D01*
X145592300Y-82512438D01*
X145572615Y-82579477D01*
X145519811Y-82625232D01*
X145450653Y-82635176D01*
X145387097Y-82606151D01*
X145353069Y-82555389D01*
X145352197Y-82555732D01*
X145206164Y-82183646D01*
X145206159Y-82183634D01*
X145067463Y-81913097D01*
X145025209Y-81830677D01*
X144810014Y-81497491D01*
X144562714Y-81187386D01*
X144562711Y-81187383D01*
X144562704Y-81187374D01*
X144285776Y-80903455D01*
X144285773Y-80903452D01*
X144285772Y-80903451D01*
X144285767Y-80903446D01*
X143981924Y-80648492D01*
X143825330Y-80541728D01*
X143654205Y-80425057D01*
X143513795Y-80348594D01*
X143305870Y-80235364D01*
X143305862Y-80235360D01*
X143305859Y-80235359D01*
X142940377Y-80081296D01*
X142940361Y-80081290D01*
X142561364Y-79964385D01*
X142561351Y-79964382D01*
X142172600Y-79885794D01*
X142172579Y-79885791D01*
X141777920Y-79846300D01*
X141777919Y-79846300D01*
X141480499Y-79846300D01*
X141480497Y-79846300D01*
X141183455Y-79861124D01*
X140791247Y-79920241D01*
X140406872Y-80018114D01*
X140034149Y-80153774D01*
X139676791Y-80325869D01*
X139338353Y-80532684D01*
X139338342Y-80532692D01*
X139022175Y-80772180D01*
X139022172Y-80772182D01*
X138731413Y-81041968D01*
X138468965Y-81339359D01*
X138237439Y-81661393D01*
X138237426Y-81661413D01*
X138039116Y-82004896D01*
X137875982Y-82366437D01*
X137749659Y-82742419D01*
X137661399Y-83129111D01*
X137612078Y-83522681D01*
X137602190Y-83919173D01*
X137602190Y-83919187D01*
X137631830Y-84314711D01*
X137631831Y-84314724D01*
X137700708Y-84705339D01*
X137808130Y-85087137D01*
X137808134Y-85087151D01*
X137953035Y-85456353D01*
X137953040Y-85456365D01*
X138049880Y-85645258D01*
X138133991Y-85809323D01*
X138349186Y-86142509D01*
X138414914Y-86224929D01*
X138596495Y-86452625D01*
X138873423Y-86736544D01*
X138873433Y-86736554D01*
X139177276Y-86991508D01*
X139504994Y-87214942D01*
X139853330Y-87404636D01*
X140218823Y-87558704D01*
X140218832Y-87558706D01*
X140218838Y-87558709D01*
X140531035Y-87655009D01*
X140589294Y-87693579D01*
X140617451Y-87757524D01*
X140606568Y-87826541D01*
X140560100Y-87878717D01*
X140494485Y-87897500D01*
X124579749Y-87897500D01*
X124512710Y-87877815D01*
X124466955Y-87825011D01*
X124457011Y-87755853D01*
X124486036Y-87692297D01*
X124537339Y-87656978D01*
X124542749Y-87655009D01*
X124780025Y-87568648D01*
X125137383Y-87396553D01*
X125475831Y-87189732D01*
X125792004Y-86950240D01*
X126082761Y-86680457D01*
X126345211Y-86383065D01*
X126576746Y-86061020D01*
X126775065Y-85717521D01*
X126938197Y-85355983D01*
X127064521Y-84979998D01*
X127152781Y-84593305D01*
X127202101Y-84199745D01*
X127205110Y-84079066D01*
X127211989Y-83803246D01*
X127211989Y-83803230D01*
X127190965Y-83522675D01*
X127182349Y-83407700D01*
X127113473Y-83017088D01*
X127095362Y-82952719D01*
X127036193Y-82742419D01*
X127006047Y-82635274D01*
X126984148Y-82579477D01*
X126861144Y-82266066D01*
X126861139Y-82266054D01*
X126680193Y-81913105D01*
X126680189Y-81913097D01*
X126464994Y-81579911D01*
X126217694Y-81269806D01*
X126217691Y-81269803D01*
X126217684Y-81269794D01*
X125940756Y-80985875D01*
X125940753Y-80985872D01*
X125940752Y-80985871D01*
X125940747Y-80985866D01*
X125636904Y-80730912D01*
X125516010Y-80648488D01*
X125309185Y-80507477D01*
X125157836Y-80425057D01*
X125101876Y-80394583D01*
X128192712Y-80394583D01*
X128203257Y-80433935D01*
X128204428Y-80439218D01*
X128211503Y-80479340D01*
X128213232Y-80484091D01*
X128220468Y-80501559D01*
X128222606Y-80506144D01*
X128245972Y-80539514D01*
X128248879Y-80544078D01*
X128269247Y-80579357D01*
X128269251Y-80579361D01*
X128300463Y-80605551D01*
X128304442Y-80609196D01*
X129608331Y-81913086D01*
X129956791Y-82261546D01*
X129960446Y-82265535D01*
X129986640Y-82296750D01*
X130021916Y-82317116D01*
X130026482Y-82320025D01*
X130059855Y-82343394D01*
X130064458Y-82345540D01*
X130081882Y-82352757D01*
X130086654Y-82354493D01*
X130086661Y-82354497D01*
X130126801Y-82361574D01*
X130132055Y-82362739D01*
X130171416Y-82373287D01*
X130212001Y-82369735D01*
X130217405Y-82369500D01*
X131497984Y-82369500D01*
X131565023Y-82389185D01*
X131585665Y-82405819D01*
X132544935Y-83365090D01*
X132578420Y-83426413D01*
X132575915Y-83488765D01*
X132528426Y-83645317D01*
X132509843Y-83833999D01*
X132528426Y-84022681D01*
X132528427Y-84022683D01*
X132583463Y-84204115D01*
X132583464Y-84204118D01*
X132583465Y-84204119D01*
X132583466Y-84204122D01*
X132672834Y-84371318D01*
X132672838Y-84371325D01*
X132793116Y-84517883D01*
X132939674Y-84638161D01*
X132939681Y-84638165D01*
X133106877Y-84727533D01*
X133106878Y-84727533D01*
X133106885Y-84727537D01*
X133288317Y-84782573D01*
X133288316Y-84782573D01*
X133305233Y-84784239D01*
X133477000Y-84801157D01*
X133665683Y-84782573D01*
X133847115Y-84727537D01*
X134014324Y-84638162D01*
X134160883Y-84517883D01*
X134281162Y-84371324D01*
X134370537Y-84204115D01*
X134425573Y-84022683D01*
X134444157Y-83834000D01*
X134425573Y-83645317D01*
X134370537Y-83463885D01*
X134281162Y-83296676D01*
X134281161Y-83296674D01*
X134160883Y-83150116D01*
X134014325Y-83029838D01*
X134014318Y-83029833D01*
X133870047Y-82952719D01*
X133820202Y-82903757D01*
X133804500Y-82843362D01*
X133804500Y-82742419D01*
X133804500Y-82624013D01*
X133824183Y-82556977D01*
X133840813Y-82536340D01*
X137038335Y-79338819D01*
X137099659Y-79305334D01*
X137126017Y-79302500D01*
X137627260Y-79302500D01*
X137656849Y-79299725D01*
X137714379Y-79279594D01*
X137781475Y-79256116D01*
X137887711Y-79177711D01*
X137966116Y-79071475D01*
X138009725Y-78946849D01*
X138012500Y-78917256D01*
X138012500Y-78336744D01*
X138012259Y-78334179D01*
X138009725Y-78307150D01*
X137975440Y-78209171D01*
X137966116Y-78182525D01*
X137887711Y-78076289D01*
X137887710Y-78076288D01*
X137781476Y-77997884D01*
X137656848Y-77954274D01*
X137656849Y-77954274D01*
X137627260Y-77951500D01*
X137627256Y-77951500D01*
X137021744Y-77951500D01*
X137021740Y-77951500D01*
X136992150Y-77954274D01*
X136867523Y-77997884D01*
X136761289Y-78076288D01*
X136761288Y-78076289D01*
X136682884Y-78182523D01*
X136639274Y-78307150D01*
X136636500Y-78336739D01*
X136636500Y-78762983D01*
X136616815Y-78830022D01*
X136600181Y-78850664D01*
X136394582Y-79056262D01*
X136333259Y-79089747D01*
X136263567Y-79084763D01*
X136207634Y-79042891D01*
X136183217Y-78977427D01*
X136184874Y-78954442D01*
X136184021Y-78954362D01*
X136187500Y-78917260D01*
X136187500Y-78336739D01*
X136184725Y-78307150D01*
X136150440Y-78209171D01*
X136141116Y-78182525D01*
X136062711Y-78076289D01*
X136062710Y-78076288D01*
X135956476Y-77997884D01*
X135831848Y-77954274D01*
X135831849Y-77954274D01*
X135802260Y-77951500D01*
X135802256Y-77951500D01*
X135196744Y-77951500D01*
X135196740Y-77951500D01*
X135167150Y-77954274D01*
X135042523Y-77997884D01*
X134936289Y-78076288D01*
X134936288Y-78076289D01*
X134857884Y-78182523D01*
X134857884Y-78182524D01*
X134846011Y-78216455D01*
X134805289Y-78273231D01*
X134740336Y-78298978D01*
X134728970Y-78299500D01*
X134060062Y-78299500D01*
X133993023Y-78279815D01*
X133958012Y-78245939D01*
X133932634Y-78209172D01*
X133932632Y-78209170D01*
X133818934Y-78108443D01*
X133684434Y-78037852D01*
X133684433Y-78037851D01*
X133684432Y-78037851D01*
X133536950Y-78001500D01*
X133536949Y-78001500D01*
X133385051Y-78001500D01*
X133385050Y-78001500D01*
X133237567Y-78037851D01*
X133103067Y-78108442D01*
X132989367Y-78209171D01*
X132903080Y-78334179D01*
X132903079Y-78334180D01*
X132849215Y-78476208D01*
X132830906Y-78626999D01*
X132849215Y-78777791D01*
X132897361Y-78904742D01*
X132902728Y-78974405D01*
X132869581Y-79035911D01*
X132808442Y-79069733D01*
X132738724Y-79065131D01*
X132723797Y-79058511D01*
X132684434Y-79037852D01*
X132684433Y-79037851D01*
X132684432Y-79037851D01*
X132536950Y-79001500D01*
X132536949Y-79001500D01*
X132385051Y-79001500D01*
X132385050Y-79001500D01*
X132237567Y-79037851D01*
X132103067Y-79108442D01*
X131989367Y-79209171D01*
X131903080Y-79334179D01*
X131903079Y-79334180D01*
X131903079Y-79334181D01*
X131849215Y-79476209D01*
X131830906Y-79627000D01*
X131849215Y-79777791D01*
X131903079Y-79919819D01*
X131989368Y-80044830D01*
X132103066Y-80145557D01*
X132237566Y-80216148D01*
X132311308Y-80234324D01*
X132385050Y-80252500D01*
X132385051Y-80252500D01*
X132536950Y-80252500D01*
X132586110Y-80240382D01*
X132684434Y-80216148D01*
X132818934Y-80145557D01*
X132932632Y-80044830D01*
X133018921Y-79919819D01*
X133072785Y-79777791D01*
X133091094Y-79627000D01*
X133072785Y-79476209D01*
X133024637Y-79349254D01*
X133019271Y-79279594D01*
X133052418Y-79218088D01*
X133113556Y-79184267D01*
X133183274Y-79188868D01*
X133198202Y-79195488D01*
X133237566Y-79216148D01*
X133385050Y-79252500D01*
X133385051Y-79252500D01*
X133536950Y-79252500D01*
X133586110Y-79240382D01*
X133684434Y-79216148D01*
X133818934Y-79145557D01*
X133932632Y-79044830D01*
X133958011Y-79008061D01*
X134012294Y-78964070D01*
X134060062Y-78954500D01*
X134728970Y-78954500D01*
X134796009Y-78974185D01*
X134841764Y-79026989D01*
X134846011Y-79037545D01*
X134857884Y-79071475D01*
X134857884Y-79071476D01*
X134936288Y-79177710D01*
X134936289Y-79177711D01*
X135042523Y-79256115D01*
X135042524Y-79256115D01*
X135042525Y-79256116D01*
X135167151Y-79299725D01*
X135167150Y-79299725D01*
X135196740Y-79302500D01*
X135196744Y-79302500D01*
X135802260Y-79302500D01*
X135839362Y-79299021D01*
X135839608Y-79301647D01*
X135896777Y-79305668D01*
X135952760Y-79347473D01*
X135977255Y-79412909D01*
X135962483Y-79481199D01*
X135941262Y-79509582D01*
X133257451Y-82193393D01*
X133253462Y-82197049D01*
X133222250Y-82223239D01*
X133222248Y-82223241D01*
X133201876Y-82258526D01*
X133198971Y-82263087D01*
X133175604Y-82296459D01*
X133173473Y-82301028D01*
X133166225Y-82318528D01*
X133164502Y-82323264D01*
X133157427Y-82363383D01*
X133156256Y-82368662D01*
X133145712Y-82408016D01*
X133149264Y-82448598D01*
X133149500Y-82454005D01*
X133149500Y-82743983D01*
X133129815Y-82811022D01*
X133077011Y-82856777D01*
X133007853Y-82866721D01*
X132944297Y-82837696D01*
X132937819Y-82831664D01*
X132685632Y-82579477D01*
X131928596Y-81822442D01*
X131924951Y-81818463D01*
X131898761Y-81787251D01*
X131898757Y-81787247D01*
X131863478Y-81766879D01*
X131858914Y-81763972D01*
X131825544Y-81740606D01*
X131820959Y-81738468D01*
X131803491Y-81731232D01*
X131798740Y-81729503D01*
X131758618Y-81722428D01*
X131753335Y-81721257D01*
X131713981Y-81710712D01*
X131677891Y-81713871D01*
X131673398Y-81714264D01*
X131667995Y-81714500D01*
X130387417Y-81714500D01*
X130320378Y-81694815D01*
X130299736Y-81678181D01*
X128887819Y-80266264D01*
X128854334Y-80204941D01*
X128851500Y-80178583D01*
X128851500Y-77144703D01*
X128851500Y-74052112D01*
X128871184Y-73985077D01*
X128887813Y-73964440D01*
X129648835Y-73203419D01*
X129710159Y-73169934D01*
X129736517Y-73167100D01*
X130200260Y-73167100D01*
X130229849Y-73164325D01*
X130229848Y-73164325D01*
X130354475Y-73120716D01*
X130460711Y-73042311D01*
X130539116Y-72936075D01*
X130582725Y-72811449D01*
X130585500Y-72781860D01*
X131034500Y-72781860D01*
X131037274Y-72811449D01*
X131080884Y-72936076D01*
X131159288Y-73042310D01*
X131159289Y-73042311D01*
X131265523Y-73120715D01*
X131265524Y-73120715D01*
X131265525Y-73120716D01*
X131390151Y-73164325D01*
X131390150Y-73164325D01*
X131419740Y-73167100D01*
X131419744Y-73167100D01*
X132025260Y-73167100D01*
X132054849Y-73164325D01*
X132179475Y-73120716D01*
X132285711Y-73042311D01*
X132364116Y-72936075D01*
X132375988Y-72902145D01*
X132416711Y-72845369D01*
X132481664Y-72819622D01*
X132493030Y-72819100D01*
X133026470Y-72819100D01*
X133093509Y-72838785D01*
X133139264Y-72891589D01*
X133143511Y-72902145D01*
X133155384Y-72936075D01*
X133155384Y-72936076D01*
X133233788Y-73042310D01*
X133233789Y-73042311D01*
X133340023Y-73120715D01*
X133340024Y-73120715D01*
X133340025Y-73120716D01*
X133464651Y-73164325D01*
X133464650Y-73164325D01*
X133494240Y-73167100D01*
X133494244Y-73167100D01*
X134174760Y-73167100D01*
X134204349Y-73164325D01*
X134328975Y-73120716D01*
X134435211Y-73042311D01*
X134513616Y-72936075D01*
X134557225Y-72811449D01*
X134560000Y-72781856D01*
X134560000Y-72201344D01*
X134557225Y-72171751D01*
X134513616Y-72047125D01*
X134435211Y-71940889D01*
X134435210Y-71940888D01*
X134328976Y-71862484D01*
X134204348Y-71818874D01*
X134204349Y-71818874D01*
X134174760Y-71816100D01*
X134174756Y-71816100D01*
X133494244Y-71816100D01*
X133494240Y-71816100D01*
X133464650Y-71818874D01*
X133340023Y-71862484D01*
X133233789Y-71940888D01*
X133233788Y-71940889D01*
X133155384Y-72047123D01*
X133155384Y-72047124D01*
X133143511Y-72081055D01*
X133102789Y-72137831D01*
X133037836Y-72163578D01*
X133026470Y-72164100D01*
X132493030Y-72164100D01*
X132425991Y-72144415D01*
X132380236Y-72091611D01*
X132375989Y-72081055D01*
X132373379Y-72073599D01*
X132364116Y-72047125D01*
X132285711Y-71940889D01*
X132285710Y-71940888D01*
X132179476Y-71862484D01*
X132054848Y-71818874D01*
X132054849Y-71818874D01*
X132025260Y-71816100D01*
X132025256Y-71816100D01*
X131419744Y-71816100D01*
X131419740Y-71816100D01*
X131390150Y-71818874D01*
X131265523Y-71862484D01*
X131159289Y-71940888D01*
X131159288Y-71940889D01*
X131080884Y-72047123D01*
X131037274Y-72171750D01*
X131034500Y-72201339D01*
X131034500Y-72781860D01*
X130585500Y-72781860D01*
X130585500Y-72781856D01*
X130585500Y-72201344D01*
X130582725Y-72171751D01*
X130539116Y-72047125D01*
X130460711Y-71940889D01*
X130460710Y-71940888D01*
X130354476Y-71862484D01*
X130229848Y-71818874D01*
X130229849Y-71818874D01*
X130200260Y-71816100D01*
X130200256Y-71816100D01*
X129594744Y-71816100D01*
X129594740Y-71816100D01*
X129565150Y-71818874D01*
X129440523Y-71862484D01*
X129334289Y-71940888D01*
X129334288Y-71940889D01*
X129255884Y-72047123D01*
X129212274Y-72171750D01*
X129209500Y-72201339D01*
X129209500Y-72665083D01*
X129189815Y-72732122D01*
X129173181Y-72752764D01*
X128304451Y-73621493D01*
X128300462Y-73625149D01*
X128269250Y-73651339D01*
X128269248Y-73651341D01*
X128248876Y-73686626D01*
X128245971Y-73691187D01*
X128222604Y-73724559D01*
X128220473Y-73729128D01*
X128213225Y-73746628D01*
X128211502Y-73751364D01*
X128204427Y-73791483D01*
X128203256Y-73796762D01*
X128192712Y-73836116D01*
X128196264Y-73876698D01*
X128196500Y-73882105D01*
X128196500Y-80348594D01*
X128196264Y-80354001D01*
X128192712Y-80394583D01*
X125101876Y-80394583D01*
X124960850Y-80317784D01*
X124960842Y-80317780D01*
X124960839Y-80317779D01*
X124595357Y-80163716D01*
X124595341Y-80163710D01*
X124216344Y-80046805D01*
X124216331Y-80046802D01*
X123827580Y-79968214D01*
X123827559Y-79968211D01*
X123432900Y-79928720D01*
X123432899Y-79928720D01*
X123135479Y-79928720D01*
X123135477Y-79928720D01*
X122838435Y-79943544D01*
X122446227Y-80002661D01*
X122061852Y-80100534D01*
X121689129Y-80236194D01*
X121331771Y-80408289D01*
X120993333Y-80615104D01*
X120993322Y-80615112D01*
X120677155Y-80854600D01*
X120677152Y-80854602D01*
X120386393Y-81124388D01*
X120123945Y-81421779D01*
X119892419Y-81743813D01*
X119892406Y-81743833D01*
X119694096Y-82087316D01*
X119530963Y-82448855D01*
X119495042Y-82555768D01*
X119455030Y-82613047D01*
X119390404Y-82639602D01*
X119321680Y-82627001D01*
X119270678Y-82579245D01*
X119253499Y-82516278D01*
X119253500Y-74624032D01*
X119273185Y-74556993D01*
X119325989Y-74511238D01*
X119395147Y-74501294D01*
X119458703Y-74530319D01*
X119496477Y-74589097D01*
X119496865Y-74590448D01*
X119520130Y-74673138D01*
X119520134Y-74673151D01*
X119665035Y-75042353D01*
X119665040Y-75042365D01*
X119845986Y-75395314D01*
X119845991Y-75395323D01*
X120061186Y-75728509D01*
X120187291Y-75886640D01*
X120308495Y-76038625D01*
X120585423Y-76322544D01*
X120585433Y-76322554D01*
X120889276Y-76577508D01*
X121216994Y-76800942D01*
X121565330Y-76990636D01*
X121930823Y-77144704D01*
X121930832Y-77144706D01*
X121930838Y-77144709D01*
X122309835Y-77261614D01*
X122309848Y-77261617D01*
X122698599Y-77340205D01*
X122698614Y-77340208D01*
X123036900Y-77374058D01*
X123093280Y-77379700D01*
X123093281Y-77379700D01*
X123390703Y-77379700D01*
X123588730Y-77369816D01*
X123687745Y-77364875D01*
X124079953Y-77305759D01*
X124464326Y-77207886D01*
X124837045Y-77072228D01*
X125194403Y-76900133D01*
X125532851Y-76693312D01*
X125849024Y-76453820D01*
X126139781Y-76184037D01*
X126402231Y-75886645D01*
X126633766Y-75564600D01*
X126832085Y-75221101D01*
X126995217Y-74859563D01*
X127121541Y-74483578D01*
X127209801Y-74096885D01*
X127259121Y-73703325D01*
X127269009Y-73306810D01*
X127239369Y-72911280D01*
X127170493Y-72520668D01*
X127063067Y-72138854D01*
X127027065Y-72047123D01*
X126918164Y-71769646D01*
X126918159Y-71769634D01*
X126737213Y-71416685D01*
X126737209Y-71416677D01*
X126522014Y-71083491D01*
X126274714Y-70773386D01*
X126274711Y-70773383D01*
X126274704Y-70773374D01*
X125997776Y-70489455D01*
X125997773Y-70489452D01*
X125997772Y-70489451D01*
X125997767Y-70489446D01*
X125693924Y-70234492D01*
X125621213Y-70184918D01*
X125366205Y-70011057D01*
X125250094Y-69947826D01*
X125017870Y-69821364D01*
X125017862Y-69821360D01*
X125017859Y-69821359D01*
X124652377Y-69667296D01*
X124652361Y-69667290D01*
X124467897Y-69610391D01*
X124409638Y-69571821D01*
X124381481Y-69507876D01*
X124392364Y-69438859D01*
X124438832Y-69386683D01*
X124504447Y-69367900D01*
X140352627Y-69367900D01*
X140419666Y-69387585D01*
G37*
%TD.AperFunction*%
%TD*%
M02*
