%TF.GenerationSoftware,KiCad,Pcbnew,7.0.7*%
%TF.CreationDate,2023-11-07T19:30:11-06:00*%
%TF.ProjectId,LD_Breakout,4c445f42-7265-4616-9b6f-75742e6b6963,rev?*%
%TF.SameCoordinates,Original*%
%TF.FileFunction,Legend,Bot*%
%TF.FilePolarity,Positive*%
%FSLAX46Y46*%
G04 Gerber Fmt 4.6, Leading zero omitted, Abs format (unit mm)*
G04 Created by KiCad (PCBNEW 7.0.7) date 2023-11-07 19:30:11*
%MOMM*%
%LPD*%
G01*
G04 APERTURE LIST*
%ADD10C,0.150000*%
%ADD11C,0.095250*%
%ADD12C,0.100000*%
G04 APERTURE END LIST*
D10*
X136757725Y-85810938D02*
X136757725Y-85175938D01*
X136757725Y-85175938D02*
X136606535Y-85175938D01*
X136606535Y-85175938D02*
X136515820Y-85206176D01*
X136515820Y-85206176D02*
X136455344Y-85266652D01*
X136455344Y-85266652D02*
X136425106Y-85327128D01*
X136425106Y-85327128D02*
X136394868Y-85448080D01*
X136394868Y-85448080D02*
X136394868Y-85538795D01*
X136394868Y-85538795D02*
X136425106Y-85659747D01*
X136425106Y-85659747D02*
X136455344Y-85720223D01*
X136455344Y-85720223D02*
X136515820Y-85780700D01*
X136515820Y-85780700D02*
X136606535Y-85810938D01*
X136606535Y-85810938D02*
X136757725Y-85810938D01*
X136122725Y-85810938D02*
X136122725Y-85387604D01*
X136122725Y-85508557D02*
X136092487Y-85448080D01*
X136092487Y-85448080D02*
X136062249Y-85417842D01*
X136062249Y-85417842D02*
X136001773Y-85387604D01*
X136001773Y-85387604D02*
X135941296Y-85387604D01*
X135487725Y-85780700D02*
X135548201Y-85810938D01*
X135548201Y-85810938D02*
X135669154Y-85810938D01*
X135669154Y-85810938D02*
X135729630Y-85780700D01*
X135729630Y-85780700D02*
X135759868Y-85720223D01*
X135759868Y-85720223D02*
X135759868Y-85478319D01*
X135759868Y-85478319D02*
X135729630Y-85417842D01*
X135729630Y-85417842D02*
X135669154Y-85387604D01*
X135669154Y-85387604D02*
X135548201Y-85387604D01*
X135548201Y-85387604D02*
X135487725Y-85417842D01*
X135487725Y-85417842D02*
X135457487Y-85478319D01*
X135457487Y-85478319D02*
X135457487Y-85538795D01*
X135457487Y-85538795D02*
X135759868Y-85599271D01*
X135245820Y-85387604D02*
X135124868Y-85810938D01*
X135124868Y-85810938D02*
X135003915Y-85508557D01*
X135003915Y-85508557D02*
X134882963Y-85810938D01*
X134882963Y-85810938D02*
X134762011Y-85387604D01*
X134096772Y-85175938D02*
X133945582Y-85810938D01*
X133945582Y-85810938D02*
X133824629Y-85357366D01*
X133824629Y-85357366D02*
X133703677Y-85810938D01*
X133703677Y-85810938D02*
X133552487Y-85175938D01*
X133310582Y-85750461D02*
X133280344Y-85780700D01*
X133280344Y-85780700D02*
X133310582Y-85810938D01*
X133310582Y-85810938D02*
X133340820Y-85780700D01*
X133340820Y-85780700D02*
X133310582Y-85750461D01*
X133310582Y-85750461D02*
X133310582Y-85810938D01*
X136787963Y-86651859D02*
X136485582Y-86651859D01*
X136848439Y-86833288D02*
X136636773Y-86198288D01*
X136636773Y-86198288D02*
X136425106Y-86833288D01*
X135941296Y-86833288D02*
X135941296Y-86198288D01*
X135941296Y-86803050D02*
X136001772Y-86833288D01*
X136001772Y-86833288D02*
X136122725Y-86833288D01*
X136122725Y-86833288D02*
X136183201Y-86803050D01*
X136183201Y-86803050D02*
X136213439Y-86772811D01*
X136213439Y-86772811D02*
X136243677Y-86712335D01*
X136243677Y-86712335D02*
X136243677Y-86530907D01*
X136243677Y-86530907D02*
X136213439Y-86470430D01*
X136213439Y-86470430D02*
X136183201Y-86440192D01*
X136183201Y-86440192D02*
X136122725Y-86409954D01*
X136122725Y-86409954D02*
X136001772Y-86409954D01*
X136001772Y-86409954D02*
X135941296Y-86440192D01*
X135366772Y-86833288D02*
X135366772Y-86500669D01*
X135366772Y-86500669D02*
X135397010Y-86440192D01*
X135397010Y-86440192D02*
X135457486Y-86409954D01*
X135457486Y-86409954D02*
X135578439Y-86409954D01*
X135578439Y-86409954D02*
X135638915Y-86440192D01*
X135366772Y-86803050D02*
X135427248Y-86833288D01*
X135427248Y-86833288D02*
X135578439Y-86833288D01*
X135578439Y-86833288D02*
X135638915Y-86803050D01*
X135638915Y-86803050D02*
X135669153Y-86742573D01*
X135669153Y-86742573D02*
X135669153Y-86682097D01*
X135669153Y-86682097D02*
X135638915Y-86621621D01*
X135638915Y-86621621D02*
X135578439Y-86591383D01*
X135578439Y-86591383D02*
X135427248Y-86591383D01*
X135427248Y-86591383D02*
X135366772Y-86561145D01*
X135064391Y-86833288D02*
X135064391Y-86409954D01*
X135064391Y-86470430D02*
X135034153Y-86440192D01*
X135034153Y-86440192D02*
X134973677Y-86409954D01*
X134973677Y-86409954D02*
X134882962Y-86409954D01*
X134882962Y-86409954D02*
X134822486Y-86440192D01*
X134822486Y-86440192D02*
X134792248Y-86500669D01*
X134792248Y-86500669D02*
X134792248Y-86833288D01*
X134792248Y-86500669D02*
X134762010Y-86440192D01*
X134762010Y-86440192D02*
X134701534Y-86409954D01*
X134701534Y-86409954D02*
X134610820Y-86409954D01*
X134610820Y-86409954D02*
X134550343Y-86440192D01*
X134550343Y-86440192D02*
X134520105Y-86500669D01*
X134520105Y-86500669D02*
X134520105Y-86833288D01*
X133733914Y-86833288D02*
X133733914Y-86198288D01*
X133371057Y-86833288D02*
X133643200Y-86470430D01*
X133371057Y-86198288D02*
X133733914Y-86561145D01*
X133098914Y-86772811D02*
X133068676Y-86803050D01*
X133068676Y-86803050D02*
X133098914Y-86833288D01*
X133098914Y-86833288D02*
X133129152Y-86803050D01*
X133129152Y-86803050D02*
X133098914Y-86772811D01*
X133098914Y-86772811D02*
X133098914Y-86833288D01*
D11*
X136331707Y-71478387D02*
X136537326Y-71478387D01*
X136537326Y-71478387D02*
X136537326Y-70462387D01*
X136002717Y-71478387D02*
X136002717Y-70946197D01*
X136002717Y-70946197D02*
X136023279Y-70849435D01*
X136023279Y-70849435D02*
X136064403Y-70801054D01*
X136064403Y-70801054D02*
X136146650Y-70801054D01*
X136146650Y-70801054D02*
X136187774Y-70849435D01*
X136002717Y-71430007D02*
X136043841Y-71478387D01*
X136043841Y-71478387D02*
X136146650Y-71478387D01*
X136146650Y-71478387D02*
X136187774Y-71430007D01*
X136187774Y-71430007D02*
X136208336Y-71333245D01*
X136208336Y-71333245D02*
X136208336Y-71236483D01*
X136208336Y-71236483D02*
X136187774Y-71139721D01*
X136187774Y-71139721D02*
X136146650Y-71091340D01*
X136146650Y-71091340D02*
X136043841Y-71091340D01*
X136043841Y-71091340D02*
X136002717Y-71042959D01*
X135817660Y-71430007D02*
X135776536Y-71478387D01*
X135776536Y-71478387D02*
X135694288Y-71478387D01*
X135694288Y-71478387D02*
X135653165Y-71430007D01*
X135653165Y-71430007D02*
X135632603Y-71333245D01*
X135632603Y-71333245D02*
X135632603Y-71284864D01*
X135632603Y-71284864D02*
X135653165Y-71188102D01*
X135653165Y-71188102D02*
X135694288Y-71139721D01*
X135694288Y-71139721D02*
X135755974Y-71139721D01*
X135755974Y-71139721D02*
X135797098Y-71091340D01*
X135797098Y-71091340D02*
X135817660Y-70994578D01*
X135817660Y-70994578D02*
X135817660Y-70946197D01*
X135817660Y-70946197D02*
X135797098Y-70849435D01*
X135797098Y-70849435D02*
X135755974Y-70801054D01*
X135755974Y-70801054D02*
X135694288Y-70801054D01*
X135694288Y-70801054D02*
X135653165Y-70849435D01*
X135283051Y-71430007D02*
X135324175Y-71478387D01*
X135324175Y-71478387D02*
X135406422Y-71478387D01*
X135406422Y-71478387D02*
X135447546Y-71430007D01*
X135447546Y-71430007D02*
X135468108Y-71333245D01*
X135468108Y-71333245D02*
X135468108Y-70946197D01*
X135468108Y-70946197D02*
X135447546Y-70849435D01*
X135447546Y-70849435D02*
X135406422Y-70801054D01*
X135406422Y-70801054D02*
X135324175Y-70801054D01*
X135324175Y-70801054D02*
X135283051Y-70849435D01*
X135283051Y-70849435D02*
X135262489Y-70946197D01*
X135262489Y-70946197D02*
X135262489Y-71042959D01*
X135262489Y-71042959D02*
X135468108Y-71139721D01*
X135077432Y-71478387D02*
X135077432Y-70801054D01*
X135077432Y-70994578D02*
X135056870Y-70897816D01*
X135056870Y-70897816D02*
X135036308Y-70849435D01*
X135036308Y-70849435D02*
X134995184Y-70801054D01*
X134995184Y-70801054D02*
X134954061Y-70801054D01*
X134481137Y-71478387D02*
X134481137Y-70462387D01*
X134481137Y-70462387D02*
X134378327Y-70462387D01*
X134378327Y-70462387D02*
X134316642Y-70510768D01*
X134316642Y-70510768D02*
X134275518Y-70607530D01*
X134275518Y-70607530D02*
X134254956Y-70704292D01*
X134254956Y-70704292D02*
X134234394Y-70897816D01*
X134234394Y-70897816D02*
X134234394Y-71042959D01*
X134234394Y-71042959D02*
X134254956Y-71236483D01*
X134254956Y-71236483D02*
X134275518Y-71333245D01*
X134275518Y-71333245D02*
X134316642Y-71430007D01*
X134316642Y-71430007D02*
X134378327Y-71478387D01*
X134378327Y-71478387D02*
X134481137Y-71478387D01*
X134049337Y-71478387D02*
X134049337Y-70801054D01*
X134049337Y-70462387D02*
X134069899Y-70510768D01*
X134069899Y-70510768D02*
X134049337Y-70559149D01*
X134049337Y-70559149D02*
X134028775Y-70510768D01*
X134028775Y-70510768D02*
X134049337Y-70462387D01*
X134049337Y-70462387D02*
X134049337Y-70559149D01*
X133782032Y-71478387D02*
X133823156Y-71430007D01*
X133823156Y-71430007D02*
X133843718Y-71381626D01*
X133843718Y-71381626D02*
X133864280Y-71284864D01*
X133864280Y-71284864D02*
X133864280Y-70994578D01*
X133864280Y-70994578D02*
X133843718Y-70897816D01*
X133843718Y-70897816D02*
X133823156Y-70849435D01*
X133823156Y-70849435D02*
X133782032Y-70801054D01*
X133782032Y-70801054D02*
X133720347Y-70801054D01*
X133720347Y-70801054D02*
X133679223Y-70849435D01*
X133679223Y-70849435D02*
X133658661Y-70897816D01*
X133658661Y-70897816D02*
X133638099Y-70994578D01*
X133638099Y-70994578D02*
X133638099Y-71284864D01*
X133638099Y-71284864D02*
X133658661Y-71381626D01*
X133658661Y-71381626D02*
X133679223Y-71430007D01*
X133679223Y-71430007D02*
X133720347Y-71478387D01*
X133720347Y-71478387D02*
X133782032Y-71478387D01*
X133267985Y-71478387D02*
X133267985Y-70462387D01*
X133267985Y-71430007D02*
X133309109Y-71478387D01*
X133309109Y-71478387D02*
X133391356Y-71478387D01*
X133391356Y-71478387D02*
X133432480Y-71430007D01*
X133432480Y-71430007D02*
X133453042Y-71381626D01*
X133453042Y-71381626D02*
X133473604Y-71284864D01*
X133473604Y-71284864D02*
X133473604Y-70994578D01*
X133473604Y-70994578D02*
X133453042Y-70897816D01*
X133453042Y-70897816D02*
X133432480Y-70849435D01*
X133432480Y-70849435D02*
X133391356Y-70801054D01*
X133391356Y-70801054D02*
X133309109Y-70801054D01*
X133309109Y-70801054D02*
X133267985Y-70849435D01*
X132897871Y-71430007D02*
X132938995Y-71478387D01*
X132938995Y-71478387D02*
X133021242Y-71478387D01*
X133021242Y-71478387D02*
X133062366Y-71430007D01*
X133062366Y-71430007D02*
X133082928Y-71333245D01*
X133082928Y-71333245D02*
X133082928Y-70946197D01*
X133082928Y-70946197D02*
X133062366Y-70849435D01*
X133062366Y-70849435D02*
X133021242Y-70801054D01*
X133021242Y-70801054D02*
X132938995Y-70801054D01*
X132938995Y-70801054D02*
X132897871Y-70849435D01*
X132897871Y-70849435D02*
X132877309Y-70946197D01*
X132877309Y-70946197D02*
X132877309Y-71042959D01*
X132877309Y-71042959D02*
X133082928Y-71139721D01*
X132219329Y-70946197D02*
X132157643Y-70994578D01*
X132157643Y-70994578D02*
X132137081Y-71042959D01*
X132137081Y-71042959D02*
X132116519Y-71139721D01*
X132116519Y-71139721D02*
X132116519Y-71284864D01*
X132116519Y-71284864D02*
X132137081Y-71381626D01*
X132137081Y-71381626D02*
X132157643Y-71430007D01*
X132157643Y-71430007D02*
X132198767Y-71478387D01*
X132198767Y-71478387D02*
X132363262Y-71478387D01*
X132363262Y-71478387D02*
X132363262Y-70462387D01*
X132363262Y-70462387D02*
X132219329Y-70462387D01*
X132219329Y-70462387D02*
X132178205Y-70510768D01*
X132178205Y-70510768D02*
X132157643Y-70559149D01*
X132157643Y-70559149D02*
X132137081Y-70655911D01*
X132137081Y-70655911D02*
X132137081Y-70752673D01*
X132137081Y-70752673D02*
X132157643Y-70849435D01*
X132157643Y-70849435D02*
X132178205Y-70897816D01*
X132178205Y-70897816D02*
X132219329Y-70946197D01*
X132219329Y-70946197D02*
X132363262Y-70946197D01*
X131931462Y-71478387D02*
X131931462Y-70801054D01*
X131931462Y-70994578D02*
X131910900Y-70897816D01*
X131910900Y-70897816D02*
X131890338Y-70849435D01*
X131890338Y-70849435D02*
X131849214Y-70801054D01*
X131849214Y-70801054D02*
X131808091Y-70801054D01*
X131499662Y-71430007D02*
X131540786Y-71478387D01*
X131540786Y-71478387D02*
X131623033Y-71478387D01*
X131623033Y-71478387D02*
X131664157Y-71430007D01*
X131664157Y-71430007D02*
X131684719Y-71333245D01*
X131684719Y-71333245D02*
X131684719Y-70946197D01*
X131684719Y-70946197D02*
X131664157Y-70849435D01*
X131664157Y-70849435D02*
X131623033Y-70801054D01*
X131623033Y-70801054D02*
X131540786Y-70801054D01*
X131540786Y-70801054D02*
X131499662Y-70849435D01*
X131499662Y-70849435D02*
X131479100Y-70946197D01*
X131479100Y-70946197D02*
X131479100Y-71042959D01*
X131479100Y-71042959D02*
X131684719Y-71139721D01*
X131108986Y-71478387D02*
X131108986Y-70946197D01*
X131108986Y-70946197D02*
X131129548Y-70849435D01*
X131129548Y-70849435D02*
X131170672Y-70801054D01*
X131170672Y-70801054D02*
X131252919Y-70801054D01*
X131252919Y-70801054D02*
X131294043Y-70849435D01*
X131108986Y-71430007D02*
X131150110Y-71478387D01*
X131150110Y-71478387D02*
X131252919Y-71478387D01*
X131252919Y-71478387D02*
X131294043Y-71430007D01*
X131294043Y-71430007D02*
X131314605Y-71333245D01*
X131314605Y-71333245D02*
X131314605Y-71236483D01*
X131314605Y-71236483D02*
X131294043Y-71139721D01*
X131294043Y-71139721D02*
X131252919Y-71091340D01*
X131252919Y-71091340D02*
X131150110Y-71091340D01*
X131150110Y-71091340D02*
X131108986Y-71042959D01*
X130903367Y-71478387D02*
X130903367Y-70462387D01*
X130862243Y-71091340D02*
X130738872Y-71478387D01*
X130738872Y-70801054D02*
X130903367Y-71188102D01*
X130492129Y-71478387D02*
X130533253Y-71430007D01*
X130533253Y-71430007D02*
X130553815Y-71381626D01*
X130553815Y-71381626D02*
X130574377Y-71284864D01*
X130574377Y-71284864D02*
X130574377Y-70994578D01*
X130574377Y-70994578D02*
X130553815Y-70897816D01*
X130553815Y-70897816D02*
X130533253Y-70849435D01*
X130533253Y-70849435D02*
X130492129Y-70801054D01*
X130492129Y-70801054D02*
X130430444Y-70801054D01*
X130430444Y-70801054D02*
X130389320Y-70849435D01*
X130389320Y-70849435D02*
X130368758Y-70897816D01*
X130368758Y-70897816D02*
X130348196Y-70994578D01*
X130348196Y-70994578D02*
X130348196Y-71284864D01*
X130348196Y-71284864D02*
X130368758Y-71381626D01*
X130368758Y-71381626D02*
X130389320Y-71430007D01*
X130389320Y-71430007D02*
X130430444Y-71478387D01*
X130430444Y-71478387D02*
X130492129Y-71478387D01*
X129978082Y-70801054D02*
X129978082Y-71478387D01*
X130163139Y-70801054D02*
X130163139Y-71333245D01*
X130163139Y-71333245D02*
X130142577Y-71430007D01*
X130142577Y-71430007D02*
X130101453Y-71478387D01*
X130101453Y-71478387D02*
X130039768Y-71478387D01*
X130039768Y-71478387D02*
X129998644Y-71430007D01*
X129998644Y-71430007D02*
X129978082Y-71381626D01*
X129834149Y-70801054D02*
X129669653Y-70801054D01*
X129772463Y-70462387D02*
X129772463Y-71333245D01*
X129772463Y-71333245D02*
X129751901Y-71430007D01*
X129751901Y-71430007D02*
X129710777Y-71478387D01*
X129710777Y-71478387D02*
X129669653Y-71478387D01*
X129505158Y-71430007D02*
X129505158Y-71478387D01*
X129505158Y-71478387D02*
X129525720Y-71575149D01*
X129525720Y-71575149D02*
X129546282Y-71623530D01*
X128744368Y-71478387D02*
X128888301Y-70994578D01*
X128991111Y-71478387D02*
X128991111Y-70462387D01*
X128991111Y-70462387D02*
X128826616Y-70462387D01*
X128826616Y-70462387D02*
X128785492Y-70510768D01*
X128785492Y-70510768D02*
X128764930Y-70559149D01*
X128764930Y-70559149D02*
X128744368Y-70655911D01*
X128744368Y-70655911D02*
X128744368Y-70801054D01*
X128744368Y-70801054D02*
X128764930Y-70897816D01*
X128764930Y-70897816D02*
X128785492Y-70946197D01*
X128785492Y-70946197D02*
X128826616Y-70994578D01*
X128826616Y-70994578D02*
X128991111Y-70994578D01*
X128394816Y-71430007D02*
X128435940Y-71478387D01*
X128435940Y-71478387D02*
X128518187Y-71478387D01*
X128518187Y-71478387D02*
X128559311Y-71430007D01*
X128559311Y-71430007D02*
X128579873Y-71333245D01*
X128579873Y-71333245D02*
X128579873Y-70946197D01*
X128579873Y-70946197D02*
X128559311Y-70849435D01*
X128559311Y-70849435D02*
X128518187Y-70801054D01*
X128518187Y-70801054D02*
X128435940Y-70801054D01*
X128435940Y-70801054D02*
X128394816Y-70849435D01*
X128394816Y-70849435D02*
X128374254Y-70946197D01*
X128374254Y-70946197D02*
X128374254Y-71042959D01*
X128374254Y-71042959D02*
X128579873Y-71139721D01*
X128230321Y-70801054D02*
X128127511Y-71478387D01*
X128127511Y-71478387D02*
X128024702Y-70801054D01*
X127634026Y-71478387D02*
X127880769Y-71478387D01*
X127757397Y-71478387D02*
X127757397Y-70462387D01*
X127757397Y-70462387D02*
X127798521Y-70607530D01*
X127798521Y-70607530D02*
X127839645Y-70704292D01*
X127839645Y-70704292D02*
X127880769Y-70752673D01*
X136537326Y-73114147D02*
X136537326Y-72098147D01*
X136537326Y-72098147D02*
X136393393Y-72823862D01*
X136393393Y-72823862D02*
X136249459Y-72098147D01*
X136249459Y-72098147D02*
X136249459Y-73114147D01*
X135858783Y-73114147D02*
X135858783Y-72581957D01*
X135858783Y-72581957D02*
X135879345Y-72485195D01*
X135879345Y-72485195D02*
X135920469Y-72436814D01*
X135920469Y-72436814D02*
X136002716Y-72436814D01*
X136002716Y-72436814D02*
X136043840Y-72485195D01*
X135858783Y-73065767D02*
X135899907Y-73114147D01*
X135899907Y-73114147D02*
X136002716Y-73114147D01*
X136002716Y-73114147D02*
X136043840Y-73065767D01*
X136043840Y-73065767D02*
X136064402Y-72969005D01*
X136064402Y-72969005D02*
X136064402Y-72872243D01*
X136064402Y-72872243D02*
X136043840Y-72775481D01*
X136043840Y-72775481D02*
X136002716Y-72727100D01*
X136002716Y-72727100D02*
X135899907Y-72727100D01*
X135899907Y-72727100D02*
X135858783Y-72678719D01*
X135653164Y-73114147D02*
X135653164Y-72436814D01*
X135653164Y-72630338D02*
X135632602Y-72533576D01*
X135632602Y-72533576D02*
X135612040Y-72485195D01*
X135612040Y-72485195D02*
X135570916Y-72436814D01*
X135570916Y-72436814D02*
X135529793Y-72436814D01*
X135406421Y-73065767D02*
X135365297Y-73114147D01*
X135365297Y-73114147D02*
X135283049Y-73114147D01*
X135283049Y-73114147D02*
X135241926Y-73065767D01*
X135241926Y-73065767D02*
X135221364Y-72969005D01*
X135221364Y-72969005D02*
X135221364Y-72920624D01*
X135221364Y-72920624D02*
X135241926Y-72823862D01*
X135241926Y-72823862D02*
X135283049Y-72775481D01*
X135283049Y-72775481D02*
X135344735Y-72775481D01*
X135344735Y-72775481D02*
X135385859Y-72727100D01*
X135385859Y-72727100D02*
X135406421Y-72630338D01*
X135406421Y-72630338D02*
X135406421Y-72581957D01*
X135406421Y-72581957D02*
X135385859Y-72485195D01*
X135385859Y-72485195D02*
X135344735Y-72436814D01*
X135344735Y-72436814D02*
X135283049Y-72436814D01*
X135283049Y-72436814D02*
X135241926Y-72485195D01*
X134460574Y-73114147D02*
X134604507Y-72630338D01*
X134707317Y-73114147D02*
X134707317Y-72098147D01*
X134707317Y-72098147D02*
X134542822Y-72098147D01*
X134542822Y-72098147D02*
X134501698Y-72146528D01*
X134501698Y-72146528D02*
X134481136Y-72194909D01*
X134481136Y-72194909D02*
X134460574Y-72291671D01*
X134460574Y-72291671D02*
X134460574Y-72436814D01*
X134460574Y-72436814D02*
X134481136Y-72533576D01*
X134481136Y-72533576D02*
X134501698Y-72581957D01*
X134501698Y-72581957D02*
X134542822Y-72630338D01*
X134542822Y-72630338D02*
X134707317Y-72630338D01*
X134213831Y-73114147D02*
X134254955Y-73065767D01*
X134254955Y-73065767D02*
X134275517Y-73017386D01*
X134275517Y-73017386D02*
X134296079Y-72920624D01*
X134296079Y-72920624D02*
X134296079Y-72630338D01*
X134296079Y-72630338D02*
X134275517Y-72533576D01*
X134275517Y-72533576D02*
X134254955Y-72485195D01*
X134254955Y-72485195D02*
X134213831Y-72436814D01*
X134213831Y-72436814D02*
X134152146Y-72436814D01*
X134152146Y-72436814D02*
X134111022Y-72485195D01*
X134111022Y-72485195D02*
X134090460Y-72533576D01*
X134090460Y-72533576D02*
X134069898Y-72630338D01*
X134069898Y-72630338D02*
X134069898Y-72920624D01*
X134069898Y-72920624D02*
X134090460Y-73017386D01*
X134090460Y-73017386D02*
X134111022Y-73065767D01*
X134111022Y-73065767D02*
X134152146Y-73114147D01*
X134152146Y-73114147D02*
X134213831Y-73114147D01*
X133925965Y-72436814D02*
X133823155Y-73114147D01*
X133823155Y-73114147D02*
X133720346Y-72436814D01*
X133391356Y-73065767D02*
X133432480Y-73114147D01*
X133432480Y-73114147D02*
X133514727Y-73114147D01*
X133514727Y-73114147D02*
X133555851Y-73065767D01*
X133555851Y-73065767D02*
X133576413Y-72969005D01*
X133576413Y-72969005D02*
X133576413Y-72581957D01*
X133576413Y-72581957D02*
X133555851Y-72485195D01*
X133555851Y-72485195D02*
X133514727Y-72436814D01*
X133514727Y-72436814D02*
X133432480Y-72436814D01*
X133432480Y-72436814D02*
X133391356Y-72485195D01*
X133391356Y-72485195D02*
X133370794Y-72581957D01*
X133370794Y-72581957D02*
X133370794Y-72678719D01*
X133370794Y-72678719D02*
X133576413Y-72775481D01*
X133185737Y-73114147D02*
X133185737Y-72436814D01*
X133185737Y-72630338D02*
X133165175Y-72533576D01*
X133165175Y-72533576D02*
X133144613Y-72485195D01*
X133144613Y-72485195D02*
X133103489Y-72436814D01*
X133103489Y-72436814D02*
X133062366Y-72436814D01*
X132589442Y-73114147D02*
X132589442Y-72098147D01*
X132589442Y-72098147D02*
X132486632Y-72098147D01*
X132486632Y-72098147D02*
X132424947Y-72146528D01*
X132424947Y-72146528D02*
X132383823Y-72243290D01*
X132383823Y-72243290D02*
X132363261Y-72340052D01*
X132363261Y-72340052D02*
X132342699Y-72533576D01*
X132342699Y-72533576D02*
X132342699Y-72678719D01*
X132342699Y-72678719D02*
X132363261Y-72872243D01*
X132363261Y-72872243D02*
X132383823Y-72969005D01*
X132383823Y-72969005D02*
X132424947Y-73065767D01*
X132424947Y-73065767D02*
X132486632Y-73114147D01*
X132486632Y-73114147D02*
X132589442Y-73114147D01*
X131993147Y-73065767D02*
X132034271Y-73114147D01*
X132034271Y-73114147D02*
X132116518Y-73114147D01*
X132116518Y-73114147D02*
X132157642Y-73065767D01*
X132157642Y-73065767D02*
X132178204Y-72969005D01*
X132178204Y-72969005D02*
X132178204Y-72581957D01*
X132178204Y-72581957D02*
X132157642Y-72485195D01*
X132157642Y-72485195D02*
X132116518Y-72436814D01*
X132116518Y-72436814D02*
X132034271Y-72436814D01*
X132034271Y-72436814D02*
X131993147Y-72485195D01*
X131993147Y-72485195D02*
X131972585Y-72581957D01*
X131972585Y-72581957D02*
X131972585Y-72678719D01*
X131972585Y-72678719D02*
X132178204Y-72775481D01*
X131808090Y-73065767D02*
X131766966Y-73114147D01*
X131766966Y-73114147D02*
X131684718Y-73114147D01*
X131684718Y-73114147D02*
X131643595Y-73065767D01*
X131643595Y-73065767D02*
X131623033Y-72969005D01*
X131623033Y-72969005D02*
X131623033Y-72920624D01*
X131623033Y-72920624D02*
X131643595Y-72823862D01*
X131643595Y-72823862D02*
X131684718Y-72775481D01*
X131684718Y-72775481D02*
X131746404Y-72775481D01*
X131746404Y-72775481D02*
X131787528Y-72727100D01*
X131787528Y-72727100D02*
X131808090Y-72630338D01*
X131808090Y-72630338D02*
X131808090Y-72581957D01*
X131808090Y-72581957D02*
X131787528Y-72485195D01*
X131787528Y-72485195D02*
X131746404Y-72436814D01*
X131746404Y-72436814D02*
X131684718Y-72436814D01*
X131684718Y-72436814D02*
X131643595Y-72485195D01*
X131437976Y-73114147D02*
X131437976Y-72436814D01*
X131437976Y-72098147D02*
X131458538Y-72146528D01*
X131458538Y-72146528D02*
X131437976Y-72194909D01*
X131437976Y-72194909D02*
X131417414Y-72146528D01*
X131417414Y-72146528D02*
X131437976Y-72098147D01*
X131437976Y-72098147D02*
X131437976Y-72194909D01*
X131047300Y-72436814D02*
X131047300Y-73259290D01*
X131047300Y-73259290D02*
X131067862Y-73356052D01*
X131067862Y-73356052D02*
X131088424Y-73404433D01*
X131088424Y-73404433D02*
X131129547Y-73452814D01*
X131129547Y-73452814D02*
X131191233Y-73452814D01*
X131191233Y-73452814D02*
X131232357Y-73404433D01*
X131047300Y-73065767D02*
X131088424Y-73114147D01*
X131088424Y-73114147D02*
X131170671Y-73114147D01*
X131170671Y-73114147D02*
X131211795Y-73065767D01*
X131211795Y-73065767D02*
X131232357Y-73017386D01*
X131232357Y-73017386D02*
X131252919Y-72920624D01*
X131252919Y-72920624D02*
X131252919Y-72630338D01*
X131252919Y-72630338D02*
X131232357Y-72533576D01*
X131232357Y-72533576D02*
X131211795Y-72485195D01*
X131211795Y-72485195D02*
X131170671Y-72436814D01*
X131170671Y-72436814D02*
X131088424Y-72436814D01*
X131088424Y-72436814D02*
X131047300Y-72485195D01*
X130841681Y-72436814D02*
X130841681Y-73114147D01*
X130841681Y-72533576D02*
X130821119Y-72485195D01*
X130821119Y-72485195D02*
X130779995Y-72436814D01*
X130779995Y-72436814D02*
X130718310Y-72436814D01*
X130718310Y-72436814D02*
X130677186Y-72485195D01*
X130677186Y-72485195D02*
X130656624Y-72581957D01*
X130656624Y-72581957D02*
X130656624Y-73114147D01*
X130183701Y-72098147D02*
X129936958Y-72098147D01*
X130060329Y-73114147D02*
X130060329Y-72098147D01*
X129628530Y-73065767D02*
X129669654Y-73114147D01*
X129669654Y-73114147D02*
X129751901Y-73114147D01*
X129751901Y-73114147D02*
X129793025Y-73065767D01*
X129793025Y-73065767D02*
X129813587Y-72969005D01*
X129813587Y-72969005D02*
X129813587Y-72581957D01*
X129813587Y-72581957D02*
X129793025Y-72485195D01*
X129793025Y-72485195D02*
X129751901Y-72436814D01*
X129751901Y-72436814D02*
X129669654Y-72436814D01*
X129669654Y-72436814D02*
X129628530Y-72485195D01*
X129628530Y-72485195D02*
X129607968Y-72581957D01*
X129607968Y-72581957D02*
X129607968Y-72678719D01*
X129607968Y-72678719D02*
X129813587Y-72775481D01*
X129237854Y-73114147D02*
X129237854Y-72581957D01*
X129237854Y-72581957D02*
X129258416Y-72485195D01*
X129258416Y-72485195D02*
X129299540Y-72436814D01*
X129299540Y-72436814D02*
X129381787Y-72436814D01*
X129381787Y-72436814D02*
X129422911Y-72485195D01*
X129237854Y-73065767D02*
X129278978Y-73114147D01*
X129278978Y-73114147D02*
X129381787Y-73114147D01*
X129381787Y-73114147D02*
X129422911Y-73065767D01*
X129422911Y-73065767D02*
X129443473Y-72969005D01*
X129443473Y-72969005D02*
X129443473Y-72872243D01*
X129443473Y-72872243D02*
X129422911Y-72775481D01*
X129422911Y-72775481D02*
X129381787Y-72727100D01*
X129381787Y-72727100D02*
X129278978Y-72727100D01*
X129278978Y-72727100D02*
X129237854Y-72678719D01*
X129032235Y-73114147D02*
X129032235Y-72436814D01*
X129032235Y-72533576D02*
X129011673Y-72485195D01*
X129011673Y-72485195D02*
X128970549Y-72436814D01*
X128970549Y-72436814D02*
X128908864Y-72436814D01*
X128908864Y-72436814D02*
X128867740Y-72485195D01*
X128867740Y-72485195D02*
X128847178Y-72581957D01*
X128847178Y-72581957D02*
X128847178Y-73114147D01*
X128847178Y-72581957D02*
X128826616Y-72485195D01*
X128826616Y-72485195D02*
X128785492Y-72436814D01*
X128785492Y-72436814D02*
X128723806Y-72436814D01*
X128723806Y-72436814D02*
X128682683Y-72485195D01*
X128682683Y-72485195D02*
X128662121Y-72581957D01*
X128662121Y-72581957D02*
X128662121Y-73114147D01*
X136537326Y-74749907D02*
X136537326Y-73733907D01*
X136537326Y-73733907D02*
X136393393Y-74459622D01*
X136393393Y-74459622D02*
X136249459Y-73733907D01*
X136249459Y-73733907D02*
X136249459Y-74749907D01*
X136043840Y-74749907D02*
X136043840Y-74072574D01*
X136043840Y-73733907D02*
X136064402Y-73782288D01*
X136064402Y-73782288D02*
X136043840Y-73830669D01*
X136043840Y-73830669D02*
X136023278Y-73782288D01*
X136023278Y-73782288D02*
X136043840Y-73733907D01*
X136043840Y-73733907D02*
X136043840Y-73830669D01*
X135858783Y-74701527D02*
X135817659Y-74749907D01*
X135817659Y-74749907D02*
X135735411Y-74749907D01*
X135735411Y-74749907D02*
X135694288Y-74701527D01*
X135694288Y-74701527D02*
X135673726Y-74604765D01*
X135673726Y-74604765D02*
X135673726Y-74556384D01*
X135673726Y-74556384D02*
X135694288Y-74459622D01*
X135694288Y-74459622D02*
X135735411Y-74411241D01*
X135735411Y-74411241D02*
X135797097Y-74411241D01*
X135797097Y-74411241D02*
X135838221Y-74362860D01*
X135838221Y-74362860D02*
X135858783Y-74266098D01*
X135858783Y-74266098D02*
X135858783Y-74217717D01*
X135858783Y-74217717D02*
X135838221Y-74120955D01*
X135838221Y-74120955D02*
X135797097Y-74072574D01*
X135797097Y-74072574D02*
X135735411Y-74072574D01*
X135735411Y-74072574D02*
X135694288Y-74120955D01*
X135509231Y-74701527D02*
X135468107Y-74749907D01*
X135468107Y-74749907D02*
X135385859Y-74749907D01*
X135385859Y-74749907D02*
X135344736Y-74701527D01*
X135344736Y-74701527D02*
X135324174Y-74604765D01*
X135324174Y-74604765D02*
X135324174Y-74556384D01*
X135324174Y-74556384D02*
X135344736Y-74459622D01*
X135344736Y-74459622D02*
X135385859Y-74411241D01*
X135385859Y-74411241D02*
X135447545Y-74411241D01*
X135447545Y-74411241D02*
X135488669Y-74362860D01*
X135488669Y-74362860D02*
X135509231Y-74266098D01*
X135509231Y-74266098D02*
X135509231Y-74217717D01*
X135509231Y-74217717D02*
X135488669Y-74120955D01*
X135488669Y-74120955D02*
X135447545Y-74072574D01*
X135447545Y-74072574D02*
X135385859Y-74072574D01*
X135385859Y-74072574D02*
X135344736Y-74120955D01*
X135077431Y-74749907D02*
X135118555Y-74701527D01*
X135118555Y-74701527D02*
X135139117Y-74653146D01*
X135139117Y-74653146D02*
X135159679Y-74556384D01*
X135159679Y-74556384D02*
X135159679Y-74266098D01*
X135159679Y-74266098D02*
X135139117Y-74169336D01*
X135139117Y-74169336D02*
X135118555Y-74120955D01*
X135118555Y-74120955D02*
X135077431Y-74072574D01*
X135077431Y-74072574D02*
X135015746Y-74072574D01*
X135015746Y-74072574D02*
X134974622Y-74120955D01*
X134974622Y-74120955D02*
X134954060Y-74169336D01*
X134954060Y-74169336D02*
X134933498Y-74266098D01*
X134933498Y-74266098D02*
X134933498Y-74556384D01*
X134933498Y-74556384D02*
X134954060Y-74653146D01*
X134954060Y-74653146D02*
X134974622Y-74701527D01*
X134974622Y-74701527D02*
X135015746Y-74749907D01*
X135015746Y-74749907D02*
X135077431Y-74749907D01*
X134563384Y-74072574D02*
X134563384Y-74749907D01*
X134748441Y-74072574D02*
X134748441Y-74604765D01*
X134748441Y-74604765D02*
X134727879Y-74701527D01*
X134727879Y-74701527D02*
X134686755Y-74749907D01*
X134686755Y-74749907D02*
X134625070Y-74749907D01*
X134625070Y-74749907D02*
X134583946Y-74701527D01*
X134583946Y-74701527D02*
X134563384Y-74653146D01*
X134357765Y-74749907D02*
X134357765Y-74072574D01*
X134357765Y-74266098D02*
X134337203Y-74169336D01*
X134337203Y-74169336D02*
X134316641Y-74120955D01*
X134316641Y-74120955D02*
X134275517Y-74072574D01*
X134275517Y-74072574D02*
X134234394Y-74072574D01*
X134090460Y-74749907D02*
X134090460Y-74072574D01*
X134090460Y-73733907D02*
X134111022Y-73782288D01*
X134111022Y-73782288D02*
X134090460Y-73830669D01*
X134090460Y-73830669D02*
X134069898Y-73782288D01*
X134069898Y-73782288D02*
X134090460Y-73733907D01*
X134090460Y-73733907D02*
X134090460Y-73830669D01*
X133576413Y-74701527D02*
X133514727Y-74749907D01*
X133514727Y-74749907D02*
X133411918Y-74749907D01*
X133411918Y-74749907D02*
X133370794Y-74701527D01*
X133370794Y-74701527D02*
X133350232Y-74653146D01*
X133350232Y-74653146D02*
X133329670Y-74556384D01*
X133329670Y-74556384D02*
X133329670Y-74459622D01*
X133329670Y-74459622D02*
X133350232Y-74362860D01*
X133350232Y-74362860D02*
X133370794Y-74314479D01*
X133370794Y-74314479D02*
X133411918Y-74266098D01*
X133411918Y-74266098D02*
X133494165Y-74217717D01*
X133494165Y-74217717D02*
X133535289Y-74169336D01*
X133535289Y-74169336D02*
X133555851Y-74120955D01*
X133555851Y-74120955D02*
X133576413Y-74024193D01*
X133576413Y-74024193D02*
X133576413Y-73927431D01*
X133576413Y-73927431D02*
X133555851Y-73830669D01*
X133555851Y-73830669D02*
X133535289Y-73782288D01*
X133535289Y-73782288D02*
X133494165Y-73733907D01*
X133494165Y-73733907D02*
X133391356Y-73733907D01*
X133391356Y-73733907D02*
X133329670Y-73782288D01*
X132795061Y-74749907D02*
X132815623Y-74749907D01*
X132815623Y-74749907D02*
X132856746Y-74701527D01*
X132856746Y-74701527D02*
X132918432Y-74556384D01*
X132918432Y-74556384D02*
X133021242Y-74266098D01*
X133021242Y-74266098D02*
X133062365Y-74120955D01*
X133062365Y-74120955D02*
X133082927Y-73975812D01*
X133082927Y-73975812D02*
X133082927Y-73879050D01*
X133082927Y-73879050D02*
X133062365Y-73782288D01*
X133062365Y-73782288D02*
X133021242Y-73733907D01*
X133021242Y-73733907D02*
X133000680Y-73733907D01*
X133000680Y-73733907D02*
X132959556Y-73782288D01*
X132959556Y-73782288D02*
X132938994Y-73879050D01*
X132938994Y-73879050D02*
X132938994Y-73927431D01*
X132938994Y-73927431D02*
X132959556Y-74024193D01*
X132959556Y-74024193D02*
X132980118Y-74072574D01*
X132980118Y-74072574D02*
X133103489Y-74266098D01*
X133103489Y-74266098D02*
X133124051Y-74314479D01*
X133124051Y-74314479D02*
X133144613Y-74411241D01*
X133144613Y-74411241D02*
X133144613Y-74556384D01*
X133144613Y-74556384D02*
X133124051Y-74653146D01*
X133124051Y-74653146D02*
X133103489Y-74701527D01*
X133103489Y-74701527D02*
X133062365Y-74749907D01*
X133062365Y-74749907D02*
X133000680Y-74749907D01*
X133000680Y-74749907D02*
X132959556Y-74701527D01*
X132959556Y-74701527D02*
X132938994Y-74653146D01*
X132938994Y-74653146D02*
X132877308Y-74459622D01*
X132877308Y-74459622D02*
X132856746Y-74314479D01*
X132856746Y-74314479D02*
X132856746Y-74217717D01*
X132671689Y-73733907D02*
X132424946Y-73733907D01*
X132548317Y-74749907D02*
X132548317Y-73733907D01*
X132260451Y-74701527D02*
X132260451Y-74749907D01*
X132260451Y-74749907D02*
X132281013Y-74846669D01*
X132281013Y-74846669D02*
X132301575Y-74895050D01*
X131766966Y-73830669D02*
X131746404Y-73782288D01*
X131746404Y-73782288D02*
X131705280Y-73733907D01*
X131705280Y-73733907D02*
X131602471Y-73733907D01*
X131602471Y-73733907D02*
X131561347Y-73782288D01*
X131561347Y-73782288D02*
X131540785Y-73830669D01*
X131540785Y-73830669D02*
X131520223Y-73927431D01*
X131520223Y-73927431D02*
X131520223Y-74024193D01*
X131520223Y-74024193D02*
X131540785Y-74169336D01*
X131540785Y-74169336D02*
X131787528Y-74749907D01*
X131787528Y-74749907D02*
X131520223Y-74749907D01*
X131252918Y-73733907D02*
X131211795Y-73733907D01*
X131211795Y-73733907D02*
X131170671Y-73782288D01*
X131170671Y-73782288D02*
X131150109Y-73830669D01*
X131150109Y-73830669D02*
X131129547Y-73927431D01*
X131129547Y-73927431D02*
X131108985Y-74120955D01*
X131108985Y-74120955D02*
X131108985Y-74362860D01*
X131108985Y-74362860D02*
X131129547Y-74556384D01*
X131129547Y-74556384D02*
X131150109Y-74653146D01*
X131150109Y-74653146D02*
X131170671Y-74701527D01*
X131170671Y-74701527D02*
X131211795Y-74749907D01*
X131211795Y-74749907D02*
X131252918Y-74749907D01*
X131252918Y-74749907D02*
X131294042Y-74701527D01*
X131294042Y-74701527D02*
X131314604Y-74653146D01*
X131314604Y-74653146D02*
X131335166Y-74556384D01*
X131335166Y-74556384D02*
X131355728Y-74362860D01*
X131355728Y-74362860D02*
X131355728Y-74120955D01*
X131355728Y-74120955D02*
X131335166Y-73927431D01*
X131335166Y-73927431D02*
X131314604Y-73830669D01*
X131314604Y-73830669D02*
X131294042Y-73782288D01*
X131294042Y-73782288D02*
X131252918Y-73733907D01*
X130944490Y-73830669D02*
X130923928Y-73782288D01*
X130923928Y-73782288D02*
X130882804Y-73733907D01*
X130882804Y-73733907D02*
X130779995Y-73733907D01*
X130779995Y-73733907D02*
X130738871Y-73782288D01*
X130738871Y-73782288D02*
X130718309Y-73830669D01*
X130718309Y-73830669D02*
X130697747Y-73927431D01*
X130697747Y-73927431D02*
X130697747Y-74024193D01*
X130697747Y-74024193D02*
X130718309Y-74169336D01*
X130718309Y-74169336D02*
X130965052Y-74749907D01*
X130965052Y-74749907D02*
X130697747Y-74749907D01*
X130553814Y-73733907D02*
X130286509Y-73733907D01*
X130286509Y-73733907D02*
X130430442Y-74120955D01*
X130430442Y-74120955D02*
X130368757Y-74120955D01*
X130368757Y-74120955D02*
X130327633Y-74169336D01*
X130327633Y-74169336D02*
X130307071Y-74217717D01*
X130307071Y-74217717D02*
X130286509Y-74314479D01*
X130286509Y-74314479D02*
X130286509Y-74556384D01*
X130286509Y-74556384D02*
X130307071Y-74653146D01*
X130307071Y-74653146D02*
X130327633Y-74701527D01*
X130327633Y-74701527D02*
X130368757Y-74749907D01*
X130368757Y-74749907D02*
X130492128Y-74749907D01*
X130492128Y-74749907D02*
X130533252Y-74701527D01*
X130533252Y-74701527D02*
X130553814Y-74653146D01*
D12*
X128276266Y-79146619D02*
X128752456Y-79146619D01*
X128752456Y-79146619D02*
X128752456Y-78146619D01*
X127942932Y-79146619D02*
X127942932Y-78146619D01*
X127942932Y-78146619D02*
X127704837Y-78146619D01*
X127704837Y-78146619D02*
X127561980Y-78194238D01*
X127561980Y-78194238D02*
X127466742Y-78289476D01*
X127466742Y-78289476D02*
X127419123Y-78384714D01*
X127419123Y-78384714D02*
X127371504Y-78575190D01*
X127371504Y-78575190D02*
X127371504Y-78718047D01*
X127371504Y-78718047D02*
X127419123Y-78908523D01*
X127419123Y-78908523D02*
X127466742Y-79003761D01*
X127466742Y-79003761D02*
X127561980Y-79099000D01*
X127561980Y-79099000D02*
X127704837Y-79146619D01*
X127704837Y-79146619D02*
X127942932Y-79146619D01*
X126990551Y-78241857D02*
X126942932Y-78194238D01*
X126942932Y-78194238D02*
X126847694Y-78146619D01*
X126847694Y-78146619D02*
X126609599Y-78146619D01*
X126609599Y-78146619D02*
X126514361Y-78194238D01*
X126514361Y-78194238D02*
X126466742Y-78241857D01*
X126466742Y-78241857D02*
X126419123Y-78337095D01*
X126419123Y-78337095D02*
X126419123Y-78432333D01*
X126419123Y-78432333D02*
X126466742Y-78575190D01*
X126466742Y-78575190D02*
X127038170Y-79146619D01*
X127038170Y-79146619D02*
X126419123Y-79146619D01*
%TO.C,LD2*%
X135261000Y-78627000D02*
G75*
G03*
X135261000Y-78627000I-2800000J0D01*
G01*
%TD*%
M02*
