M48
; DRILL file {KiCad 7.0.7} date Tue Nov  7 18:36:28 2023
; FORMAT={-:-/ absolute / inch / decimal}
; #@! TF.CreationDate,2023-11-07T18:36:28-06:00
; #@! TF.GenerationSoftware,Kicad,Pcbnew,7.0.7
; #@! TF.FileFunction,Plated,1,2,PTH
FMAT,2
INCH
; #@! TA.AperFunction,Plated,PTH,ViaDrill
T1C0.0157
; #@! TA.AperFunction,Plated,PTH,ComponentDrill
T2C0.0276
; #@! TA.AperFunction,Plated,PTH,ComponentDrill
T3C0.0315
; #@! TA.AperFunction,Plated,PTH,ComponentDrill
T4C0.0350
; #@! TA.AperFunction,Plated,PTH,ComponentDrill
T5C0.0354
; #@! TA.AperFunction,Plated,PTH,ComponentDrill
T6C0.0400
; #@! TA.AperFunction,Plated,PTH,ComponentDrill
T7C0.0402
; #@! TA.AperFunction,Plated,PTH,ComponentDrill
T8C0.0630
; #@! TA.AperFunction,Plated,PTH,ComponentDrill
T9C0.0787
; #@! TA.AperFunction,Plated,PTH,ComponentDrill
T10C0.1280
%
G90
G05
T1
X4.366Y-3.256
X4.566Y-3.286
X5.018Y-3.56
X5.08Y-3.22
X5.21Y-3.2314
X5.55Y-3.22
X5.596Y-3.248
X5.8Y-3.086
X6.608Y-4.048
T2
X4.5706Y-3.7965
X4.5706Y-3.8752
X4.5706Y-3.9539
X4.6494Y-3.7965
X4.6494Y-3.8752
X4.6494Y-3.9539
T3
X4.06Y-3.7
X4.06Y-4.3
X4.16Y-3.7
X4.16Y-4.3
X4.26Y-3.7
X4.26Y-4.3
X4.36Y-3.7
X4.36Y-4.3
X4.46Y-3.7
X4.46Y-4.3
X4.56Y-3.7
X4.56Y-4.3
X4.66Y-3.7
X4.66Y-4.3
X4.76Y-3.7
X4.76Y-4.3
X4.86Y-3.7
X4.86Y-4.3
X4.96Y-3.7
X4.96Y-4.3
X5.06Y-3.7
X5.06Y-4.3
X5.16Y-3.7
X5.16Y-4.3
X5.26Y-3.7
X5.26Y-4.3
X5.36Y-3.7
X5.36Y-4.3
X5.46Y-3.7
X5.46Y-4.3
X5.56Y-3.7
X5.56Y-4.3
X5.66Y-3.7
X5.66Y-4.3
X5.76Y-3.7
X5.76Y-4.3
X5.86Y-3.7
X5.86Y-4.3
X5.96Y-3.7
X5.96Y-4.3
X6.06Y-3.7
X6.06Y-4.3
X6.16Y-3.7
X6.16Y-4.3
X6.26Y-3.7
X6.26Y-4.3
X6.36Y-3.7
X6.36Y-4.3
T4
X4.92Y-3.26
X4.92Y-3.36
X4.92Y-3.46
T5
X5.1275Y-2.495
X5.2275Y-2.495
X5.33Y-3.344
X5.43Y-3.344
X5.444Y-2.496
X5.544Y-2.496
X5.944Y-2.492
X6.044Y-2.492
X6.258Y-2.492
X6.358Y-2.492
X6.55Y-3.5648
X6.55Y-3.6648
X6.55Y-3.7648
X6.55Y-3.8648
X6.614Y-2.502
X6.65Y-3.6148
X6.65Y-3.7148
X6.65Y-3.8148
X6.65Y-3.9148
X6.714Y-2.502
X6.814Y-2.502
X6.914Y-2.502
X6.914Y-2.502
T6
X6.548Y-2.7163
X6.548Y-3.2163
X6.648Y-2.7163
X6.648Y-3.2163
X6.748Y-2.7163
X6.748Y-3.2163
X6.848Y-2.7163
X6.848Y-3.2163
X6.948Y-2.7163
X6.948Y-3.2163
X7.048Y-2.7163
X7.048Y-3.2163
X7.148Y-2.7163
X7.148Y-3.2163
X7.183Y-3.0663
X7.248Y-2.7163
X7.248Y-3.0163
X7.248Y-3.1163
X7.248Y-3.2163
T7
X5.8053Y-3.514
X5.9053Y-3.514
X5.9998Y-3.5148
X6.0998Y-3.5148
X6.1998Y-3.5148
X7.0295Y-3.4908
X7.0295Y-3.8888
X7.1Y-3.5908
X7.1Y-3.9888
T8
X6.7799Y-3.4298
X6.7799Y-4.0498
T10
X6.9Y-3.5148
X6.9Y-3.9648
T9
G00X4.5213Y-3.0324
M15
G01X4.4387Y-3.0324
M16
G05
G00X4.8313Y-3.0324
M15
G01X4.7487Y-3.0324
M16
G05
T0
M30
