%TF.GenerationSoftware,KiCad,Pcbnew,7.0.7*%
%TF.CreationDate,2023-11-07T19:23:38-06:00*%
%TF.ProjectId,FTIR_Main_Hardware,46544952-5f4d-4616-996e-5f4861726477,rev?*%
%TF.SameCoordinates,Original*%
%TF.FileFunction,Soldermask,Bot*%
%TF.FilePolarity,Negative*%
%FSLAX46Y46*%
G04 Gerber Fmt 4.6, Leading zero omitted, Abs format (unit mm)*
G04 Created by KiCad (PCBNEW 7.0.7) date 2023-11-07 19:23:38*
%MOMM*%
%LPD*%
G01*
G04 APERTURE LIST*
G04 Aperture macros list*
%AMRoundRect*
0 Rectangle with rounded corners*
0 $1 Rounding radius*
0 $2 $3 $4 $5 $6 $7 $8 $9 X,Y pos of 4 corners*
0 Add a 4 corners polygon primitive as box body*
4,1,4,$2,$3,$4,$5,$6,$7,$8,$9,$2,$3,0*
0 Add four circle primitives for the rounded corners*
1,1,$1+$1,$2,$3*
1,1,$1+$1,$4,$5*
1,1,$1+$1,$6,$7*
1,1,$1+$1,$8,$9*
0 Add four rect primitives between the rounded corners*
20,1,$1+$1,$2,$3,$4,$5,0*
20,1,$1+$1,$4,$5,$6,$7,0*
20,1,$1+$1,$6,$7,$8,$9,0*
20,1,$1+$1,$8,$9,$2,$3,0*%
G04 Aperture macros list end*
%ADD10C,1.524000*%
%ADD11C,1.728000*%
%ADD12RoundRect,0.102000X0.762000X-0.762000X0.762000X0.762000X-0.762000X0.762000X-0.762000X-0.762000X0*%
%ADD13C,1.100000*%
%ADD14C,1.400000*%
%ADD15C,4.000000*%
%ADD16C,2.000000*%
%ADD17C,1.308000*%
%ADD18C,1.208000*%
%ADD19O,5.100000X3.000000*%
%ADD20C,2.946400*%
%ADD21R,2.413000X5.080000*%
%ADD22C,1.528000*%
%ADD23R,5.080000X2.413000*%
%ADD24RoundRect,0.150000X0.150000X-0.587500X0.150000X0.587500X-0.150000X0.587500X-0.150000X-0.587500X0*%
%ADD25RoundRect,0.237500X-0.237500X0.250000X-0.237500X-0.250000X0.237500X-0.250000X0.237500X0.250000X0*%
%ADD26RoundRect,0.237500X0.237500X-0.287500X0.237500X0.287500X-0.237500X0.287500X-0.237500X-0.287500X0*%
%ADD27RoundRect,0.237500X0.300000X0.237500X-0.300000X0.237500X-0.300000X-0.237500X0.300000X-0.237500X0*%
%ADD28RoundRect,0.237500X0.250000X0.237500X-0.250000X0.237500X-0.250000X-0.237500X0.250000X-0.237500X0*%
%ADD29RoundRect,0.150000X0.150000X-0.675000X0.150000X0.675000X-0.150000X0.675000X-0.150000X-0.675000X0*%
%ADD30RoundRect,0.237500X0.237500X-0.250000X0.237500X0.250000X-0.237500X0.250000X-0.237500X-0.250000X0*%
G04 APERTURE END LIST*
D10*
%TO.C,Conn6*%
X130238500Y-63373000D03*
X132778500Y-63373000D03*
%TD*%
D11*
%TO.C,U4*%
X171399200Y-81694400D03*
X182448200Y-77884400D03*
D12*
X166319200Y-81694400D03*
D11*
X184099200Y-81694400D03*
X166319200Y-68994400D03*
X181559200Y-68994400D03*
X184099200Y-76614400D03*
X173939200Y-68994400D03*
X171399200Y-68994400D03*
X176479200Y-68994400D03*
X179019200Y-68994400D03*
X181559200Y-81694400D03*
X179019200Y-81694400D03*
X176479200Y-81694400D03*
X173939200Y-81694400D03*
X168859200Y-81694400D03*
X168859200Y-68994400D03*
D12*
X184099200Y-68994400D03*
D11*
X184099200Y-79154400D03*
%TD*%
D13*
%TO.C,J1*%
X168910000Y-99435713D03*
X166370000Y-98165713D03*
X168910000Y-96895713D03*
X166370000Y-95625713D03*
X168910000Y-94355713D03*
X166370000Y-93085713D03*
X168910000Y-91815713D03*
X166370000Y-90545713D03*
D14*
X180340000Y-101315713D03*
X178550000Y-98775713D03*
X180340000Y-91205713D03*
X178550000Y-88665713D03*
D15*
X175260000Y-100705713D03*
X175260000Y-89275713D03*
D16*
X172210000Y-102865713D03*
X172210000Y-87115713D03*
%TD*%
D17*
%TO.C,U6*%
X105664000Y-109220000D03*
X108204000Y-109220000D03*
X110744000Y-109220000D03*
X113284000Y-109220000D03*
X138684000Y-109220000D03*
X108204000Y-93980000D03*
X115824000Y-109220000D03*
X118364000Y-109220000D03*
X120904000Y-109220000D03*
X123444000Y-109220000D03*
X125984000Y-109220000D03*
X128524000Y-109220000D03*
X131064000Y-109220000D03*
X133604000Y-109220000D03*
X136144000Y-109220000D03*
X136144000Y-93980000D03*
X133604000Y-93980000D03*
X131064000Y-93980000D03*
X128524000Y-93980000D03*
X125984000Y-93980000D03*
X123444000Y-93980000D03*
X120904000Y-93980000D03*
X118364000Y-93980000D03*
X115824000Y-93980000D03*
X113284000Y-93980000D03*
X110744000Y-93980000D03*
X141224000Y-109220000D03*
X143764000Y-109220000D03*
X146304000Y-109220000D03*
X148844000Y-109220000D03*
X151384000Y-109220000D03*
X153924000Y-109220000D03*
X156464000Y-109220000D03*
X159004000Y-109220000D03*
X161544000Y-109220000D03*
X161544000Y-93980000D03*
X159004000Y-93980000D03*
X156464000Y-93980000D03*
X153924000Y-93980000D03*
X151384000Y-93980000D03*
X148844000Y-93980000D03*
X146304000Y-93980000D03*
X143764000Y-93980000D03*
X141224000Y-93980000D03*
X103124000Y-109220000D03*
X138684000Y-93980000D03*
X105664000Y-93980000D03*
D18*
X118094000Y-98430000D03*
X116094000Y-98430000D03*
X116094000Y-96430000D03*
X118094000Y-96430000D03*
X118094000Y-100430000D03*
X116094000Y-100430000D03*
D17*
X103124000Y-93980000D03*
%TD*%
D10*
%TO.C,U3*%
X124968000Y-82804000D03*
X124968000Y-85344000D03*
X124968000Y-87884000D03*
%TD*%
D19*
%TO.C,Conn1*%
X121666000Y-77024200D03*
X113792000Y-77024200D03*
%TD*%
D20*
%TO.C,H4*%
X182708420Y-62782580D03*
%TD*%
D21*
%TO.C,Conn10*%
X165862000Y-109093000D03*
X177038000Y-109093000D03*
%TD*%
D10*
%TO.C,Conn8*%
X158953200Y-63296800D03*
X161493200Y-63296800D03*
%TD*%
%TO.C,Conn4*%
X167995600Y-63550800D03*
X170535600Y-63550800D03*
X173075600Y-63550800D03*
X175615600Y-63550800D03*
X175615600Y-63550800D03*
%TD*%
%TO.C,Conn12*%
X138277600Y-63398400D03*
X140817600Y-63398400D03*
%TD*%
D20*
%TO.C,H3*%
X104902000Y-62865000D03*
%TD*%
D10*
%TO.C,Conn3*%
X135382000Y-84937600D03*
X137922000Y-84937600D03*
%TD*%
D22*
%TO.C,U2*%
X157474713Y-89275713D03*
X149994713Y-89255713D03*
X152394713Y-89275713D03*
X154934713Y-89275713D03*
X147454713Y-89255713D03*
%TD*%
D20*
%TO.C,H2*%
X182626000Y-107823000D03*
%TD*%
D10*
%TO.C,Conn2*%
X150977600Y-63296800D03*
X153517600Y-63296800D03*
%TD*%
D23*
%TO.C,Conn9*%
X103505000Y-70104000D03*
X103505000Y-81280000D03*
%TD*%
D24*
%TO.C,Q6*%
X142174000Y-79372700D03*
X140274000Y-79372700D03*
X141224000Y-77497700D03*
%TD*%
D25*
%TO.C,R9*%
X134250000Y-67549250D03*
X134250000Y-69374250D03*
%TD*%
D26*
%TO.C,D10*%
X144272000Y-73151700D03*
X144272000Y-71401700D03*
%TD*%
D27*
%TO.C,C3*%
X170280500Y-89154000D03*
X168555500Y-89154000D03*
%TD*%
D26*
%TO.C,D7*%
X134250000Y-73184250D03*
X134250000Y-71434250D03*
%TD*%
D28*
%TO.C,R16*%
X142138400Y-75211700D03*
X140313400Y-75211700D03*
%TD*%
%TO.C,R10*%
X132127000Y-75106750D03*
X130302000Y-75106750D03*
%TD*%
D25*
%TO.C,R11*%
X128270000Y-75059750D03*
X128270000Y-76884750D03*
%TD*%
D24*
%TO.C,Q2*%
X132268000Y-79267750D03*
X130368000Y-79267750D03*
X131318000Y-77392750D03*
%TD*%
D29*
%TO.C,Q1*%
X132019000Y-72829250D03*
X130749000Y-72829250D03*
X129479000Y-72829250D03*
X128209000Y-72829250D03*
X128209000Y-67579250D03*
X129479000Y-67579250D03*
X130749000Y-67579250D03*
X132019000Y-67579250D03*
%TD*%
D25*
%TO.C,R18*%
X138176000Y-75211700D03*
X138176000Y-77036700D03*
%TD*%
D29*
%TO.C,Q4*%
X142102800Y-72895700D03*
X140832800Y-72895700D03*
X139562800Y-72895700D03*
X138292800Y-72895700D03*
X138292800Y-67645700D03*
X139562800Y-67645700D03*
X140832800Y-67645700D03*
X142102800Y-67645700D03*
%TD*%
D27*
%TO.C,C2*%
X122020500Y-87884000D03*
X120295500Y-87884000D03*
%TD*%
%TO.C,C1*%
X122071300Y-84226400D03*
X120346300Y-84226400D03*
%TD*%
D30*
%TO.C,R22*%
X144272000Y-79400400D03*
X144272000Y-77575400D03*
%TD*%
D25*
%TO.C,R20*%
X144272000Y-67516700D03*
X144272000Y-69341700D03*
%TD*%
D30*
%TO.C,R12*%
X134366000Y-79217750D03*
X134366000Y-77392750D03*
%TD*%
M02*
